<svg xmlns="http://www.w3.org/2000/svg" xmlns:xlink="http://www.w3.org/1999/xlink" contentStyleType="text/css" data-diagram-type="CLASS" height="755.9926px" preserveAspectRatio="none" style="width:2604px;height:755px;background:#F8F8F8;" version="1.1" viewBox="0 0 2604 755" width="2604.5558px" zoomAndPan="magnify"><title>World of ECN - Diagramme de classes d&#195;&#169;taill&#195;&#169; (branche haytam)</title><defs/><g><rect fill="#F8F8F8" height="755.9926" style="stroke:none;stroke-width:0.436;" width="2604.5558" x="0" y="0"/><g class="title" data-source-line="13"><text fill="#000000" font-family="'Consolas'" font-size="6.1037" font-weight="bold" lengthAdjust="spacing" textLength="211.4197" x="1193.5396" y="9.936">World of ECN - Diagramme de classes d&#195;&#169;taill&#195;&#169; (branche haytam)</text></g><!--class Analyze--><g class="entity" data-entity="Analyze" data-source-line="14" data-uid="ent0002" id="entity_Analyze"><rect fill="#F1F1F1" height="20.9271" rx="1.09" ry="1.09" style="stroke:#181818;stroke-width:0.218;" width="37.4425" x="1536.1822" y="535.1209"/><ellipse cx="1542.7219" cy="542.0966" fill="#B4A7E5" rx="4.7958" ry="4.7958" style="stroke:#181818;stroke-width:0.436;"/><path d="M1543.1375,540.632 L1543.1375,543.534 L1543.8868,543.534 Q1544.1525,543.534 1544.2683,543.6362 Q1544.3841,543.7384 1544.3841,543.9087 Q1544.3841,544.0722 1544.2683,544.1744 Q1544.1525,544.2766 1543.8868,544.2766 L1541.6456,544.2766 Q1541.3799,544.2766 1541.2641,544.1744 Q1541.1483,544.0722 1541.1483,543.9019 Q1541.1483,543.7384 1541.2641,543.6362 Q1541.3799,543.534 1541.6456,543.534 L1542.3949,543.534 L1542.3949,540.632 L1541.6456,540.632 Q1541.3799,540.632 1541.2641,540.5298 Q1541.1483,540.4277 1541.1483,540.2573 Q1541.1483,540.0939 1541.2641,539.9917 Q1541.3799,539.8895 1541.6456,539.8895 L1543.8868,539.8895 Q1544.1525,539.8895 1544.2683,539.9917 Q1544.3841,540.0939 1544.3841,540.2573 Q1544.3841,540.4277 1544.2683,540.5298 Q1544.1525,540.632 1543.8868,540.632 L1543.1375,540.632 Z " fill="#000000"/><text fill="#000000" font-family="'Consolas'" font-size="6.1037" font-style="italic" font-weight="bold" lengthAdjust="spacing" textLength="23.4911" x="1548.8257" y="544.0994">Analyze</text><line style="stroke:#181818;stroke-width:0.218;" x1="1536.6182" x2="1573.1887" y1="549.0724" y2="549.0724"/><line style="stroke:#181818;stroke-width:0.218;" x1="1536.6182" x2="1573.1887" y1="552.5602" y2="552.5602"/></g><!--class Archer--><g class="entity" data-entity="Archer" data-source-line="17" data-uid="ent0003" id="entity_Archer"><rect fill="#F1F1F1" height="85.2489" rx="1.09" ry="1.09" style="stroke:#181818;stroke-width:0.218;" width="283.7689" x="414.1828" y="44.2053"/><ellipse cx="544.1467" cy="51.181" fill="#ADD1B2" rx="4.7958" ry="4.7958" style="stroke:#181818;stroke-width:0.436;"/><path d="M545.3525,49.3826 Q545.4206,49.2872 545.5023,49.2396 Q545.5841,49.1919 545.6794,49.1919 Q545.8429,49.1919 545.9451,49.3077 Q546.0473,49.4167 546.0473,49.6824 L546.0473,50.3159 Q546.0473,50.5816 545.9451,50.6974 Q545.8429,50.8132 545.6794,50.8132 Q545.5296,50.8132 545.441,50.7246 Q545.3525,50.6429 545.3048,50.4181 Q545.2843,50.2614 545.2026,50.1796 Q545.0595,50.0161 544.7939,49.9208 Q544.5282,49.8254 544.2557,49.8254 Q543.9219,49.8254 543.6426,49.9685 Q543.3701,50.1115 543.1521,50.4385 Q542.9409,50.7655 542.9409,51.2151 L542.9409,51.692 Q542.9409,52.2301 543.3292,52.5912 Q543.7175,52.9454 544.4124,52.9454 Q544.8211,52.9454 545.1072,52.8364 Q545.2775,52.7683 545.4615,52.5775 Q545.5773,52.4617 545.6386,52.4277 Q545.7067,52.3936 545.7953,52.3936 Q545.9383,52.3936 546.0473,52.5094 Q546.1631,52.6184 546.1631,52.7683 Q546.1631,52.9182 546.0132,53.0953 Q545.7953,53.3473 545.4478,53.4904 Q544.9778,53.6879 544.4124,53.6879 Q543.7516,53.6879 543.227,53.4154 Q542.7979,53.1975 542.4981,52.7342 Q542.1984,52.2642 542.1984,51.7056 L542.1984,51.2015 Q542.1984,50.6224 542.4641,50.1251 Q542.7366,49.621 543.2134,49.3554 Q543.6903,49.0829 544.2284,49.0829 Q544.5486,49.0829 544.8279,49.1578 Q545.114,49.2259 545.3525,49.3826 Z " fill="#000000"/><text fill="#000000" font-family="'Consolas'" font-size="6.1037" font-weight="bold" lengthAdjust="spacing" textLength="20.1352" x="553.0843" y="53.1838">Archer</text><line style="stroke:#181818;stroke-width:0.218;" x1="414.6188" x2="697.5157" y1="58.1567" y2="58.1567"/><text fill="#000000" font-family="'Consolas'" font-size="6.1037" lengthAdjust="spacing" textLength="53.6939" x="416.7987" y="65.4769">-nbFleches : int</text><line style="stroke:#181818;stroke-width:0.218;" x1="414.6188" x2="697.5157" y1="68.7915" y2="68.7915"/><text fill="#000000" font-family="'Consolas'" font-size="6.1037" lengthAdjust="spacing" textLength="73.8291" x="416.7987" y="76.1116">+getNbFleches( ) : int</text><text fill="#000000" font-family="'Consolas'" font-size="6.1037" lengthAdjust="spacing" textLength="117.4554" x="416.7987" y="83.2585">+setNbFleches(int nbFleches) : void</text><text fill="#000000" font-family="'Consolas'" font-size="6.1037" lengthAdjust="spacing" textLength="278.5371" x="416.7987" y="90.4054">+combattre(Creature c, Set&lt;Point2D&gt; positionWorld, List&lt;Creature&gt; creatures) : void</text><text fill="#000000" font-family="'Consolas'" font-size="6.1037" lengthAdjust="spacing" textLength="73.8291" x="416.7987" y="97.5522">+jeuDeAtt( ) : boolean</text><text fill="#000000" font-family="'Consolas'" font-size="6.1037" lengthAdjust="spacing" textLength="100.6761" x="416.7987" y="104.6991">+jeuDeDe(Creature c) : boolean</text><text fill="#000000" font-family="'Consolas'" font-size="6.1037" lengthAdjust="spacing" textLength="60.4056" x="416.7987" y="111.846">+affiche( ) : void</text><text fill="#000000" font-family="'Consolas'" font-size="6.1037" lengthAdjust="spacing" textLength="177.861" x="416.7987" y="118.9928">+saveArcher(Connection conn, int idPersonnage) : void</text><text fill="#000000" font-family="'Consolas'" font-size="6.1037" lengthAdjust="spacing" textLength="191.2845" x="416.7987" y="126.1397">+combattre(Creature c, Set&lt;Point2D&gt; positionWorld) : void</text></g><!--class Personnage--><g class="entity" data-entity="Personnage" data-source-line="29" data-uid="ent0004" id="entity_Personnage"><rect fill="#F1F1F1" height="92.3958" rx="1.09" ry="1.09" style="stroke:#181818;stroke-width:0.218;" width="364.3097" x="709.1245" y="244.975"/><ellipse cx="872.6471" cy="251.9507" fill="#ADD1B2" rx="4.7958" ry="4.7958" style="stroke:#181818;stroke-width:0.436;"/><path d="M873.8529,250.1523 Q873.921,250.0569 874.0028,250.0092 Q874.0845,249.9615 874.1799,249.9615 Q874.3434,249.9615 874.4456,250.0773 Q874.5477,250.1863 874.5477,250.452 L874.5477,251.0855 Q874.5477,251.3512 874.4456,251.467 Q874.3434,251.5828 874.1799,251.5828 Q874.03,251.5828 873.9415,251.4943 Q873.8529,251.4125 873.8052,251.1877 Q873.7848,251.031 873.703,250.9493 Q873.56,250.7858 873.2943,250.6904 Q873.0286,250.5951 872.7561,250.5951 Q872.4223,250.5951 872.143,250.7381 Q871.8705,250.8812 871.6525,251.2082 Q871.4414,251.5352 871.4414,251.9848 L871.4414,252.4616 Q871.4414,252.9998 871.8297,253.3608 Q872.218,253.7151 872.9128,253.7151 Q873.3215,253.7151 873.6077,253.6061 Q873.778,253.5379 873.9619,253.3472 Q874.0777,253.2314 874.139,253.1973 Q874.2071,253.1633 874.2957,253.1633 Q874.4387,253.1633 874.5477,253.2791 Q874.6635,253.3881 874.6635,253.5379 Q874.6635,253.6878 874.5137,253.8649 Q874.2957,254.117 873.9483,254.26 Q873.4782,254.4576 872.9128,254.4576 Q872.252,254.4576 871.7275,254.1851 Q871.2983,253.9671 870.9986,253.5039 Q870.6988,253.0338 870.6988,252.4752 L870.6988,251.9711 Q870.6988,251.3921 870.9645,250.8948 Q871.237,250.3907 871.7139,250.125 Q872.1907,249.8525 872.7289,249.8525 Q873.0491,249.8525 873.3284,249.9275 Q873.6145,249.9956 873.8529,250.1523 Z " fill="#000000"/><text fill="#000000" font-family="'Consolas'" font-size="6.1037" font-weight="bold" lengthAdjust="spacing" textLength="33.5587" x="881.5848" y="253.9535">Personnage</text><line style="stroke:#181818;stroke-width:0.218;" x1="709.5605" x2="1072.9983" y1="258.9264" y2="258.9264"/><text fill="#000000" font-family="'Consolas'" font-size="6.1037" lengthAdjust="spacing" textLength="124.1671" x="711.7404" y="266.2466">-effetsActifs : List&lt;ObjetUtilisable&gt;</text><text fill="#000000" font-family="'Consolas'" font-size="6.1037" lengthAdjust="spacing" textLength="83.8967" x="711.7404" y="273.3934">-inventaire : List&lt;Objet&gt;</text><line style="stroke:#181818;stroke-width:0.218;" x1="709.5605" x2="1072.9983" y1="276.708" y2="276.708"/><text fill="#000000" font-family="'Consolas'" font-size="6.1037" lengthAdjust="spacing" textLength="144.3023" x="711.7404" y="284.0282">+getEffetsActifs( ) : List&lt;ObjetUtilisable&gt;</text><text fill="#000000" font-family="'Consolas'" font-size="6.1037" lengthAdjust="spacing" textLength="197.9962" x="711.7404" y="291.175">+setEffetsActifs(List&lt;ObjetUtilisable&gt; effetsActifs) : void</text><text fill="#000000" font-family="'Consolas'" font-size="6.1037" lengthAdjust="spacing" textLength="104.0319" x="711.7404" y="298.3219">+getInventaire( ) : List&lt;Objet&gt;</text><text fill="#000000" font-family="'Consolas'" font-size="6.1037" lengthAdjust="spacing" textLength="151.0141" x="711.7404" y="305.4688">+setInventaire(List&lt;Objet&gt; inventaire) : void</text><text fill="#000000" font-family="'Consolas'" font-size="6.1037" lengthAdjust="spacing" textLength="184.5728" x="711.7404" y="312.6156">+prendObjet(Objet o, Set&lt;Point2D&gt; positionWorld) : void</text><text fill="#000000" font-family="'Consolas'" font-size="6.1037" lengthAdjust="spacing" textLength="93.9643" x="711.7404" y="319.7625">+mettreAJourEffets( ) : void</text><text fill="#000000" font-family="'Consolas'" font-size="6.1037" lengthAdjust="spacing" textLength="359.0779" x="711.7404" y="326.9094">+analyzer(Set&lt;Point2D&gt; positionWorld, List&lt;Creature&gt; creatures, List&lt;Objet&gt; objets, int tailleMonde) : void</text><text fill="#000000" font-family="'Consolas'" font-size="6.1037" lengthAdjust="spacing" textLength="157.7258" x="711.7404" y="334.0562">+saveToDB(Connection conn, int idPartie) : void</text></g><!--class Combattant--><g class="entity" data-entity="Combattant" data-source-line="30" data-uid="ent0006" id="entity_Combattant"><rect fill="#F1F1F1" height="20.9271" rx="1.09" ry="1.09" style="stroke:#181818;stroke-width:0.218;" width="47.5101" x="1892.1614" y="280.7255"/><ellipse cx="1898.7011" cy="287.7012" fill="#B4A7E5" rx="4.7958" ry="4.7958" style="stroke:#181818;stroke-width:0.436;"/><path d="M1899.1167,286.2366 L1899.1167,289.1386 L1899.866,289.1386 Q1900.1317,289.1386 1900.2475,289.2408 Q1900.3633,289.343 1900.3633,289.5133 Q1900.3633,289.6768 1900.2475,289.7789 Q1900.1317,289.8811 1899.866,289.8811 L1897.6248,289.8811 Q1897.3591,289.8811 1897.2433,289.7789 Q1897.1275,289.6768 1897.1275,289.5065 Q1897.1275,289.343 1897.2433,289.2408 Q1897.3591,289.1386 1897.6248,289.1386 L1898.3741,289.1386 L1898.3741,286.2366 L1897.6248,286.2366 Q1897.3591,286.2366 1897.2433,286.1344 Q1897.1275,286.0322 1897.1275,285.8619 Q1897.1275,285.6984 1897.2433,285.5962 Q1897.3591,285.4941 1897.6248,285.4941 L1899.866,285.4941 Q1900.1317,285.4941 1900.2475,285.5962 Q1900.3633,285.6984 1900.3633,285.8619 Q1900.3633,286.0322 1900.2475,286.1344 Q1900.1317,286.2366 1899.866,286.2366 L1899.1167,286.2366 Z " fill="#000000"/><text fill="#000000" font-family="'Consolas'" font-size="6.1037" font-style="italic" font-weight="bold" lengthAdjust="spacing" textLength="33.5587" x="1904.8049" y="289.704">Combattant</text><line style="stroke:#181818;stroke-width:0.218;" x1="1892.5974" x2="1939.2355" y1="294.6769" y2="294.6769"/><line style="stroke:#181818;stroke-width:0.218;" x1="1892.5974" x2="1939.2355" y1="298.1648" y2="298.1648"/></g><!--class ConnexionBD--><g class="entity" data-entity="ConnexionBD" data-source-line="34" data-uid="ent0008" id="entity_ConnexionBD"><rect fill="#F1F1F1" height="49.5146" rx="1.09" ry="1.09" style="stroke:#181818;stroke-width:0.218;" width="105.9078" x="3.0519" y="62.0806"/><ellipse cx="35.6956" cy="69.0563" fill="#ADD1B2" rx="4.7958" ry="4.7958" style="stroke:#181818;stroke-width:0.436;"/><path d="M36.9014,67.2579 Q36.9695,67.1625 37.0512,67.1148 Q37.133,67.0671 37.2283,67.0671 Q37.3918,67.0671 37.494,67.1829 Q37.5962,67.2919 37.5962,67.5576 L37.5962,68.1911 Q37.5962,68.4568 37.494,68.5726 Q37.3918,68.6884 37.2283,68.6884 Q37.0785,68.6884 36.9899,68.5999 Q36.9014,68.5181 36.8537,68.2933 Q36.8332,68.1366 36.7515,68.0549 Q36.6084,67.8914 36.3428,67.796 Q36.0771,67.7007 35.8046,67.7007 Q35.4708,67.7007 35.1915,67.8437 Q34.919,67.9868 34.701,68.3138 Q34.4898,68.6408 34.4898,69.0904 L34.4898,69.5672 Q34.4898,70.1054 34.8781,70.4664 Q35.2664,70.8207 35.9613,70.8207 Q36.37,70.8207 36.6561,70.7117 Q36.8264,70.6435 37.0103,70.4528 Q37.1262,70.337 37.1875,70.3029 Q37.2556,70.2689 37.3441,70.2689 Q37.4872,70.2689 37.5962,70.3847 Q37.712,70.4937 37.712,70.6435 Q37.712,70.7934 37.5621,70.9705 Q37.3441,71.2226 36.9967,71.3656 Q36.5267,71.5632 35.9613,71.5632 Q35.3005,71.5632 34.7759,71.2907 Q34.3468,71.0727 34.047,70.6095 Q33.7473,70.1394 33.7473,69.5808 L33.7473,69.0767 Q33.7473,68.4977 34.013,68.0004 Q34.2855,67.4963 34.7623,67.2306 Q35.2392,66.9581 35.7773,66.9581 Q36.0975,66.9581 36.3768,67.0331 Q36.6629,67.1012 36.9014,67.2579 Z " fill="#000000"/><text fill="#000000" font-family="'Consolas'" font-size="6.1037" font-weight="bold" lengthAdjust="spacing" textLength="36.9146" x="44.6332" y="71.0591">ConnexionBD</text><line style="stroke:#181818;stroke-width:0.218;" x1="3.4879" x2="108.5237" y1="76.032" y2="76.032"/><text fill="#000000" font-family="'Consolas'" font-size="6.1037" lengthAdjust="spacing" textLength="60.4056" x="5.6678" y="83.3522">-conn : Connection</text><line style="stroke:#181818;stroke-width:0.218;" x1="3.4879" x2="108.5237" y1="86.6667" y2="86.6667"/><text fill="#000000" font-family="'Consolas'" font-size="6.1037" lengthAdjust="spacing" textLength="60.4056" x="5.6678" y="93.9869">+connect( ) : void</text><text fill="#000000" font-family="'Consolas'" font-size="6.1037" lengthAdjust="spacing" textLength="100.6761" x="5.6678" y="101.1337">+getConnection( ) : Connection</text><text fill="#000000" font-family="'Consolas'" font-size="6.1037" lengthAdjust="spacing" textLength="53.6939" x="5.6678" y="108.2806">+close( ) : void</text></g><!--class Creature--><g class="entity" data-entity="Creature" data-source-line="41" data-uid="ent0009" id="entity_Creature"><rect fill="#F1F1F1" height="235.3331" rx="1.09" ry="1.09" style="stroke:#181818;stroke-width:0.218;" width="263.6337" x="1198.0782" y="427.8694"/><ellipse cx="1314.6187" cy="434.8451" fill="#ADD1B2" rx="4.7958" ry="4.7958" style="stroke:#181818;stroke-width:0.436;"/><path d="M1315.8244,433.0467 Q1315.8925,432.9513 1315.9743,432.9036 Q1316.056,432.8559 1316.1514,432.8559 Q1316.3149,432.8559 1316.4171,432.9717 Q1316.5193,433.0807 1316.5193,433.3464 L1316.5193,433.98 Q1316.5193,434.2456 1316.4171,434.3614 Q1316.3149,434.4772 1316.1514,434.4772 Q1316.0015,434.4772 1315.913,434.3887 Q1315.8244,434.3069 1315.7767,434.0821 Q1315.7563,433.9255 1315.6746,433.8437 Q1315.5315,433.6802 1315.2658,433.5848 Q1315.0001,433.4895 1314.7277,433.4895 Q1314.3939,433.4895 1314.1146,433.6325 Q1313.8421,433.7756 1313.6241,434.1026 Q1313.4129,434.4296 1313.4129,434.8792 L1313.4129,435.356 Q1313.4129,435.8942 1313.8012,436.2552 Q1314.1895,436.6095 1314.8843,436.6095 Q1315.2931,436.6095 1315.5792,436.5005 Q1315.7495,436.4323 1315.9334,436.2416 Q1316.0492,436.1258 1316.1105,436.0917 Q1316.1787,436.0577 1316.2672,436.0577 Q1316.4103,436.0577 1316.5193,436.1735 Q1316.6351,436.2825 1316.6351,436.4323 Q1316.6351,436.5822 1316.4852,436.7593 Q1316.2672,437.0114 1315.9198,437.1544 Q1315.4498,437.352 1314.8843,437.352 Q1314.2236,437.352 1313.699,437.0795 Q1313.2698,436.8615 1312.9701,436.3983 Q1312.6704,435.9282 1312.6704,435.3696 L1312.6704,434.8655 Q1312.6704,434.2865 1312.936,433.7892 Q1313.2085,433.2851 1313.6854,433.0194 Q1314.1622,432.7469 1314.7004,432.7469 Q1315.0206,432.7469 1315.2999,432.8219 Q1315.586,432.89 1315.8244,433.0467 Z " fill="#000000"/><text fill="#000000" font-family="'Consolas'" font-size="6.1037" font-weight="bold" lengthAdjust="spacing" textLength="26.8469" x="1323.5563" y="436.8479">Creature</text><line style="stroke:#181818;stroke-width:0.218;" x1="1198.5142" x2="1461.2759" y1="441.8208" y2="441.8208"/><text fill="#000000" font-family="'Consolas'" font-size="6.1037" lengthAdjust="spacing" textLength="50.338" x="1200.6941" y="449.141">#etat : boolean</text><text fill="#000000" font-family="'Consolas'" font-size="6.1037" lengthAdjust="spacing" textLength="40.2704" x="1200.6941" y="456.2878">#ptVie : int</text><text fill="#000000" font-family="'Consolas'" font-size="6.1037" lengthAdjust="spacing" textLength="43.6263" x="1200.6941" y="463.4347">#degAtt : int</text><text fill="#000000" font-family="'Consolas'" font-size="6.1037" lengthAdjust="spacing" textLength="40.2704" x="1200.6941" y="470.5816">#ptPar : int</text><text fill="#000000" font-family="'Consolas'" font-size="6.1037" lengthAdjust="spacing" textLength="46.9822" x="1200.6941" y="477.7284">#pageAtt : int</text><text fill="#000000" font-family="'Consolas'" font-size="6.1037" lengthAdjust="spacing" textLength="46.9822" x="1200.6941" y="484.8753">#pagePar : int</text><text fill="#000000" font-family="'Consolas'" font-size="6.1037" lengthAdjust="spacing" textLength="57.0498" x="1200.6941" y="492.0222">#distAttMax : int</text><text fill="#000000" font-family="'Consolas'" font-size="6.1037" lengthAdjust="spacing" textLength="70.4732" x="1200.6941" y="499.169">#distanceVision : int</text><line style="stroke:#181818;stroke-width:0.218;" x1="1198.5142" x2="1461.2759" y1="502.4836" y2="502.4836"/><text fill="#000000" font-family="'Consolas'" font-size="6.1037" lengthAdjust="spacing" textLength="60.4056" x="1200.6941" y="509.8038">+getPtVie( ) : int</text><text fill="#000000" font-family="'Consolas'" font-size="6.1037" lengthAdjust="spacing" textLength="90.6084" x="1200.6941" y="516.9506">+setPtVie(int ptVie) : void</text><text fill="#000000" font-family="'Consolas'" font-size="6.1037" lengthAdjust="spacing" textLength="63.7615" x="1200.6941" y="524.0975">+getDegAtt( ) : int</text><text fill="#000000" font-family="'Consolas'" font-size="6.1037" lengthAdjust="spacing" textLength="97.3202" x="1200.6941" y="531.2444">+setDegAtt(int degAtt) : void</text><text fill="#000000" font-family="'Consolas'" font-size="6.1037" lengthAdjust="spacing" textLength="60.4056" x="1200.6941" y="538.3912">+getPtPar( ) : int</text><text fill="#000000" font-family="'Consolas'" font-size="6.1037" lengthAdjust="spacing" textLength="90.6084" x="1200.6941" y="545.5381">+setPtPar(int ptPar) : void</text><text fill="#000000" font-family="'Consolas'" font-size="6.1037" lengthAdjust="spacing" textLength="67.1174" x="1200.6941" y="552.685">+getPageAtt( ) : int</text><text fill="#000000" font-family="'Consolas'" font-size="6.1037" lengthAdjust="spacing" textLength="104.0319" x="1200.6941" y="559.8318">+setPageAtt(int pageAtt) : void</text><text fill="#000000" font-family="'Consolas'" font-size="6.1037" lengthAdjust="spacing" textLength="67.1174" x="1200.6941" y="566.9787">+getPagePar( ) : int</text><text fill="#000000" font-family="'Consolas'" font-size="6.1037" lengthAdjust="spacing" textLength="104.0319" x="1200.6941" y="574.1256">+setPagePar(int pagePar) : void</text><text fill="#000000" font-family="'Consolas'" font-size="6.1037" lengthAdjust="spacing" textLength="90.6084" x="1200.6941" y="581.2724">+getDistanceVision( ) : int</text><text fill="#000000" font-family="'Consolas'" font-size="6.1037" lengthAdjust="spacing" textLength="151.0141" x="1200.6941" y="588.4193">+setDistanceVision(int distanceVision) : void</text><text fill="#000000" font-family="'Consolas'" font-size="6.1037" lengthAdjust="spacing" textLength="77.185" x="1200.6941" y="595.5662">+getDistAttMax( ) : int</text><text fill="#000000" font-family="'Consolas'" font-size="6.1037" lengthAdjust="spacing" textLength="124.1671" x="1200.6941" y="602.713">+setDistAttMax(int distAttMax) : void</text><text fill="#000000" font-family="'Consolas'" font-size="6.1037" lengthAdjust="spacing" textLength="67.1174" x="1200.6941" y="609.8599">+isEtat( ) : boolean</text><text fill="#000000" font-family="'Consolas'" font-size="6.1037" lengthAdjust="spacing" textLength="97.3202" x="1200.6941" y="617.0068">+setEtat(boolean etat) : void</text><text fill="#000000" font-family="'Consolas'" font-size="6.1037" lengthAdjust="spacing" textLength="107.3878" x="1200.6941" y="624.1536">+deplacer(int dx, int dy) : void</text><text fill="#000000" font-family="'Consolas'" font-size="6.1037" lengthAdjust="spacing" textLength="258.4019" x="1200.6941" y="631.3005">+deplacementAleatoire(Set&lt;Point2D&gt; positionsOccupees, int tailleMonde) : void</text><text fill="#000000" font-family="'Consolas'" font-size="6.1037" lengthAdjust="spacing" textLength="228.1991" x="1200.6941" y="638.4474">+mourir(Set&lt;Point2D&gt; positionWorld, List&lt;Creature&gt; creatures) : void</text><text fill="#000000" font-family="'Consolas'" font-size="6.1037" lengthAdjust="spacing" textLength="60.4056" x="1200.6941" y="645.5942">+affiche( ) : void</text><text fill="#000000" font-family="'Consolas'" font-size="6.1037" lengthAdjust="spacing" textLength="90.6084" x="1200.6941" y="652.7411">+deplaceAleatoire( ) : void</text><text fill="#000000" font-family="'Consolas'" font-size="6.1037" lengthAdjust="spacing" textLength="140.9465" x="1200.6941" y="659.888">+mourir(Set&lt;Point2D&gt; positionWorld) : void</text></g><!--class ElementDeJeu--><g class="entity" data-entity="ElementDeJeu" data-source-line="74" data-uid="ent0010" id="entity_ElementDeJeu"><rect fill="#F1F1F1" height="63.8083" rx="1.09" ry="1.09" style="stroke:#181818;stroke-width:0.218;" width="95.8402" x="1601.5795" y="689.4585"/><ellipse cx="1627.5115" cy="696.4342" fill="#A9DCDF" rx="4.7958" ry="4.7958" style="stroke:#181818;stroke-width:0.436;"/><path d="M1628.4652,697.204 L1626.6599,697.204 L1626.476,697.6536 L1626.6599,697.6536 Q1626.9256,697.6536 1627.0414,697.7558 Q1627.1572,697.858 1627.1572,698.0283 Q1627.1572,698.1918 1627.0414,698.294 Q1626.9256,698.3962 1626.6599,698.3962 L1625.6585,698.3962 Q1625.3929,698.3962 1625.2839,698.294 Q1625.1681,698.1918 1625.1681,698.0215 Q1625.1681,697.858 1625.2907,697.7558 Q1625.4065,697.6468 1625.679,697.6536 L1626.8439,694.7516 L1626.3602,694.7516 Q1626.0945,694.7516 1625.9787,694.6494 Q1625.8629,694.5473 1625.8629,694.3769 Q1625.8629,694.2135 1625.9787,694.1113 Q1626.0945,694.0091 1626.3602,694.0091 L1627.9611,694.0091 L1629.4393,697.6536 Q1629.6982,697.6536 1629.7799,697.7149 Q1629.9502,697.8307 1629.9502,698.0283 Q1629.9502,698.1918 1629.8344,698.294 Q1629.7254,698.3962 1629.4598,698.3962 L1628.4584,698.3962 Q1628.1927,698.3962 1628.0769,698.294 Q1627.9611,698.1918 1627.9611,698.0215 Q1627.9611,697.858 1628.0769,697.7558 Q1628.1927,697.6536 1628.4584,697.6536 L1628.6423,697.6536 L1628.4652,697.204 Z M1628.1518,696.4615 L1627.5591,694.99 L1626.9597,696.4615 L1628.1518,696.4615 Z " fill="#000000"/><text fill="#000000" font-family="'Consolas'" font-size="6.1037" font-style="italic" font-weight="bold" lengthAdjust="spacing" textLength="40.2704" x="1636.4491" y="698.437">ElementDeJeu</text><line style="stroke:#181818;stroke-width:0.218;" x1="1602.0155" x2="1696.9837" y1="703.4099" y2="703.4099"/><text fill="#000000" font-family="'Consolas'" font-size="6.1037" lengthAdjust="spacing" textLength="43.6263" x="1604.1954" y="710.7301">#nom : String</text><text fill="#000000" font-family="'Consolas'" font-size="6.1037" lengthAdjust="spacing" textLength="46.9822" x="1604.1954" y="717.877">#pos : Point2D</text><line style="stroke:#181818;stroke-width:0.218;" x1="1602.0155" x2="1696.9837" y1="721.1915" y2="721.1915"/><text fill="#000000" font-family="'Consolas'" font-size="6.1037" lengthAdjust="spacing" textLength="63.7615" x="1604.1954" y="728.5117">+getNom( ) : String</text><text fill="#000000" font-family="'Consolas'" font-size="6.1037" lengthAdjust="spacing" textLength="87.2526" x="1604.1954" y="735.6586">+setNom(String nom) : void</text><text fill="#000000" font-family="'Consolas'" font-size="6.1037" lengthAdjust="spacing" textLength="67.1174" x="1604.1954" y="742.8054">+getPos( ) : Point2D</text><text fill="#000000" font-family="'Consolas'" font-size="6.1037" lengthAdjust="spacing" textLength="90.6084" x="1604.1954" y="749.9523">+setPos(Point2D pos) : void</text></g><!--class Deplacable--><g class="entity" data-entity="Deplacable" data-source-line="75" data-uid="ent0012" id="entity_Deplacable"><rect fill="#F1F1F1" height="20.9271" rx="1.09" ry="1.09" style="stroke:#181818;stroke-width:0.218;" width="47.5101" x="1932.2717" y="710.8216"/><ellipse cx="1938.8115" cy="717.7973" fill="#B4A7E5" rx="4.7958" ry="4.7958" style="stroke:#181818;stroke-width:0.436;"/><path d="M1939.227,716.3327 L1939.227,719.2347 L1939.9764,719.2347 Q1940.242,719.2347 1940.3578,719.3369 Q1940.4736,719.4391 1940.4736,719.6094 Q1940.4736,719.7729 1940.3578,719.8751 Q1940.242,719.9773 1939.9764,719.9773 L1937.7351,719.9773 Q1937.4695,719.9773 1937.3537,719.8751 Q1937.2378,719.7729 1937.2378,719.6026 Q1937.2378,719.4391 1937.3537,719.3369 Q1937.4695,719.2347 1937.7351,719.2347 L1938.4845,719.2347 L1938.4845,716.3327 L1937.7351,716.3327 Q1937.4695,716.3327 1937.3537,716.2305 Q1937.2378,716.1284 1937.2378,715.9581 Q1937.2378,715.7946 1937.3537,715.6924 Q1937.4695,715.5902 1937.7351,715.5902 L1939.9764,715.5902 Q1940.242,715.5902 1940.3578,715.6924 Q1940.4736,715.7946 1940.4736,715.9581 Q1940.4736,716.1284 1940.3578,716.2305 Q1940.242,716.3327 1939.9764,716.3327 L1939.227,716.3327 Z " fill="#000000"/><text fill="#000000" font-family="'Consolas'" font-size="6.1037" font-style="italic" font-weight="bold" lengthAdjust="spacing" textLength="33.5587" x="1944.9152" y="719.8001">Deplacable</text><line style="stroke:#181818;stroke-width:0.218;" x1="1932.7077" x2="1979.3459" y1="724.7731" y2="724.7731"/><line style="stroke:#181818;stroke-width:0.218;" x1="1932.7077" x2="1979.3459" y1="728.2609" y2="728.2609"/></g><!--class Epee--><g class="entity" data-entity="Epee" data-source-line="88" data-uid="ent0014" id="entity_Epee"><rect fill="#F1F1F1" height="70.9552" rx="1.09" ry="1.09" style="stroke:#181818;stroke-width:0.218;" width="162.9576" x="1860.5527" y="51.399"/><ellipse cx="1933.4669" cy="58.3747" fill="#ADD1B2" rx="4.7958" ry="4.7958" style="stroke:#181818;stroke-width:0.436;"/><path d="M1934.6726,56.5763 Q1934.7407,56.4809 1934.8225,56.4333 Q1934.9042,56.3856 1934.9996,56.3856 Q1935.1631,56.3856 1935.2653,56.5014 Q1935.3675,56.6104 1935.3675,56.8761 L1935.3675,57.5096 Q1935.3675,57.7753 1935.2653,57.8911 Q1935.1631,58.0069 1934.9996,58.0069 Q1934.8497,58.0069 1934.7612,57.9183 Q1934.6726,57.8366 1934.6249,57.6118 Q1934.6045,57.4551 1934.5228,57.3733 Q1934.3797,57.2099 1934.114,57.1145 Q1933.8483,57.0191 1933.5759,57.0191 Q1933.2421,57.0191 1932.9628,57.1622 Q1932.6903,57.3052 1932.4723,57.6322 Q1932.2611,57.9592 1932.2611,58.4088 L1932.2611,58.8857 Q1932.2611,59.4238 1932.6494,59.7849 Q1933.0377,60.1391 1933.7325,60.1391 Q1934.1413,60.1391 1934.4274,60.0301 Q1934.5977,59.962 1934.7816,59.7712 Q1934.8974,59.6554 1934.9587,59.6214 Q1935.0269,59.5873 1935.1154,59.5873 Q1935.2585,59.5873 1935.3675,59.7031 Q1935.4833,59.8121 1935.4833,59.962 Q1935.4833,60.1119 1935.3334,60.289 Q1935.1154,60.541 1934.768,60.6841 Q1934.2979,60.8816 1933.7325,60.8816 Q1933.0717,60.8816 1932.5472,60.6091 Q1932.118,60.3912 1931.8183,59.9279 Q1931.5186,59.4579 1931.5186,58.8993 L1931.5186,58.3952 Q1931.5186,57.8161 1931.7842,57.3188 Q1932.0567,56.8147 1932.5336,56.5491 Q1933.0104,56.2766 1933.5486,56.2766 Q1933.8688,56.2766 1934.1481,56.3515 Q1934.4342,56.4196 1934.6726,56.5763 Z " fill="#000000"/><text fill="#000000" font-family="'Consolas'" font-size="6.1037" font-weight="bold" lengthAdjust="spacing" textLength="13.4235" x="1942.4045" y="60.3775">Epee</text><line style="stroke:#181818;stroke-width:0.218;" x1="1860.9887" x2="2023.0743" y1="65.3504" y2="65.3504"/><text fill="#000000" font-family="'Consolas'" font-size="6.1037" lengthAdjust="spacing" textLength="36.9146" x="1863.1686" y="72.6706">-pAtt : int</text><text fill="#000000" font-family="'Consolas'" font-size="6.1037" lengthAdjust="spacing" textLength="43.6263" x="1863.1686" y="79.8175">-effet : Etat</text><line style="stroke:#181818;stroke-width:0.218;" x1="1860.9887" x2="2023.0743" y1="83.132" y2="83.132"/><text fill="#000000" font-family="'Consolas'" font-size="6.1037" lengthAdjust="spacing" textLength="63.7615" x="1863.1686" y="90.4522">+getEffet( ) : Etat</text><text fill="#000000" font-family="'Consolas'" font-size="6.1037" lengthAdjust="spacing" textLength="93.9643" x="1863.1686" y="97.5991">+setEffet(Etat effet) : void</text><text fill="#000000" font-family="'Consolas'" font-size="6.1037" lengthAdjust="spacing" textLength="57.0498" x="1863.1686" y="104.7459">+getpAtt( ) : int</text><text fill="#000000" font-family="'Consolas'" font-size="6.1037" lengthAdjust="spacing" textLength="83.8967" x="1863.1686" y="111.8928">+setpAtt(int pAtt) : void</text><text fill="#000000" font-family="'Consolas'" font-size="6.1037" lengthAdjust="spacing" textLength="157.7258" x="1863.1686" y="119.0397">+saveToDB(Connection conn, int idPartie) : void</text></g><!--class Objet--><g class="entity" data-entity="Objet" data-source-line="98" data-uid="ent0015" id="entity_Objet"><rect fill="#F1F1F1" height="63.8083" rx="1.09" ry="1.09" style="stroke:#181818;stroke-width:0.218;" width="146.1783" x="1954.9428" y="259.3624"/><ellipse cx="2017.7893" cy="266.3381" fill="#ADD1B2" rx="4.7958" ry="4.7958" style="stroke:#181818;stroke-width:0.436;"/><path d="M2018.9951,264.5397 Q2019.0632,264.4443 2019.145,264.3966 Q2019.2267,264.3489 2019.3221,264.3489 Q2019.4856,264.3489 2019.5878,264.4647 Q2019.6899,264.5737 2019.6899,264.8394 L2019.6899,265.4729 Q2019.6899,265.7386 2019.5878,265.8544 Q2019.4856,265.9702 2019.3221,265.9702 Q2019.1722,265.9702 2019.0837,265.8817 Q2018.9951,265.7999 2018.9474,265.5751 Q2018.927,265.4185 2018.8452,265.3367 Q2018.7022,265.1732 2018.4365,265.0778 Q2018.1708,264.9825 2017.8983,264.9825 Q2017.5645,264.9825 2017.2852,265.1255 Q2017.0127,265.2686 2016.7947,265.5956 Q2016.5836,265.9226 2016.5836,266.3722 L2016.5836,266.849 Q2016.5836,267.3872 2016.9719,267.7482 Q2017.3602,268.1025 2018.055,268.1025 Q2018.4637,268.1025 2018.7499,267.9935 Q2018.9202,267.9253 2019.1041,267.7346 Q2019.2199,267.6188 2019.2812,267.5847 Q2019.3493,267.5507 2019.4379,267.5507 Q2019.5809,267.5507 2019.6899,267.6665 Q2019.8057,267.7755 2019.8057,267.9253 Q2019.8057,268.0752 2019.6559,268.2523 Q2019.4379,268.5044 2019.0905,268.6474 Q2018.6204,268.845 2018.055,268.845 Q2017.3942,268.845 2016.8697,268.5725 Q2016.4405,268.3545 2016.1408,267.8913 Q2015.841,267.4212 2015.841,266.8626 L2015.841,266.3585 Q2015.841,265.7795 2016.1067,265.2822 Q2016.3792,264.7781 2016.8561,264.5124 Q2017.3329,264.2399 2017.8711,264.2399 Q2018.1913,264.2399 2018.4706,264.3149 Q2018.7567,264.383 2018.9951,264.5397 Z " fill="#000000"/><text fill="#000000" font-family="'Consolas'" font-size="6.1037" font-weight="bold" lengthAdjust="spacing" textLength="16.7793" x="2026.727" y="268.3409">Objet</text><line style="stroke:#181818;stroke-width:0.218;" x1="1955.3788" x2="2100.6851" y1="273.3138" y2="273.3138"/><text fill="#000000" font-family="'Consolas'" font-size="6.1037" lengthAdjust="spacing" textLength="70.4732" x="1957.5587" y="280.634">-description : String</text><line style="stroke:#181818;stroke-width:0.218;" x1="1955.3788" x2="2100.6851" y1="283.9485" y2="283.9485"/><text fill="#000000" font-family="'Consolas'" font-size="6.1037" lengthAdjust="spacing" textLength="90.6084" x="1957.5587" y="291.2687">+getDescription( ) : String</text><text fill="#000000" font-family="'Consolas'" font-size="6.1037" lengthAdjust="spacing" textLength="140.9465" x="1957.5587" y="298.4156">+setDescription(String description) : void</text><text fill="#000000" font-family="'Consolas'" font-size="6.1037" lengthAdjust="spacing" textLength="83.8967" x="1957.5587" y="305.5624">+getPosition( ) : Point2D</text><text fill="#000000" font-family="'Consolas'" font-size="6.1037" lengthAdjust="spacing" textLength="124.1671" x="1957.5587" y="312.7093">+setPosition(Point2D position) : void</text><text fill="#000000" font-family="'Consolas'" font-size="6.1037" lengthAdjust="spacing" textLength="60.4056" x="1957.5587" y="319.8562">+affiche( ) : void</text></g><!--class Erreurs--><g class="entity" data-entity="Erreurs" data-source-line="99" data-uid="ent0017" id="entity_Erreurs"><rect fill="#F1F1F1" height="49.5146" rx="1.09" ry="1.09" style="stroke:#181818;stroke-width:0.218;" width="142.8224" x="124.4728" y="62.0806"/><ellipse cx="182.2856" cy="69.0563" fill="#ADD1B2" rx="4.7958" ry="4.7958" style="stroke:#181818;stroke-width:0.436;"/><path d="M183.4913,67.2579 Q183.5594,67.1625 183.6412,67.1148 Q183.7229,67.0671 183.8183,67.0671 Q183.9818,67.0671 184.084,67.1829 Q184.1862,67.2919 184.1862,67.5576 L184.1862,68.1911 Q184.1862,68.4568 184.084,68.5726 Q183.9818,68.6884 183.8183,68.6884 Q183.6684,68.6884 183.5799,68.5999 Q183.4913,68.5181 183.4436,68.2933 Q183.4232,68.1366 183.3415,68.0549 Q183.1984,67.8914 182.9327,67.796 Q182.667,67.7007 182.3946,67.7007 Q182.0608,67.7007 181.7815,67.8437 Q181.509,67.9868 181.291,68.3138 Q181.0798,68.6408 181.0798,69.0904 L181.0798,69.5672 Q181.0798,70.1054 181.4681,70.4664 Q181.8564,70.8207 182.5512,70.8207 Q182.96,70.8207 183.2461,70.7117 Q183.4164,70.6435 183.6003,70.4528 Q183.7161,70.337 183.7774,70.3029 Q183.8456,70.2689 183.9341,70.2689 Q184.0772,70.2689 184.1862,70.3847 Q184.302,70.4937 184.302,70.6435 Q184.302,70.7934 184.1521,70.9705 Q183.9341,71.2226 183.5867,71.3656 Q183.1167,71.5632 182.5512,71.5632 Q181.8905,71.5632 181.3659,71.2907 Q180.9367,71.0727 180.637,70.6095 Q180.3373,70.1394 180.3373,69.5808 L180.3373,69.0767 Q180.3373,68.4977 180.6029,68.0004 Q180.8754,67.4963 181.3523,67.2306 Q181.8291,66.9581 182.3673,66.9581 Q182.6875,66.9581 182.9668,67.0331 Q183.2529,67.1012 183.4913,67.2579 Z " fill="#000000"/><text fill="#000000" font-family="'Consolas'" font-size="6.1037" font-weight="bold" lengthAdjust="spacing" textLength="23.4911" x="191.2232" y="71.0591">Erreurs</text><line style="stroke:#181818;stroke-width:0.218;" x1="124.9088" x2="266.8592" y1="76.032" y2="76.032"/><line style="stroke:#181818;stroke-width:0.218;" x1="124.9088" x2="266.8592" y1="79.5199" y2="79.5199"/><text fill="#000000" font-family="'Consolas'" font-size="6.1037" lengthAdjust="spacing" textLength="117.4554" x="127.0887" y="86.84">+demonstrationErreursJava( ) : void</text><text fill="#000000" font-family="'Consolas'" font-size="6.1037" lengthAdjust="spacing" textLength="117.4554" x="127.0887" y="93.9869">-afficherErreur(Exception e) : void</text><text fill="#000000" font-family="'Consolas'" font-size="6.1037" lengthAdjust="spacing" textLength="127.523" x="127.0887" y="101.1337">-methodeRecursive(int compteur) : void</text><text fill="#000000" font-family="'Consolas'" font-size="6.1037" lengthAdjust="spacing" textLength="137.5906" x="127.0887" y="108.2806">-GenerationM(int id, Point2D p) : Monstre</text></g><!--class Guerrier--><g class="entity" data-entity="Guerrier" data-source-line="106" data-uid="ent0018" id="entity_Guerrier"><rect fill="#F1F1F1" height="49.5146" rx="1.09" ry="1.09" style="stroke:#181818;stroke-width:0.218;" width="280.413" x="912.0741" y="62.0806"/><ellipse cx="1037.0042" cy="69.0563" fill="#ADD1B2" rx="4.7958" ry="4.7958" style="stroke:#181818;stroke-width:0.436;"/><path d="M1038.21,67.2579 Q1038.2781,67.1625 1038.3598,67.1148 Q1038.4416,67.0671 1038.537,67.0671 Q1038.7005,67.0671 1038.8026,67.1829 Q1038.9048,67.2919 1038.9048,67.5576 L1038.9048,68.1911 Q1038.9048,68.4568 1038.8026,68.5726 Q1038.7005,68.6884 1038.537,68.6884 Q1038.3871,68.6884 1038.2985,68.5999 Q1038.21,68.5181 1038.1623,68.2933 Q1038.1419,68.1366 1038.0601,68.0549 Q1037.9171,67.8914 1037.6514,67.796 Q1037.3857,67.7007 1037.1132,67.7007 Q1036.7794,67.7007 1036.5001,67.8437 Q1036.2276,67.9868 1036.0096,68.3138 Q1035.7985,68.6408 1035.7985,69.0904 L1035.7985,69.5672 Q1035.7985,70.1054 1036.1867,70.4664 Q1036.575,70.8207 1037.2699,70.8207 Q1037.6786,70.8207 1037.9647,70.7117 Q1038.135,70.6435 1038.319,70.4528 Q1038.4348,70.337 1038.4961,70.3029 Q1038.5642,70.2689 1038.6528,70.2689 Q1038.7958,70.2689 1038.9048,70.3847 Q1039.0206,70.4937 1039.0206,70.6435 Q1039.0206,70.7934 1038.8708,70.9705 Q1038.6528,71.2226 1038.3053,71.3656 Q1037.8353,71.5632 1037.2699,71.5632 Q1036.6091,71.5632 1036.0846,71.2907 Q1035.6554,71.0727 1035.3557,70.6095 Q1035.0559,70.1394 1035.0559,69.5808 L1035.0559,69.0767 Q1035.0559,68.4977 1035.3216,68.0004 Q1035.5941,67.4963 1036.0709,67.2306 Q1036.5478,66.9581 1037.086,66.9581 Q1037.4061,66.9581 1037.6854,67.0331 Q1037.9715,67.1012 1038.21,67.2579 Z " fill="#000000"/><text fill="#000000" font-family="'Consolas'" font-size="6.1037" font-weight="bold" lengthAdjust="spacing" textLength="26.8469" x="1045.9418" y="71.0591">Guerrier</text><line style="stroke:#181818;stroke-width:0.218;" x1="912.5101" x2="1192.0511" y1="76.032" y2="76.032"/><line style="stroke:#181818;stroke-width:0.218;" x1="912.5101" x2="1192.0511" y1="79.5199" y2="79.5199"/><text fill="#000000" font-family="'Consolas'" font-size="6.1037" lengthAdjust="spacing" textLength="275.1812" x="914.69" y="86.84">+combattre(Creature c, Set&lt;Point2D&gt; positionWorld,List&lt;Creature&gt; creatures) : void</text><text fill="#000000" font-family="'Consolas'" font-size="6.1037" lengthAdjust="spacing" textLength="73.8291" x="914.69" y="93.9869">+jeuDeAtt( ) : boolean</text><text fill="#000000" font-family="'Consolas'" font-size="6.1037" lengthAdjust="spacing" textLength="100.6761" x="914.69" y="101.1337">+jeuDeDe(Creature c) : boolean</text><text fill="#000000" font-family="'Consolas'" font-size="6.1037" lengthAdjust="spacing" textLength="184.5728" x="914.69" y="108.2806">+saveGuerrier(Connection conn, int idPersonnage) : void</text></g><!--class Joueur--><g class="entity" data-entity="Joueur" data-source-line="115" data-uid="ent0021" id="entity_Joueur"><rect fill="#F1F1F1" height="128.1301" rx="1.09" ry="1.09" style="stroke:#181818;stroke-width:0.218;" width="407.936" x="1468.605" y="227.0997"/><ellipse cx="1660.6525" cy="234.0754" fill="#ADD1B2" rx="4.7958" ry="4.7958" style="stroke:#181818;stroke-width:0.436;"/><path d="M1661.8582,232.277 Q1661.9264,232.1816 1662.0081,232.134 Q1662.0898,232.0863 1662.1852,232.0863 Q1662.3487,232.0863 1662.4509,232.2021 Q1662.5531,232.3111 1662.5531,232.5768 L1662.5531,233.2103 Q1662.5531,233.476 1662.4509,233.5918 Q1662.3487,233.7076 1662.1852,233.7076 Q1662.0353,233.7076 1661.9468,233.619 Q1661.8582,233.5373 1661.8105,233.3125 Q1661.7901,233.1558 1661.7084,233.074 Q1661.5653,232.9106 1661.2996,232.8152 Q1661.034,232.7198 1660.7615,232.7198 Q1660.4277,232.7198 1660.1484,232.8629 Q1659.8759,233.0059 1659.6579,233.3329 Q1659.4467,233.6599 1659.4467,234.1095 L1659.4467,234.5864 Q1659.4467,235.1245 1659.835,235.4856 Q1660.2233,235.8398 1660.9181,235.8398 Q1661.3269,235.8398 1661.613,235.7308 Q1661.7833,235.6627 1661.9672,235.4719 Q1662.083,235.3561 1662.1443,235.3221 Q1662.2125,235.288 1662.301,235.288 Q1662.4441,235.288 1662.5531,235.4038 Q1662.6689,235.5128 1662.6689,235.6627 Q1662.6689,235.8126 1662.519,235.9897 Q1662.301,236.2417 1661.9536,236.3848 Q1661.4836,236.5823 1660.9181,236.5823 Q1660.2574,236.5823 1659.7328,236.3098 Q1659.3036,236.0919 1659.0039,235.6286 Q1658.7042,235.1586 1658.7042,234.6 L1658.7042,234.0959 Q1658.7042,233.5168 1658.9698,233.0195 Q1659.2423,232.5154 1659.7192,232.2498 Q1660.196,231.9773 1660.7342,231.9773 Q1661.0544,231.9773 1661.3337,232.0522 Q1661.6198,232.1203 1661.8582,232.277 Z " fill="#000000"/><text fill="#000000" font-family="'Consolas'" font-size="6.1037" font-weight="bold" lengthAdjust="spacing" textLength="20.1352" x="1669.5901" y="236.0782">Joueur</text><line style="stroke:#181818;stroke-width:0.218;" x1="1469.041" x2="1876.105" y1="241.0512" y2="241.0512"/><text fill="#000000" font-family="'Consolas'" font-size="6.1037" lengthAdjust="spacing" textLength="60.4056" x="1471.2209" y="248.3713">+hero : Personnage</text><text fill="#000000" font-family="'Consolas'" font-size="6.1037" lengthAdjust="spacing" textLength="63.7615" x="1471.2209" y="255.5182">-nomJoueur : String</text><text fill="#000000" font-family="'Consolas'" font-size="6.1037" lengthAdjust="spacing" textLength="87.2526" x="1471.2209" y="262.665">-actionEffectuee : boolean</text><line style="stroke:#181818;stroke-width:0.218;" x1="1469.041" x2="1876.105" y1="265.9796" y2="265.9796"/><text fill="#000000" font-family="'Consolas'" font-size="6.1037" lengthAdjust="spacing" textLength="83.8967" x="1471.2209" y="273.2998">+getNomJoueur( ) : String</text><text fill="#000000" font-family="'Consolas'" font-size="6.1037" lengthAdjust="spacing" textLength="127.523" x="1471.2209" y="280.4466">+setNomJoueur(String nomJoueur) : void</text><text fill="#000000" font-family="'Consolas'" font-size="6.1037" lengthAdjust="spacing" textLength="80.5408" x="1471.2209" y="287.5935">+getHero( ) : Personnage</text><text fill="#000000" font-family="'Consolas'" font-size="6.1037" lengthAdjust="spacing" textLength="107.3878" x="1471.2209" y="294.7404">+setHero(Personnage hero) : void</text><text fill="#000000" font-family="'Consolas'" font-size="6.1037" lengthAdjust="spacing" textLength="359.0779" x="1471.2209" y="301.8872">+analyzer(Set&lt;Point2D&gt; positionWorld, List&lt;Creature&gt; creatures, List&lt;Objet&gt; objets, int tailleMonde) : void</text><text fill="#000000" font-family="'Consolas'" font-size="6.1037" lengthAdjust="spacing" textLength="402.7042" x="1471.2209" y="309.0341">+analyzer(Set&lt;Point2D&gt; positionWorld, List&lt;Creature&gt; creatures, List&lt;Objet&gt; objets, World world, Connection conn) : void</text><text fill="#000000" font-family="'Consolas'" font-size="6.1037" lengthAdjust="spacing" textLength="231.5549" x="1471.2209" y="316.181">+deplacerController(List&lt;Creature&gt; creatures, int tailleMonde) : void</text><text fill="#000000" font-family="'Consolas'" font-size="6.1037" lengthAdjust="spacing" textLength="375.8573" x="1471.2209" y="323.3278">+attaqueController(List&lt;Creature&gt; ciblesAdjacentes, Set&lt;Point2D&gt; positionWorld, List&lt;Creature&gt; creatures) : void</text><text fill="#000000" font-family="'Consolas'" font-size="6.1037" lengthAdjust="spacing" textLength="288.6047" x="1471.2209" y="330.4747">+interactionController(Objet o, Set&lt;Point2D&gt; positionWorld, List&lt;Objet&gt; objets) : void</text><text fill="#000000" font-family="'Consolas'" font-size="6.1037" lengthAdjust="spacing" textLength="114.0995" x="1471.2209" y="337.6216">+utiliserObjetController( ) : void</text><text fill="#000000" font-family="'Consolas'" font-size="6.1037" lengthAdjust="spacing" textLength="171.1493" x="1471.2209" y="344.7684">+saveToDB(Connection conn, int idPersonnage) : void</text><text fill="#000000" font-family="'Consolas'" font-size="6.1037" lengthAdjust="spacing" textLength="208.0638" x="1471.2209" y="351.9153">+chargerPartieDepuisDebut(Connection conn, World world) : void</text></g><!--class Lapin--><g class="entity" data-entity="Lapin" data-source-line="134" data-uid="ent0023" id="entity_Lapin"><rect fill="#F1F1F1" height="28.074" rx="1.09" ry="1.09" style="stroke:#181818;stroke-width:0.218;" width="162.9576" x="1207.8878" y="72.9801"/><ellipse cx="1279.124" cy="79.9558" fill="#ADD1B2" rx="4.7958" ry="4.7958" style="stroke:#181818;stroke-width:0.436;"/><path d="M1280.3298,78.1574 Q1280.3979,78.062 1280.4797,78.0144 Q1280.5614,77.9667 1280.6568,77.9667 Q1280.8203,77.9667 1280.9225,78.0825 Q1281.0246,78.1915 1281.0246,78.4572 L1281.0246,79.0907 Q1281.0246,79.3564 1280.9225,79.4722 Q1280.8203,79.588 1280.6568,79.588 Q1280.5069,79.588 1280.4184,79.4994 Q1280.3298,79.4177 1280.2821,79.1929 Q1280.2617,79.0362 1280.1799,78.9544 Q1280.0369,78.791 1279.7712,78.6956 Q1279.5055,78.6002 1279.233,78.6002 Q1278.8992,78.6002 1278.6199,78.7433 Q1278.3474,78.8863 1278.1294,79.2133 Q1277.9183,79.5403 1277.9183,79.9899 L1277.9183,80.4668 Q1277.9183,81.0049 1278.3066,81.366 Q1278.6949,81.7202 1279.3897,81.7202 Q1279.7984,81.7202 1280.0846,81.6112 Q1280.2549,81.5431 1280.4388,81.3523 Q1280.5546,81.2365 1280.6159,81.2025 Q1280.684,81.1684 1280.7726,81.1684 Q1280.9156,81.1684 1281.0246,81.2842 Q1281.1404,81.3932 1281.1404,81.5431 Q1281.1404,81.693 1280.9906,81.8701 Q1280.7726,82.1221 1280.4252,82.2652 Q1279.9551,82.4627 1279.3897,82.4627 Q1278.7289,82.4627 1278.2044,82.1903 Q1277.7752,81.9723 1277.4755,81.509 Q1277.1757,81.039 1277.1757,80.4804 L1277.1757,79.9763 Q1277.1757,79.3972 1277.4414,78.8999 Q1277.7139,78.3958 1278.1908,78.1302 Q1278.6676,77.8577 1279.2058,77.8577 Q1279.526,77.8577 1279.8053,77.9326 Q1280.0914,78.0007 1280.3298,78.1574 Z " fill="#000000"/><text fill="#000000" font-family="'Consolas'" font-size="6.1037" font-weight="bold" lengthAdjust="spacing" textLength="16.7793" x="1288.0617" y="81.9586">Lapin</text><line style="stroke:#181818;stroke-width:0.218;" x1="1208.3238" x2="1370.4094" y1="86.9316" y2="86.9316"/><line style="stroke:#181818;stroke-width:0.218;" x1="1208.3238" x2="1370.4094" y1="90.4194" y2="90.4194"/><text fill="#000000" font-family="'Consolas'" font-size="6.1037" lengthAdjust="spacing" textLength="157.7258" x="1210.5037" y="97.7396">+saveToDB(Connection conn, int idPartie) : void</text></g><!--class Monstre--><g class="entity" data-entity="Monstre" data-source-line="138" data-uid="ent0024" id="entity_Monstre"><rect fill="#F1F1F1" height="56.6615" rx="1.09" ry="1.09" style="stroke:#181818;stroke-width:0.218;" width="364.3097" x="1088.8648" y="262.8502"/><ellipse cx="1257.4212" cy="269.826" fill="#ADD1B2" rx="4.7958" ry="4.7958" style="stroke:#181818;stroke-width:0.436;"/><path d="M1258.6269,268.0275 Q1258.695,267.9322 1258.7768,267.8845 Q1258.8585,267.8368 1258.9539,267.8368 Q1259.1174,267.8368 1259.2196,267.9526 Q1259.3218,268.0616 1259.3218,268.3273 L1259.3218,268.9608 Q1259.3218,269.2265 1259.2196,269.3423 Q1259.1174,269.4581 1258.9539,269.4581 Q1258.804,269.4581 1258.7155,269.3695 Q1258.6269,269.2878 1258.5792,269.063 Q1258.5588,268.9063 1258.4771,268.8246 Q1258.334,268.6611 1258.0683,268.5657 Q1257.8026,268.4703 1257.5302,268.4703 Q1257.1964,268.4703 1256.9171,268.6134 Q1256.6446,268.7564 1256.4266,269.0834 Q1256.2154,269.4104 1256.2154,269.86 L1256.2154,270.3369 Q1256.2154,270.875 1256.6037,271.2361 Q1256.992,271.5903 1257.6868,271.5903 Q1258.0956,271.5903 1258.3817,271.4813 Q1258.552,271.4132 1258.7359,271.2225 Q1258.8517,271.1067 1258.913,271.0726 Q1258.9812,271.0385 1259.0697,271.0385 Q1259.2128,271.0385 1259.3218,271.1543 Q1259.4376,271.2633 1259.4376,271.4132 Q1259.4376,271.5631 1259.2877,271.7402 Q1259.0697,271.9922 1258.7223,272.1353 Q1258.2523,272.3329 1257.6868,272.3329 Q1257.0261,272.3329 1256.5015,272.0604 Q1256.0723,271.8424 1255.7726,271.3791 Q1255.4729,270.9091 1255.4729,270.3505 L1255.4729,269.8464 Q1255.4729,269.2674 1255.7385,268.7701 Q1256.011,268.266 1256.4879,268.0003 Q1256.9647,267.7278 1257.5029,267.7278 Q1257.8231,267.7278 1258.1024,267.8027 Q1258.3885,267.8709 1258.6269,268.0275 Z " fill="#000000"/><text fill="#000000" font-family="'Consolas'" font-size="6.1037" font-weight="bold" lengthAdjust="spacing" textLength="23.4911" x="1266.3588" y="271.8287">Monstre</text><line style="stroke:#181818;stroke-width:0.218;" x1="1089.3008" x2="1452.7385" y1="276.8017" y2="276.8017"/><text fill="#000000" font-family="'Consolas'" font-size="6.1037" lengthAdjust="spacing" textLength="87.2526" x="1091.4807" y="284.1218">-dangerosite : Dangerosite</text><line style="stroke:#181818;stroke-width:0.218;" x1="1089.3008" x2="1452.7385" y1="287.4364" y2="287.4364"/><text fill="#000000" font-family="'Consolas'" font-size="6.1037" lengthAdjust="spacing" textLength="107.3878" x="1091.4807" y="294.7565">+getDangerosite( ) : Dangerosite</text><text fill="#000000" font-family="'Consolas'" font-size="6.1037" lengthAdjust="spacing" textLength="157.7258" x="1091.4807" y="301.9034">+setDangerosite(Dangerosite dangerosite) : void</text><text fill="#000000" font-family="'Consolas'" font-size="6.1037" lengthAdjust="spacing" textLength="359.0779" x="1091.4807" y="309.0503">+analyzer(Set&lt;Point2D&gt; positionWorld, List&lt;Creature&gt; creatures, List&lt;Objet&gt; objets, int tailleMonde) : void</text><text fill="#000000" font-family="'Consolas'" font-size="6.1037" lengthAdjust="spacing" textLength="60.4056" x="1091.4807" y="316.1971">+affiche( ) : void</text></g><!--class Loup--><g class="entity" data-entity="Loup" data-source-line="139" data-uid="ent0026" id="entity_Loup"><rect fill="#F1F1F1" height="49.5146" rx="1.09" ry="1.09" style="stroke:#181818;stroke-width:0.218;" width="280.413" x="1386.4224" y="62.0806"/><ellipse cx="1518.0642" cy="69.0563" fill="#ADD1B2" rx="4.7958" ry="4.7958" style="stroke:#181818;stroke-width:0.436;"/><path d="M1519.27,67.2579 Q1519.3381,67.1625 1519.4199,67.1148 Q1519.5016,67.0671 1519.597,67.0671 Q1519.7605,67.0671 1519.8627,67.1829 Q1519.9649,67.2919 1519.9649,67.5576 L1519.9649,68.1911 Q1519.9649,68.4568 1519.8627,68.5726 Q1519.7605,68.6884 1519.597,68.6884 Q1519.4471,68.6884 1519.3586,68.5999 Q1519.27,68.5181 1519.2223,68.2933 Q1519.2019,68.1366 1519.1201,68.0549 Q1518.9771,67.8914 1518.7114,67.796 Q1518.4457,67.7007 1518.1732,67.7007 Q1517.8394,67.7007 1517.5601,67.8437 Q1517.2877,67.9868 1517.0697,68.3138 Q1516.8585,68.6408 1516.8585,69.0904 L1516.8585,69.5672 Q1516.8585,70.1054 1517.2468,70.4664 Q1517.6351,70.8207 1518.3299,70.8207 Q1518.7387,70.8207 1519.0248,70.7117 Q1519.1951,70.6435 1519.379,70.4528 Q1519.4948,70.337 1519.5561,70.3029 Q1519.6242,70.2689 1519.7128,70.2689 Q1519.8559,70.2689 1519.9649,70.3847 Q1520.0807,70.4937 1520.0807,70.6435 Q1520.0807,70.7934 1519.9308,70.9705 Q1519.7128,71.2226 1519.3654,71.3656 Q1518.8953,71.5632 1518.3299,71.5632 Q1517.6691,71.5632 1517.1446,71.2907 Q1516.7154,71.0727 1516.4157,70.6095 Q1516.116,70.1394 1516.116,69.5808 L1516.116,69.0767 Q1516.116,68.4977 1516.3816,68.0004 Q1516.6541,67.4963 1517.131,67.2306 Q1517.6078,66.9581 1518.146,66.9581 Q1518.4662,66.9581 1518.7455,67.0331 Q1519.0316,67.1012 1519.27,67.2579 Z " fill="#000000"/><text fill="#000000" font-family="'Consolas'" font-size="6.1037" font-weight="bold" lengthAdjust="spacing" textLength="13.4235" x="1527.0019" y="71.0591">Loup</text><line style="stroke:#181818;stroke-width:0.218;" x1="1386.8584" x2="1666.3994" y1="76.032" y2="76.032"/><line style="stroke:#181818;stroke-width:0.218;" x1="1386.8584" x2="1666.3994" y1="79.5199" y2="79.5199"/><text fill="#000000" font-family="'Consolas'" font-size="6.1037" lengthAdjust="spacing" textLength="275.1812" x="1389.0383" y="86.84">+combattre(Creature c, Set&lt;Point2D&gt; positionWorld,List&lt;Creature&gt; creatures) : void</text><text fill="#000000" font-family="'Consolas'" font-size="6.1037" lengthAdjust="spacing" textLength="73.8291" x="1389.0383" y="93.9869">+jeuDeAtt( ) : boolean</text><text fill="#000000" font-family="'Consolas'" font-size="6.1037" lengthAdjust="spacing" textLength="100.6761" x="1389.0383" y="101.1337">+jeuDeDe(Creature c) : boolean</text><text fill="#000000" font-family="'Consolas'" font-size="6.1037" lengthAdjust="spacing" textLength="157.7258" x="1389.0383" y="108.2806">+saveToDB(Connection conn, int idPartie) : void</text></g><!--class Nourriture--><g class="entity" data-entity="Nourriture" data-source-line="158" data-uid="ent0031" id="entity_Nourriture"><rect fill="#F1F1F1" height="135.277" rx="1.09" ry="1.09" style="stroke:#181818;stroke-width:0.218;" width="183.0928" x="2038.8693" y="19.3544"/><ellipse cx="2111.7835" cy="26.3301" fill="#ADD1B2" rx="4.7958" ry="4.7958" style="stroke:#181818;stroke-width:0.436;"/><path d="M2112.9892,24.5316 Q2113.0573,24.4363 2113.1391,24.3886 Q2113.2208,24.3409 2113.3162,24.3409 Q2113.4797,24.3409 2113.5819,24.4567 Q2113.6841,24.5657 2113.6841,24.8314 L2113.6841,25.4649 Q2113.6841,25.7306 2113.5819,25.8464 Q2113.4797,25.9622 2113.3162,25.9622 Q2113.1663,25.9622 2113.0778,25.8737 Q2112.9892,25.7919 2112.9415,25.5671 Q2112.9211,25.4104 2112.8393,25.3287 Q2112.6963,25.1652 2112.4306,25.0698 Q2112.1649,24.9744 2111.8924,24.9744 Q2111.5586,24.9744 2111.2793,25.1175 Q2111.0069,25.2606 2110.7889,25.5875 Q2110.5777,25.9145 2110.5777,26.3641 L2110.5777,26.841 Q2110.5777,27.3792 2110.966,27.7402 Q2111.3543,28.0944 2112.0491,28.0944 Q2112.4579,28.0944 2112.744,27.9854 Q2112.9143,27.9173 2113.0982,27.7266 Q2113.214,27.6108 2113.2753,27.5767 Q2113.3434,27.5426 2113.432,27.5426 Q2113.5751,27.5426 2113.6841,27.6585 Q2113.7999,27.7674 2113.7999,27.9173 Q2113.7999,28.0672 2113.65,28.2443 Q2113.432,28.4964 2113.0846,28.6394 Q2112.6145,28.837 2112.0491,28.837 Q2111.3883,28.837 2110.8638,28.5645 Q2110.4346,28.3465 2110.1349,27.8833 Q2109.8352,27.4132 2109.8352,26.8546 L2109.8352,26.3505 Q2109.8352,25.7715 2110.1008,25.2742 Q2110.3733,24.7701 2110.8502,24.5044 Q2111.327,24.2319 2111.8652,24.2319 Q2112.1854,24.2319 2112.4647,24.3068 Q2112.7508,24.375 2112.9892,24.5316 Z " fill="#000000"/><text fill="#000000" font-family="'Consolas'" font-size="6.1037" font-weight="bold" lengthAdjust="spacing" textLength="33.5587" x="2120.7211" y="28.3329">Nourriture</text><line style="stroke:#181818;stroke-width:0.218;" x1="2039.3053" x2="2221.5261" y1="33.3058" y2="33.3058"/><text fill="#000000" font-family="'Consolas'" font-size="6.1037" lengthAdjust="spacing" textLength="50.338" x="2041.4852" y="40.6259">-coolDown : int</text><text fill="#000000" font-family="'Consolas'" font-size="6.1037" lengthAdjust="spacing" textLength="97.3202" x="2041.4852" y="47.7728">-typeNourriture : Nourritures</text><line style="stroke:#181818;stroke-width:0.218;" x1="2039.3053" x2="2221.5261" y1="51.0874" y2="51.0874"/><text fill="#000000" font-family="'Consolas'" font-size="6.1037" lengthAdjust="spacing" textLength="164.4376" x="2041.4852" y="58.4075">-genererCoolDownAleatoire(Nourritures type) : int</text><text fill="#000000" font-family="'Consolas'" font-size="6.1037" lengthAdjust="spacing" textLength="70.4732" x="2041.4852" y="65.5544">+getCoolDown( ) : int</text><text fill="#000000" font-family="'Consolas'" font-size="6.1037" lengthAdjust="spacing" textLength="110.7437" x="2041.4852" y="72.7013">+setCoolDown(int coolDown) : void</text><text fill="#000000" font-family="'Consolas'" font-size="6.1037" lengthAdjust="spacing" textLength="117.4554" x="2041.4852" y="79.8481">+getTypeNourriture( ) : Nourritures</text><text fill="#000000" font-family="'Consolas'" font-size="6.1037" lengthAdjust="spacing" textLength="177.861" x="2041.4852" y="86.995">+setTypeNourriture(Nourritures typeNourriture) : void</text><text fill="#000000" font-family="'Consolas'" font-size="6.1037" lengthAdjust="spacing" textLength="63.7615" x="2041.4852" y="94.1419">+getNom( ) : String</text><text fill="#000000" font-family="'Consolas'" font-size="6.1037" lengthAdjust="spacing" textLength="87.2526" x="2041.4852" y="101.2887">+setNom(String nom) : void</text><text fill="#000000" font-family="'Consolas'" font-size="6.1037" lengthAdjust="spacing" textLength="67.1174" x="2041.4852" y="108.4356">+getPos( ) : Point2D</text><text fill="#000000" font-family="'Consolas'" font-size="6.1037" lengthAdjust="spacing" textLength="90.6084" x="2041.4852" y="115.5825">+setPos(Point2D pos) : void</text><text fill="#000000" font-family="'Consolas'" font-size="6.1037" lengthAdjust="spacing" textLength="120.8113" x="2041.4852" y="122.7293">+appliquerEffet(Personnage p) : void</text><text fill="#000000" font-family="'Consolas'" font-size="6.1037" lengthAdjust="spacing" textLength="114.0995" x="2041.4852" y="129.8762">+retirerEffet(Personnage p) : void</text><text fill="#000000" font-family="'Consolas'" font-size="6.1037" lengthAdjust="spacing" textLength="90.6084" x="2041.4852" y="137.0231">+decrementerDuree( ) : void</text><text fill="#000000" font-family="'Consolas'" font-size="6.1037" lengthAdjust="spacing" textLength="73.8291" x="2041.4852" y="144.1699">+estActif( ) : boolean</text><text fill="#000000" font-family="'Consolas'" font-size="6.1037" lengthAdjust="spacing" textLength="157.7258" x="2041.4852" y="151.3168">+saveToDB(Connection conn, int idPartie) : void</text></g><!--class ObjetUtilisable--><g class="entity" data-entity="ObjetUtilisable" data-source-line="178" data-uid="ent0033" id="entity_ObjetUtilisable"><rect fill="#F1F1F1" height="20.9271" rx="1.09" ry="1.09" style="stroke:#181818;stroke-width:0.218;" width="64.2894" x="2116.2561" y="280.7255"/><ellipse cx="2122.7958" cy="287.7012" fill="#B4A7E5" rx="4.7958" ry="4.7958" style="stroke:#181818;stroke-width:0.436;"/><path d="M2123.2114,286.2366 L2123.2114,289.1386 L2123.9607,289.1386 Q2124.2264,289.1386 2124.3422,289.2408 Q2124.458,289.343 2124.458,289.5133 Q2124.458,289.6768 2124.3422,289.7789 Q2124.2264,289.8811 2123.9607,289.8811 L2121.7195,289.8811 Q2121.4538,289.8811 2121.338,289.7789 Q2121.2222,289.6768 2121.2222,289.5065 Q2121.2222,289.343 2121.338,289.2408 Q2121.4538,289.1386 2121.7195,289.1386 L2122.4688,289.1386 L2122.4688,286.2366 L2121.7195,286.2366 Q2121.4538,286.2366 2121.338,286.1344 Q2121.2222,286.0322 2121.2222,285.8619 Q2121.2222,285.6984 2121.338,285.5962 Q2121.4538,285.4941 2121.7195,285.4941 L2123.9607,285.4941 Q2124.2264,285.4941 2124.3422,285.5962 Q2124.458,285.6984 2124.458,285.8619 Q2124.458,286.0322 2124.3422,286.1344 Q2124.2264,286.2366 2123.9607,286.2366 L2123.2114,286.2366 Z " fill="#000000"/><text fill="#000000" font-family="'Consolas'" font-size="6.1037" font-style="italic" font-weight="bold" lengthAdjust="spacing" textLength="50.338" x="2128.8996" y="289.704">ObjetUtilisable</text><line style="stroke:#181818;stroke-width:0.218;" x1="2116.6921" x2="2180.1096" y1="294.6769" y2="294.6769"/><line style="stroke:#181818;stroke-width:0.218;" x1="2116.6921" x2="2180.1096" y1="298.1648" y2="298.1648"/></g><!--class NuageToxique--><g class="entity" data-entity="NuageToxique" data-source-line="179" data-uid="ent0035" id="entity_NuageToxique"><rect fill="#F1F1F1" height="135.277" rx="1.09" ry="1.09" style="stroke:#181818;stroke-width:0.218;" width="364.3097" x="2237.2411" y="19.3544"/><ellipse cx="2397.4078" cy="26.3301" fill="#ADD1B2" rx="4.7958" ry="4.7958" style="stroke:#181818;stroke-width:0.436;"/><path d="M2398.6136,24.5316 Q2398.6817,24.4363 2398.7634,24.3886 Q2398.8452,24.3409 2398.9405,24.3409 Q2399.104,24.3409 2399.2062,24.4567 Q2399.3084,24.5657 2399.3084,24.8314 L2399.3084,25.4649 Q2399.3084,25.7306 2399.2062,25.8464 Q2399.104,25.9622 2398.9405,25.9622 Q2398.7907,25.9622 2398.7021,25.8737 Q2398.6136,25.7919 2398.5659,25.5671 Q2398.5454,25.4104 2398.4637,25.3287 Q2398.3206,25.1652 2398.055,25.0698 Q2397.7893,24.9744 2397.5168,24.9744 Q2397.183,24.9744 2396.9037,25.1175 Q2396.6312,25.2606 2396.4132,25.5875 Q2396.202,25.9145 2396.202,26.3641 L2396.202,26.841 Q2396.202,27.3792 2396.5903,27.7402 Q2396.9786,28.0944 2397.6735,28.0944 Q2398.0822,28.0944 2398.3683,27.9854 Q2398.5386,27.9173 2398.7225,27.7266 Q2398.8384,27.6108 2398.8997,27.5767 Q2398.9678,27.5426 2399.0563,27.5426 Q2399.1994,27.5426 2399.3084,27.6585 Q2399.4242,27.7674 2399.4242,27.9173 Q2399.4242,28.0672 2399.2743,28.2443 Q2399.0563,28.4964 2398.7089,28.6394 Q2398.2389,28.837 2397.6735,28.837 Q2397.0127,28.837 2396.4881,28.5645 Q2396.059,28.3465 2395.7592,27.8833 Q2395.4595,27.4132 2395.4595,26.8546 L2395.4595,26.3505 Q2395.4595,25.7715 2395.7252,25.2742 Q2395.9977,24.7701 2396.4745,24.5044 Q2396.9514,24.2319 2397.4895,24.2319 Q2397.8097,24.2319 2398.089,24.3068 Q2398.3751,24.375 2398.6136,24.5316 Z " fill="#000000"/><text fill="#000000" font-family="'Consolas'" font-size="6.1037" font-weight="bold" lengthAdjust="spacing" textLength="40.2704" x="2406.3454" y="28.3329">NuageToxique</text><line style="stroke:#181818;stroke-width:0.218;" x1="2237.6771" x2="2601.1148" y1="33.3058" y2="33.3058"/><text fill="#000000" font-family="'Consolas'" font-size="6.1037" lengthAdjust="spacing" textLength="63.7615" x="2239.857" y="40.6259">-degatParTour : int</text><text fill="#000000" font-family="'Consolas'" font-size="6.1037" lengthAdjust="spacing" textLength="43.6263" x="2239.857" y="47.7728">-taille : int</text><text fill="#000000" font-family="'Consolas'" font-size="6.1037" lengthAdjust="spacing" textLength="40.2704" x="2239.857" y="54.9197">-duree : int</text><line style="stroke:#181818;stroke-width:0.218;" x1="2237.6771" x2="2601.1148" y1="58.2342" y2="58.2342"/><text fill="#000000" font-family="'Consolas'" font-size="6.1037" lengthAdjust="spacing" textLength="83.8967" x="2239.857" y="65.5544">+getDegatParTour( ) : int</text><text fill="#000000" font-family="'Consolas'" font-size="6.1037" lengthAdjust="spacing" textLength="137.5906" x="2239.857" y="72.7013">+setDegatParTour(int degatParTour) : void</text><text fill="#000000" font-family="'Consolas'" font-size="6.1037" lengthAdjust="spacing" textLength="63.7615" x="2239.857" y="79.8481">+getTaille( ) : int</text><text fill="#000000" font-family="'Consolas'" font-size="6.1037" lengthAdjust="spacing" textLength="97.3202" x="2239.857" y="86.995">+setTaille(int taille) : void</text><text fill="#000000" font-family="'Consolas'" font-size="6.1037" lengthAdjust="spacing" textLength="60.4056" x="2239.857" y="94.1419">+getDuree( ) : int</text><text fill="#000000" font-family="'Consolas'" font-size="6.1037" lengthAdjust="spacing" textLength="90.6084" x="2239.857" y="101.2887">+setDuree(int duree) : void</text><text fill="#000000" font-family="'Consolas'" font-size="6.1037" lengthAdjust="spacing" textLength="90.6084" x="2239.857" y="108.4356">+decrementerDuree( ) : void</text><text fill="#000000" font-family="'Consolas'" font-size="6.1037" lengthAdjust="spacing" textLength="73.8291" x="2239.857" y="115.5825">+estActif( ) : boolean</text><text fill="#000000" font-family="'Consolas'" font-size="6.1037" lengthAdjust="spacing" textLength="107.3878" x="2239.857" y="122.7293">+deplacer(int dx, int dy) : void</text><text fill="#000000" font-family="'Consolas'" font-size="6.1037" lengthAdjust="spacing" textLength="258.4019" x="2239.857" y="129.8762">+deplacementAleatoire(Set&lt;Point2D&gt; positionsOccupees, int tailleMonde) : void</text><text fill="#000000" font-family="'Consolas'" font-size="6.1037" lengthAdjust="spacing" textLength="278.5371" x="2239.857" y="137.0231">+combattre(Creature c, Set&lt;Point2D&gt; positionWorld, List&lt;Creature&gt; creatures) : void</text><text fill="#000000" font-family="'Consolas'" font-size="6.1037" lengthAdjust="spacing" textLength="359.0779" x="2239.857" y="144.1699">+analyzer(Set&lt;Point2D&gt; positionWorld, List&lt;Creature&gt; creatures, List&lt;Objet&gt; objets, int tailleMonde) : void</text><text fill="#000000" font-family="'Consolas'" font-size="6.1037" lengthAdjust="spacing" textLength="157.7258" x="2239.857" y="151.3168">+saveToDB(Connection conn, int idPartie) : void</text></g><!--class Paysan--><g class="entity" data-entity="Paysan" data-source-line="215" data-uid="ent0041" id="entity_Paysan"><rect fill="#F1F1F1" height="28.074" rx="1.09" ry="1.09" style="stroke:#181818;stroke-width:0.218;" width="183.0928" x="713.4844" y="72.9801"/><ellipse cx="793.1102" cy="79.9558" fill="#ADD1B2" rx="4.7958" ry="4.7958" style="stroke:#181818;stroke-width:0.436;"/><path d="M794.316,78.1574 Q794.3841,78.062 794.4659,78.0144 Q794.5476,77.9667 794.643,77.9667 Q794.8065,77.9667 794.9087,78.0825 Q795.0108,78.1915 795.0108,78.4572 L795.0108,79.0907 Q795.0108,79.3564 794.9087,79.4722 Q794.8065,79.588 794.643,79.588 Q794.4931,79.588 794.4046,79.4994 Q794.316,79.4177 794.2683,79.1929 Q794.2479,79.0362 794.1661,78.9544 Q794.0231,78.791 793.7574,78.6956 Q793.4917,78.6002 793.2192,78.6002 Q792.8854,78.6002 792.6061,78.7433 Q792.3336,78.8863 792.1157,79.2133 Q791.9045,79.5403 791.9045,79.9899 L791.9045,80.4668 Q791.9045,81.0049 792.2928,81.366 Q792.6811,81.7202 793.3759,81.7202 Q793.7846,81.7202 794.0708,81.6112 Q794.2411,81.5431 794.425,81.3523 Q794.5408,81.2365 794.6021,81.2025 Q794.6702,81.1684 794.7588,81.1684 Q794.9019,81.1684 795.0108,81.2842 Q795.1267,81.3932 795.1267,81.5431 Q795.1267,81.693 794.9768,81.8701 Q794.7588,82.1221 794.4114,82.2652 Q793.9413,82.4627 793.3759,82.4627 Q792.7151,82.4627 792.1906,82.1903 Q791.7614,81.9723 791.4617,81.509 Q791.1619,81.039 791.1619,80.4804 L791.1619,79.9763 Q791.1619,79.3972 791.4276,78.8999 Q791.7001,78.3958 792.177,78.1302 Q792.6538,77.8577 793.192,77.8577 Q793.5122,77.8577 793.7915,77.9326 Q794.0776,78.0007 794.316,78.1574 Z " fill="#000000"/><text fill="#000000" font-family="'Consolas'" font-size="6.1037" font-weight="bold" lengthAdjust="spacing" textLength="20.1352" x="802.0479" y="81.9586">Paysan</text><line style="stroke:#181818;stroke-width:0.218;" x1="713.9203" x2="896.1412" y1="86.9316" y2="86.9316"/><line style="stroke:#181818;stroke-width:0.218;" x1="713.9203" x2="896.1412" y1="90.4194" y2="90.4194"/><text fill="#000000" font-family="'Consolas'" font-size="6.1037" lengthAdjust="spacing" textLength="177.861" x="716.1003" y="97.7396">+savePaysan(Connection conn, int idPersonnage) : void</text></g><!--class Point2D--><g class="entity" data-entity="Point2D" data-source-line="235" data-uid="ent0045" id="entity_Point2D"><rect fill="#F1F1F1" height="106.6895" rx="1.09" ry="1.09" style="stroke:#181818;stroke-width:0.218;" width="115.9754" x="282.7343" y="33.5238"/><ellipse cx="327.1235" cy="40.4995" fill="#ADD1B2" rx="4.7958" ry="4.7958" style="stroke:#181818;stroke-width:0.436;"/><path d="M328.3293,38.7011 Q328.3974,38.6057 328.4791,38.558 Q328.5609,38.5103 328.6563,38.5103 Q328.8198,38.5103 328.9219,38.6261 Q329.0241,38.7351 329.0241,39.0008 L329.0241,39.6343 Q329.0241,39.9 328.9219,40.0158 Q328.8198,40.1316 328.6563,40.1316 Q328.5064,40.1316 328.4178,40.0431 Q328.3293,39.9613 328.2816,39.7365 Q328.2612,39.5798 328.1794,39.4981 Q328.0364,39.3346 327.7707,39.2392 Q327.505,39.1439 327.2325,39.1439 Q326.8987,39.1439 326.6194,39.2869 Q326.3469,39.43 326.1289,39.757 Q325.9178,40.0839 325.9178,40.5335 L325.9178,41.0104 Q325.9178,41.5486 326.306,41.9096 Q326.6943,42.2638 327.3892,42.2638 Q327.7979,42.2638 328.084,42.1549 Q328.2543,42.0867 328.4383,41.896 Q328.5541,41.7802 328.6154,41.7461 Q328.6835,41.7121 328.7721,41.7121 Q328.9151,41.7121 329.0241,41.8279 Q329.1399,41.9369 329.1399,42.0867 Q329.1399,42.2366 328.9901,42.4137 Q328.7721,42.6658 328.4246,42.8088 Q327.9546,43.0064 327.3892,43.0064 Q326.7284,43.0064 326.2039,42.7339 Q325.7747,42.5159 325.475,42.0527 Q325.1752,41.5826 325.1752,41.024 L325.1752,40.5199 Q325.1752,39.9409 325.4409,39.4436 Q325.7134,38.9395 326.1902,38.6738 Q326.6671,38.4013 327.2053,38.4013 Q327.5254,38.4013 327.8047,38.4763 Q328.0908,38.5444 328.3293,38.7011 Z " fill="#000000"/><text fill="#000000" font-family="'Consolas'" font-size="6.1037" font-weight="bold" lengthAdjust="spacing" textLength="23.4911" x="336.0611" y="42.5023">Point2D</text><line style="stroke:#181818;stroke-width:0.218;" x1="283.1702" x2="398.2737" y1="47.4752" y2="47.4752"/><text fill="#000000" font-family="'Consolas'" font-size="6.1037" lengthAdjust="spacing" textLength="26.8469" x="285.3501" y="54.7953">-x : int</text><text fill="#000000" font-family="'Consolas'" font-size="6.1037" lengthAdjust="spacing" textLength="26.8469" x="285.3501" y="61.9422">-y : int</text><line style="stroke:#181818;stroke-width:0.218;" x1="283.1702" x2="398.2737" y1="65.2568" y2="65.2568"/><text fill="#000000" font-family="'Consolas'" font-size="6.1037" lengthAdjust="spacing" textLength="46.9822" x="285.3501" y="72.5769">+getX( ) : int</text><text fill="#000000" font-family="'Consolas'" font-size="6.1037" lengthAdjust="spacing" textLength="46.9822" x="285.3501" y="79.7238">+getY( ) : int</text><text fill="#000000" font-family="'Consolas'" font-size="6.1037" lengthAdjust="spacing" textLength="63.7615" x="285.3501" y="86.8707">+setX(int x) : void</text><text fill="#000000" font-family="'Consolas'" font-size="6.1037" lengthAdjust="spacing" textLength="63.7615" x="285.3501" y="94.0175">+setY(int y) : void</text><text fill="#000000" font-family="'Consolas'" font-size="6.1037" lengthAdjust="spacing" textLength="110.7437" x="285.3501" y="101.1644">+setPosition(int x, int y) : void</text><text fill="#000000" font-family="'Consolas'" font-size="6.1037" lengthAdjust="spacing" textLength="110.7437" x="285.3501" y="108.3113">+translate(int dx, int dy) : void</text><text fill="#000000" font-family="'Consolas'" font-size="6.1037" lengthAdjust="spacing" textLength="60.4056" x="285.3501" y="115.4581">+affiche( ) : void</text><text fill="#000000" font-family="'Consolas'" font-size="6.1037" lengthAdjust="spacing" textLength="93.9643" x="285.3501" y="122.605">+distance(Point2D p) : float</text><text fill="#000000" font-family="'Consolas'" font-size="6.1037" lengthAdjust="spacing" textLength="97.3202" x="285.3501" y="129.7519">+equals(Object obj) : boolean</text><text fill="#000000" font-family="'Consolas'" font-size="6.1037" lengthAdjust="spacing" textLength="60.4056" x="285.3501" y="136.8987">+hashCode( ) : int</text></g><!--class PotionSoin--><g class="entity" data-entity="PotionSoin" data-source-line="250" data-uid="ent0046" id="entity_PotionSoin"><rect fill="#F1F1F1" height="49.5146" rx="1.09" ry="1.09" style="stroke:#181818;stroke-width:0.218;" width="162.9576" x="1682.2361" y="62.0806"/><ellipse cx="1745.0827" cy="69.0563" fill="#ADD1B2" rx="4.7958" ry="4.7958" style="stroke:#181818;stroke-width:0.436;"/><path d="M1746.2884,67.2579 Q1746.3565,67.1625 1746.4383,67.1148 Q1746.52,67.0671 1746.6154,67.0671 Q1746.7789,67.0671 1746.8811,67.1829 Q1746.9833,67.2919 1746.9833,67.5576 L1746.9833,68.1911 Q1746.9833,68.4568 1746.8811,68.5726 Q1746.7789,68.6884 1746.6154,68.6884 Q1746.4655,68.6884 1746.377,68.5999 Q1746.2884,68.5181 1746.2407,68.2933 Q1746.2203,68.1366 1746.1386,68.0549 Q1745.9955,67.8914 1745.7298,67.796 Q1745.4641,67.7007 1745.1917,67.7007 Q1744.8579,67.7007 1744.5786,67.8437 Q1744.3061,67.9868 1744.0881,68.3138 Q1743.8769,68.6408 1743.8769,69.0904 L1743.8769,69.5672 Q1743.8769,70.1054 1744.2652,70.4664 Q1744.6535,70.8207 1745.3483,70.8207 Q1745.7571,70.8207 1746.0432,70.7117 Q1746.2135,70.6435 1746.3974,70.4528 Q1746.5132,70.337 1746.5745,70.3029 Q1746.6427,70.2689 1746.7312,70.2689 Q1746.8743,70.2689 1746.9833,70.3847 Q1747.0991,70.4937 1747.0991,70.6435 Q1747.0991,70.7934 1746.9492,70.9705 Q1746.7312,71.2226 1746.3838,71.3656 Q1745.9137,71.5632 1745.3483,71.5632 Q1744.6876,71.5632 1744.163,71.2907 Q1743.7338,71.0727 1743.4341,70.6095 Q1743.1344,70.1394 1743.1344,69.5808 L1743.1344,69.0767 Q1743.1344,68.4977 1743.4,68.0004 Q1743.6725,67.4963 1744.1494,67.2306 Q1744.6262,66.9581 1745.1644,66.9581 Q1745.4846,66.9581 1745.7639,67.0331 Q1746.05,67.1012 1746.2884,67.2579 Z " fill="#000000"/><text fill="#000000" font-family="'Consolas'" font-size="6.1037" font-weight="bold" lengthAdjust="spacing" textLength="33.5587" x="1754.0203" y="71.0591">PotionSoin</text><line style="stroke:#181818;stroke-width:0.218;" x1="1682.6721" x2="1844.7577" y1="76.032" y2="76.032"/><text fill="#000000" font-family="'Consolas'" font-size="6.1037" lengthAdjust="spacing" textLength="36.9146" x="1684.852" y="83.3522">-pVie : int</text><line style="stroke:#181818;stroke-width:0.218;" x1="1682.6721" x2="1844.7577" y1="86.6667" y2="86.6667"/><text fill="#000000" font-family="'Consolas'" font-size="6.1037" lengthAdjust="spacing" textLength="57.0498" x="1684.852" y="93.9869">+getpVie( ) : int</text><text fill="#000000" font-family="'Consolas'" font-size="6.1037" lengthAdjust="spacing" textLength="83.8967" x="1684.852" y="101.1337">+setpVie(int pVie) : void</text><text fill="#000000" font-family="'Consolas'" font-size="6.1037" lengthAdjust="spacing" textLength="157.7258" x="1684.852" y="108.2806">+saveToDB(Connection conn, int idPartie) : void</text></g><!--class TestWoE--><g class="entity" data-entity="TestWoE" data-source-line="258" data-uid="ent0048" id="entity_TestWoE"><rect fill="#F1F1F1" height="20.9271" rx="1.09" ry="1.09" style="stroke:#181818;stroke-width:0.218;" width="37.4425" x="37.2765" y="280.7255"/><ellipse cx="43.8162" cy="287.7012" fill="#ADD1B2" rx="4.7958" ry="4.7958" style="stroke:#181818;stroke-width:0.436;"/><path d="M45.0219,285.9028 Q45.0901,285.8074 45.1718,285.7597 Q45.2536,285.712 45.3489,285.712 Q45.5124,285.712 45.6146,285.8279 Q45.7168,285.9368 45.7168,286.2025 L45.7168,286.8361 Q45.7168,287.1017 45.6146,287.2175 Q45.5124,287.3334 45.3489,287.3334 Q45.1991,287.3334 45.1105,287.2448 Q45.0219,287.163 44.9743,286.9382 Q44.9538,286.7816 44.8721,286.6998 Q44.729,286.5363 44.4633,286.441 Q44.1977,286.3456 43.9252,286.3456 Q43.5914,286.3456 43.3121,286.4886 Q43.0396,286.6317 42.8216,286.9587 Q42.6104,287.2857 42.6104,287.7353 L42.6104,288.2121 Q42.6104,288.7503 42.9987,289.1113 Q43.387,289.4656 44.0819,289.4656 Q44.4906,289.4656 44.7767,289.3566 Q44.947,289.2885 45.1309,289.0977 Q45.2467,288.9819 45.3081,288.9478 Q45.3762,288.9138 45.4647,288.9138 Q45.6078,288.9138 45.7168,289.0296 Q45.8326,289.1386 45.8326,289.2885 Q45.8326,289.4383 45.6827,289.6154 Q45.4647,289.8675 45.1173,290.0106 Q44.6473,290.2081 44.0819,290.2081 Q43.4211,290.2081 42.8965,289.9356 Q42.4674,289.7176 42.1676,289.2544 Q41.8679,288.7844 41.8679,288.2258 L41.8679,287.7217 Q41.8679,287.1426 42.1336,286.6453 Q42.4061,286.1412 42.8829,285.8755 Q43.3598,285.6031 43.8979,285.6031 Q44.2181,285.6031 44.4974,285.678 Q44.7835,285.7461 45.0219,285.9028 Z " fill="#000000"/><text fill="#000000" font-family="'Consolas'" font-size="6.1037" font-weight="bold" lengthAdjust="spacing" textLength="23.4911" x="49.9199" y="289.704">TestWoE</text><line style="stroke:#181818;stroke-width:0.218;" x1="37.7124" x2="74.283" y1="294.6769" y2="294.6769"/><line style="stroke:#181818;stroke-width:0.218;" x1="37.7124" x2="74.283" y1="298.1648" y2="298.1648"/></g><!--class World--><g class="entity" data-entity="World" data-source-line="261" data-uid="ent0049" id="entity_World"><rect fill="#F1F1F1" height="221.0394" rx="1.09" ry="1.09" style="stroke:#181818;stroke-width:0.218;" width="357.598" x="90.0303" y="180.6677"/><ellipse cx="258.5866" cy="187.6434" fill="#ADD1B2" rx="4.7958" ry="4.7958" style="stroke:#181818;stroke-width:0.436;"/><path d="M259.7924,185.8449 Q259.8605,185.7496 259.9423,185.7019 Q260.024,185.6542 260.1194,185.6542 Q260.2829,185.6542 260.3851,185.77 Q260.4873,185.879 260.4873,186.1447 L260.4873,186.7782 Q260.4873,187.0439 260.3851,187.1597 Q260.2829,187.2755 260.1194,187.2755 Q259.9695,187.2755 259.881,187.187 Q259.7924,187.1052 259.7447,186.8804 Q259.7243,186.7237 259.6425,186.642 Q259.4995,186.4785 259.2338,186.3831 Q258.9681,186.2877 258.6956,186.2877 Q258.3618,186.2877 258.0825,186.4308 Q257.8101,186.5739 257.5921,186.9008 Q257.3809,187.2278 257.3809,187.6774 L257.3809,188.1543 Q257.3809,188.6925 257.7692,189.0535 Q258.1575,189.4077 258.8523,189.4077 Q259.2611,189.4077 259.5472,189.2987 Q259.7175,189.2306 259.9014,189.0399 Q260.0172,188.9241 260.0785,188.89 Q260.1466,188.8559 260.2352,188.8559 Q260.3783,188.8559 260.4873,188.9718 Q260.6031,189.0807 260.6031,189.2306 Q260.6031,189.3805 260.4532,189.5576 Q260.2352,189.8097 259.8878,189.9527 Q259.4177,190.1503 258.8523,190.1503 Q258.1915,190.1503 257.667,189.8778 Q257.2378,189.6598 256.9381,189.1966 Q256.6384,188.7265 256.6384,188.1679 L256.6384,187.6638 Q256.6384,187.0848 256.904,186.5875 Q257.1765,186.0834 257.6534,185.8177 Q258.1302,185.5452 258.6684,185.5452 Q258.9886,185.5452 259.2679,185.6201 Q259.554,185.6883 259.7924,185.8449 Z " fill="#000000"/><text fill="#000000" font-family="'Consolas'" font-size="6.1037" font-weight="bold" lengthAdjust="spacing" textLength="16.7793" x="267.5243" y="189.6462">World</text><line style="stroke:#181818;stroke-width:0.218;" x1="90.4662" x2="447.1922" y1="194.6191" y2="194.6191"/><text fill="#000000" font-family="'Consolas'" font-size="6.1037" lengthAdjust="spacing" textLength="63.7615" x="92.6462" y="201.9392">+TAILLE_MONDE : int</text><text fill="#000000" font-family="'Consolas'" font-size="6.1037" lengthAdjust="spacing" textLength="117.4554" x="92.6462" y="209.0861">+ListCreature : ArrayList&lt;Creature&gt;</text><text fill="#000000" font-family="'Consolas'" font-size="6.1037" lengthAdjust="spacing" textLength="104.0319" x="92.6462" y="216.233">+ListObjets : LinkedList&lt;Objet&gt;</text><text fill="#000000" font-family="'Consolas'" font-size="6.1037" lengthAdjust="spacing" textLength="110.7437" x="92.6462" y="223.3798">+ListAnalyze : ArrayList&lt;Analyze&gt;</text><text fill="#000000" font-family="'Consolas'" font-size="6.1037" lengthAdjust="spacing" textLength="137.5906" x="92.6462" y="230.5267">+ListElementJeu : ArrayList&lt;ElementDeJeu&gt;</text><text fill="#000000" font-family="'Consolas'" font-size="6.1037" lengthAdjust="spacing" textLength="73.8291" x="92.6462" y="237.6736">-currentPartieId : int</text><text fill="#000000" font-family="'Consolas'" font-size="6.1037" lengthAdjust="spacing" textLength="60.4056" x="92.6462" y="244.8204">-currentTurn : int</text><text fill="#000000" font-family="'Consolas'" font-size="6.1037" lengthAdjust="spacing" textLength="70.4732" x="92.6462" y="251.9673">-remainingTurns : int</text><line style="stroke:#181818;stroke-width:0.218;" x1="90.4662" x2="447.1922" y1="255.2819" y2="255.2819"/><text fill="#000000" font-family="'Consolas'" font-size="6.1037" lengthAdjust="spacing" textLength="93.9643" x="92.6462" y="262.602">+getCurrentPartieId( ) : int</text><text fill="#000000" font-family="'Consolas'" font-size="6.1037" lengthAdjust="spacing" textLength="114.0995" x="92.6462" y="269.7489">+setCurrentPartieId(int id) : void</text><text fill="#000000" font-family="'Consolas'" font-size="6.1037" lengthAdjust="spacing" textLength="80.5408" x="92.6462" y="276.8958">+getCurrentTurn( ) : int</text><text fill="#000000" font-family="'Consolas'" font-size="6.1037" lengthAdjust="spacing" textLength="90.6084" x="92.6462" y="284.0426">+getRemainingTurns( ) : int</text><text fill="#000000" font-family="'Consolas'" font-size="6.1037" lengthAdjust="spacing" textLength="90.6084" x="92.6462" y="291.1895">+creationJoueur( ) : Joueur</text><text fill="#000000" font-family="'Consolas'" font-size="6.1037" lengthAdjust="spacing" textLength="83.8967" x="92.6462" y="298.3364">+creerMondeAlea( ) : void</text><text fill="#000000" font-family="'Consolas'" font-size="6.1037" lengthAdjust="spacing" textLength="244.9784" x="92.6462" y="305.4832">-generationCreatures(int n, Random rand, Collection&lt;Creature&gt; col) : void</text><text fill="#000000" font-family="'Consolas'" font-size="6.1037" lengthAdjust="spacing" textLength="224.8432" x="92.6462" y="312.6301">-generationObjets(int n, Random rand, Collection&lt;Objet&gt; col) : void</text><text fill="#000000" font-family="'Consolas'" font-size="6.1037" lengthAdjust="spacing" textLength="137.5906" x="92.6462" y="319.777">-positionAleatoire(Random rand) : Point2D</text><text fill="#000000" font-family="'Consolas'" font-size="6.1037" lengthAdjust="spacing" textLength="201.3521" x="92.6462" y="326.9238">+tourDeJour(int nbTours, Joueur moi, Connection conn) : void</text><text fill="#000000" font-family="'Consolas'" font-size="6.1037" lengthAdjust="spacing" textLength="107.3878" x="92.6462" y="334.0707">+afficheWorld(Joueur moi) : void</text><text fill="#000000" font-family="'Consolas'" font-size="6.1037" lengthAdjust="spacing" textLength="211.4197" x="92.6462" y="341.2176">-placerDansMonde(char[][] monde, ElementDeJeu e, char s) : void</text><text fill="#000000" font-family="'Consolas'" font-size="6.1037" lengthAdjust="spacing" textLength="140.9465" x="92.6462" y="348.3644">-getSymbolePourCreature(Creature c) : char</text><text fill="#000000" font-family="'Consolas'" font-size="6.1037" lengthAdjust="spacing" textLength="120.8113" x="92.6462" y="355.5113">-getSymbolePourObjet(Objet o) : char</text><text fill="#000000" font-family="'Consolas'" font-size="6.1037" lengthAdjust="spacing" textLength="194.6404" x="92.6462" y="362.6582">-afficherZoneVisible(char[][] monde, Creature hero) : void</text><text fill="#000000" font-family="'Consolas'" font-size="6.1037" lengthAdjust="spacing" textLength="147.6582" x="92.6462" y="369.805">-GenerationP(int id, Point2D p) : Personnage</text><text fill="#000000" font-family="'Consolas'" font-size="6.1037" lengthAdjust="spacing" textLength="137.5906" x="92.6462" y="376.9519">-GenerationM(int id, Point2D p) : Monstre</text><text fill="#000000" font-family="'Consolas'" font-size="6.1037" lengthAdjust="spacing" textLength="130.8789" x="92.6462" y="384.0988">-GenerationO(int id, Point2D p) : Objet</text><text fill="#000000" font-family="'Consolas'" font-size="6.1037" lengthAdjust="spacing" textLength="352.3662" x="92.6462" y="391.2456">+saveWorldToDB(Connection conn, Joueur joueur, String nomPartie, int tourActuel, int toursRestants) : int</text><text fill="#000000" font-family="'Consolas'" font-size="6.1037" lengthAdjust="spacing" textLength="231.5549" x="92.6462" y="398.3925">+loadWorldFromDB(Connection conn, int idPartie, Joueur joueur) : void</text></g><!--link Archer to Personnage--><g class="link" data-entity-1="Archer" data-entity-2="Personnage" data-source-line="29" data-uid="lnk5" id="link_Archer_Personnage"><path codeLine="29" d="M625.9697,129.7581 C681.4789,163.4289 752.2651,206.3707 809.1869,240.9004" fill="none" id="Archer-to-Personnage" style="stroke:#181818;stroke-width:0.436;"/><polygon fill="none" points="815.8965,244.9706,810.5436,238.6639,807.8301,243.137,815.8965,244.9706" style="stroke:#181818;stroke-width:0.436;"/></g><!--link Archer to Combattant--><g class="link" data-entity-1="Archer" data-entity-2="Combattant" data-source-line="30" data-uid="lnk7" id="link_Archer_Combattant"><path codeLine="30" d="M634.7635,129.7363 C657.0552,139.7726 681.7623,149.1157 705.6367,154.5087 C769.5386,168.9397 1832.6848,140.6271 1884.5317,180.6677 C1915.9137,204.8995 1917.7481,250.3782 1916.8936,272.731" fill="none" id="Archer-to-Combattant" style="stroke:#181818;stroke-width:0.436;stroke-dasharray:3.0519,3.0519;"/><polygon fill="none" points="1916.5938,280.5729,1919.5076,272.8309,1914.2796,272.631,1916.5938,280.5729" style="stroke:#181818;stroke-width:0.436;"/></g><!--link Creature to ElementDeJeu--><g class="link" data-entity-1="Creature" data-entity-2="ElementDeJeu" data-source-line="74" data-uid="lnk11" id="link_Creature_ElementDeJeu"><path codeLine="74" d="M1461.8647,626.2455 C1483.8731,638.9805 1506.6095,651.7505 1528.3345,663.2996 C1552.0912,675.93 1571.9623,685.5752 1594.4328,695.9864" fill="none" id="Creature-to-ElementDeJeu" style="stroke:#181818;stroke-width:0.436;"/><polygon fill="none" points="1601.5533,699.2856,1595.5325,693.6129,1593.3331,698.3599,1601.5533,699.2856" style="stroke:#181818;stroke-width:0.436;"/></g><!--link Creature to Deplacable--><g class="link" data-entity-1="Creature" data-entity-2="Deplacable" data-source-line="75" data-uid="lnk13" id="link_Creature_Deplacable"><path codeLine="75" d="M1461.9606,633.74 C1483.4763,645.1671 1506.034,655.5653 1528.3345,663.2996 C1547.6442,669.9963 1837.104,706.1387 1924.3483,716.9379" fill="none" id="Creature-to-Deplacable" style="stroke:#181818;stroke-width:0.436;stroke-dasharray:3.0519,3.0519;"/><polygon fill="none" points="1932.1366,717.902,1924.6697,714.3419,1924.027,719.534,1932.1366,717.902" style="stroke:#181818;stroke-width:0.436;"/></g><!--link Epee to Objet--><g class="link" data-entity-1="Epee" data-entity-2="Objet" data-source-line="98" data-uid="lnk16" id="link_Epee_Objet"><path codeLine="98" d="M1956.944,122.5644 C1973.2192,161.1052 1996.0286,215.1137 2011.6454,252.0937" fill="none" id="Epee-to-Objet" style="stroke:#181818;stroke-width:0.436;"/><polygon fill="none" points="2014.6985,259.3232,2014.0553,251.076,2009.2356,253.1114,2014.6985,259.3232" style="stroke:#181818;stroke-width:0.436;"/></g><!--link Guerrier to Personnage--><g class="link" data-entity-1="Guerrier" data-entity-2="Personnage" data-source-line="113" data-uid="lnk19" id="link_Guerrier_Personnage"><path codeLine="113" d="M1032.8367,111.9002 C1006.8479,144.7602 965.101,197.5324 932.507,238.7414" fill="none" id="Guerrier-to-Personnage" style="stroke:#181818;stroke-width:0.436;"/><polygon fill="none" points="927.6387,244.8965,934.5587,240.3642,930.4553,237.1186,927.6387,244.8965" style="stroke:#181818;stroke-width:0.436;"/></g><!--link Guerrier to Combattant--><g class="link" data-entity-1="Guerrier" data-entity-2="Combattant" data-source-line="114" data-uid="lnk20" id="link_Guerrier_Combattant"><path codeLine="114" d="M1094.3189,111.8087 C1123.0719,127.1509 1162.6024,145.654 1200.0402,154.5087 C1274.1048,172.0309 1824.667,133.6688 1884.5317,180.6677 C1915.7175,205.1524 1917.6404,250.4864 1916.8469,272.7694" fill="none" id="Guerrier-to-Combattant" style="stroke:#181818;stroke-width:0.436;stroke-dasharray:3.0519,3.0519;"/><polygon fill="none" points="1916.5677,280.6121,1919.4612,272.8625,1914.2327,272.6764,1916.5677,280.6121" style="stroke:#181818;stroke-width:0.436;"/></g><!--link Joueur to Analyze--><g class="link" data-entity-1="Joueur" data-entity-2="Analyze" data-source-line="133" data-uid="lnk22" id="link_Joueur_Analyze"><path codeLine="133" d="M1643.0152,355.4354 C1614.4104,417.044 1576.7681,498.1166 1562.9736,527.8244" fill="none" id="Joueur-to-Analyze" style="stroke:#181818;stroke-width:0.436;stroke-dasharray:3.0519,3.0519;"/><polygon fill="none" points="1559.6685,534.9422,1565.3462,528.9261,1560.601,526.7227,1559.6685,534.9422" style="stroke:#181818;stroke-width:0.436;"/></g><!--link Lapin to Monstre--><g class="link" data-entity-1="Lapin" data-entity-2="Monstre" data-source-line="138" data-uid="lnk25" id="link_Lapin_Monstre"><path codeLine="138" d="M1288.187,101.0268 C1285.2179,133.9827 1278.3221,210.5727 1274.3372,254.8554" fill="none" id="Lapin-to-Monstre" style="stroke:#181818;stroke-width:0.436;"/><polygon fill="none" points="1273.6339,262.6715,1276.9426,255.0899,1271.7319,254.621,1273.6339,262.6715" style="stroke:#181818;stroke-width:0.436;"/></g><!--link Loup to Monstre--><g class="link" data-entity-1="Loup" data-entity-2="Monstre" data-source-line="146" data-uid="lnk27" id="link_Loup_Monstre"><path codeLine="146" d="M1495.9018,111.8 C1448.1705,149.7958 1362.5665,217.9437 1312.2978,257.9625" fill="none" id="Loup-to-Monstre" style="stroke:#181818;stroke-width:0.436;"/><polygon fill="none" points="1306.1581,262.8502,1313.9271,260.009,1310.6686,255.9159,1306.1581,262.8502" style="stroke:#181818;stroke-width:0.436;"/></g><!--link Loup to Combattant--><g class="link" data-entity-1="Loup" data-entity-2="Combattant" data-source-line="147" data-uid="lnk28" id="link_Loup_Combattant"><path codeLine="147" d="M1571.1567,111.8305 C1599.914,126.5274 1638.59,144.2981 1674.8244,154.5087 C1720.027,167.2481 1848.8728,150.1053 1884.5317,180.6677 C1914.5622,206.4037 1917.0362,250.8014 1916.5784,272.7923" fill="none" id="Loup-to-Combattant" style="stroke:#181818;stroke-width:0.436;stroke-dasharray:3.0519,3.0519;"/><polygon fill="none" points="1916.4151,280.6383,1919.1937,272.8468,1913.9631,272.7379,1916.4151,280.6383" style="stroke:#181818;stroke-width:0.436;"/></g><!--link Monstre to Creature--><g class="link" data-entity-1="Monstre" data-entity-2="Creature" data-source-line="156" data-uid="lnk29" id="link_Monstre_Creature"><path codeLine="156" d="M1277.6013,319.602 C1283.7356,346.0356 1291.5916,379.8749 1300.9304,420.0986" fill="none" id="Monstre-to-Creature" style="stroke:#181818;stroke-width:0.436;"/><polygon fill="none" points="1302.7052,427.743,1303.4785,419.507,1298.3823,420.6902,1302.7052,427.743" style="stroke:#181818;stroke-width:0.436;"/></g><!--link Monstre to Analyze--><g class="link" data-entity-1="Monstre" data-entity-2="Analyze" data-source-line="157" data-uid="lnk30" id="link_Monstre_Analyze"><path codeLine="157" d="M1321.4393,319.6325 C1363.7644,344.6492 1424.4008,384.0314 1469.477,427.8694 C1505.1446,462.5561 1532.6858,506.748 1545.216,528.2289" fill="none" id="Monstre-to-Analyze" style="stroke:#181818;stroke-width:0.436;stroke-dasharray:3.0519,3.0519;"/><polygon fill="none" points="1549.1701,535.0076,1547.4755,526.9108,1542.9564,529.5469,1549.1701,535.0076" style="stroke:#181818;stroke-width:0.436;"/></g><!--link Nourriture to Objet--><g class="link" data-entity-1="Nourriture" data-entity-2="Objet" data-source-line="177" data-uid="lnk32" id="link_Nourriture_Objet"><path codeLine="177" d="M2096.5933,154.5262 C2078.814,189.8189 2061.3948,224.3938 2047.3649,252.2531" fill="none" id="Nourriture-to-Objet" style="stroke:#181818;stroke-width:0.436;"/><polygon fill="none" points="2043.8351,259.2621,2049.7013,253.4296,2045.0285,251.0765,2043.8351,259.2621" style="stroke:#181818;stroke-width:0.436;"/></g><!--link Nourriture to ObjetUtilisable--><g class="link" data-entity-1="Nourriture" data-entity-2="ObjetUtilisable" data-source-line="178" data-uid="lnk34" id="link_Nourriture_ObjetUtilisable"><path codeLine="178" d="M2136.3287,154.5262 C2140.3964,200.81 2144.7276,250.1061 2146.7287,272.8774" fill="none" id="Nourriture-to-ObjetUtilisable" style="stroke:#181818;stroke-width:0.436;stroke-dasharray:3.0519,3.0519;"/><polygon fill="none" points="2147.4157,280.695,2149.3346,272.6484,2144.1229,273.1064,2147.4157,280.695" style="stroke:#181818;stroke-width:0.436;"/></g><!--link NuageToxique to Objet--><g class="link" data-entity-1="NuageToxique" data-entity-2="Objet" data-source-line="198" data-uid="lnk36" id="link_NuageToxique_Objet"><path codeLine="198" d="M2237.1757,152.3942 C2234.7167,153.1136 2232.2665,153.8155 2229.8294,154.5087 C2176.814,169.5501 2154.8579,150.6721 2108.6264,180.6677 C2078.9622,199.9119 2060.1972,227.2304 2046.5989,252.4258" fill="none" id="NuageToxique-to-Objet" style="stroke:#181818;stroke-width:0.436;"/><polygon fill="none" points="2042.8716,259.3319,2048.9009,253.6683,2044.2969,251.1834,2042.8716,259.3319" style="stroke:#181818;stroke-width:0.436;"/></g><!--link NuageToxique to Deplacable--><g class="link" data-entity-1="NuageToxique" data-entity-2="Deplacable" data-source-line="199" data-uid="lnk37" id="link_NuageToxique_Deplacable"><path codeLine="199" d="M2401.0351,154.5785 C2380.762,221.1224 2343.8822,324.0316 2290.8668,401.7105 C2192.7448,545.4799 2027.1205,669.9974 1976.6861,706.2057" fill="none" id="NuageToxique-to-Deplacable" style="stroke:#181818;stroke-width:0.436;stroke-dasharray:3.0519,3.0519;"/><polygon fill="none" points="1970.3112,710.7824,1978.2116,708.3306,1975.1605,704.0807,1970.3112,710.7824" style="stroke:#181818;stroke-width:0.436;"/></g><!--link NuageToxique to Combattant--><g class="link" data-entity-1="NuageToxique" data-entity-2="Combattant" data-source-line="200" data-uid="lnk38" id="link_NuageToxique_Combattant"><path codeLine="200" d="M2237.1539,152.8433 C2234.7037,153.4188 2232.2622,153.9725 2229.8294,154.5087 C2168.2469,168.0416 1995.8335,140.4047 1947.3131,180.6677 C1916.8772,205.9241 1914.5877,250.5888 1915.1676,272.7236" fill="none" id="NuageToxique-to-Combattant" style="stroke:#181818;stroke-width:0.436;stroke-dasharray:3.0519,3.0519;"/><polygon fill="none" points="1915.3731,280.5686,1917.7826,272.6551,1912.5526,272.7921,1915.3731,280.5686" style="stroke:#181818;stroke-width:0.436;"/></g><!--link NuageToxique to Analyze--><g class="link" data-entity-1="NuageToxique" data-entity-2="Analyze" data-source-line="201" data-uid="lnk39" id="link_NuageToxique_Analyze"><path codeLine="201" d="M2388.2478,154.5829 C2350.9887,227.0823 2281.7679,340.3417 2187.9751,401.7105 C1978.0455,539.0753 1662.3421,546.0543 1581.5459,545.5267" fill="none" id="NuageToxique-to-Analyze" style="stroke:#181818;stroke-width:0.436;stroke-dasharray:3.0519,3.0519;"/><polygon fill="none" points="1573.6984,545.4755,1581.5289,548.1426,1581.563,542.9109,1573.6984,545.4755" style="stroke:#181818;stroke-width:0.436;"/></g><!--link Objet to ElementDeJeu--><g class="link" data-entity-1="Objet" data-entity-2="ElementDeJeu" data-source-line="211" data-uid="lnk40" id="link_Objet_ElementDeJeu"><path codeLine="211" d="M2006.4105,323.0942 C1990.6846,345.5255 1968.5062,376.114 1947.3131,401.7105 C1855.9749,512.027 1742.7467,627.8524 1686.8277,683.8281" fill="none" id="Objet-to-ElementDeJeu" style="stroke:#181818;stroke-width:0.436;"/><polygon fill="none" points="1681.2813,689.38,1688.6783,685.6769,1684.977,681.9793,1681.2813,689.38" style="stroke:#181818;stroke-width:0.436;"/></g><!--link Paysan to Personnage--><g class="link" data-entity-1="Paysan" data-entity-2="Personnage" data-source-line="219" data-uid="lnk42" id="link_Paysan_Personnage"><path codeLine="219" d="M810.8391,101.0268 C823.1251,129.976 849.191,191.3933 868.8363,237.6727" fill="none" id="Paysan-to-Personnage" style="stroke:#181818;stroke-width:0.436;"/><polygon fill="none" points="871.9027,244.8965,871.2442,236.6506,866.4284,238.6949,871.9027,244.8965" style="stroke:#181818;stroke-width:0.436;"/></g><!--link Personnage to Creature--><g class="link" data-entity-1="Personnage" data-entity-2="Creature" data-source-line="233" data-uid="lnk43" id="link_Personnage_Creature"><path codeLine="233" d="M970.1077,337.4075 C1004.1971,357.2054 1044.5603,380.6264 1081.0171,401.7105 C1118.9606,423.6534 1153.3871,443.5188 1191.1736,465.2874" fill="none" id="Personnage-to-Creature" style="stroke:#181818;stroke-width:0.436;"/><polygon fill="none" points="1197.9736,469.2048,1192.4794,463.0207,1189.8678,467.5541,1197.9736,469.2048" style="stroke:#181818;stroke-width:0.436;"/></g><!--link Personnage to Analyze--><g class="link" data-entity-1="Personnage" data-entity-2="Analyze" data-source-line="234" data-uid="lnk44" id="link_Personnage_Analyze"><path codeLine="234" d="M953.5578,337.5339 C989.038,361.1249 1035.4134,387.7765 1081.0171,401.7105 C1163.7577,426.9974 1393.7207,386.0718 1469.477,427.8694 C1514.0343,452.4544 1538.536,503.9849 1548.132,527.7023" fill="none" id="Personnage-to-Analyze" style="stroke:#181818;stroke-width:0.436;stroke-dasharray:3.0519,3.0519;"/><polygon fill="none" points="1551.0753,534.9771,1550.5569,526.7211,1545.707,528.6834,1551.0753,534.9771" style="stroke:#181818;stroke-width:0.436;"/></g><!--link PotionSoin to Objet--><g class="link" data-entity-1="PotionSoin" data-entity-2="Objet" data-source-line="257" data-uid="lnk47" id="link_PotionSoin_Objet"><path codeLine="257" d="M1790.7607,111.8872 C1807.6376,126.0914 1830.422,143.3215 1853.141,154.5087 C1892.1091,173.7007 1911.5757,155.9736 1947.3131,180.6677 C1976.21,200.6356 1994.8779,227.5313 2008.6811,252.4128" fill="none" id="PotionSoin-to-Objet" style="stroke:#181818;stroke-width:0.436;"/><polygon fill="none" points="2012.488,259.2752,2010.9685,251.1438,2006.3936,253.6818,2012.488,259.2752" style="stroke:#181818;stroke-width:0.436;"/></g><!--SRC=[rLdlZXir4F-Ufx3e1r9ngIea95HL9uLB2grwrrFlQ0keGiwkatExMI-sztgXy8cduJNWnHXxlEk_uNgb5D5ARJ8pdl5uPdvZJpubizcCd5FUD8mmJNxgQSFrdx_zyRjXJ5H5WRwbL-IBktVlaZUyrXSJzPgt7PLqI-gE0sCo-THgETCx4DwOnQtvHz86bOpoArgztaZHj_MHQ8GajzPVch-1HDLGfUPQIxxgDNjOYVQC_yp8tLJaWMWrsbk9fWwuweBMuWrlDsHD6yK2JWV6wORXAiagJTjD4mhKR4txHXlL9tJBo2T7ebK2h7qocMYkOTLp8PkQY3LP7fsG6Lbmke6585ept1PJf3QkQtEWzXIdAqdRweAH2xhJT7jxmblDv9fMZCnRskp0kRUJNoSJkvpC9OXAe13uCoFjwa73WAB8FGBhBFKpic7wP61CoUs8fq8UaBqA8tSfUEq4Ax5TKJXdDZsIZEfUWWS7v8pf-wS2rds-E2ITK5npqLgl3yXZhlJzGVYGLEvJglWLwnSC8eWxMmdHCDg6l4LeCfUXwpM7_UBoGA-YbmoFPmfnQI5-i3LmesqFZF-4rwTCAlWACVw7lexB8Iuk8hFPBuV46nZ8T-u0-GZLKmY23wudXl6rExy2EryjnY0R5y2WTshSjILa1m7XzxB8pTSsGeL7w3Sm701QlmKrJtKIWrkaqyyu2_Bg5YJu1c8QaJfzIcLCWPF9f82MojMGII1t3B2Iag5Ms3EkJ6YJb3yrUogaEz9D1jXTvuUri5ilh7GCinJTozUU6X-BHWqTZSAdma8yYj9Inx6ByNDv-HxBZZCiBrfVH2TPSZqMi4SGaSewCMXxz3dce0k_9dguMaA-bQ01b5YMezgyJ1RNh6kWjD3t-WhBljwLfRQirNFGf0M7kY_MkdfILNt7c49D5hFPiMZhD8csefTSJZy0EEu3DxTfls5oqos4fJuMkKMjPMCFOy4UiTwpB78jh5cwWZReaSiJ4RdeIcb9AuqTBb8teaWhjc3_3DfsknaANvYkvJORT2wnHUS2OMnRm42QqLOe2U6QNQnI8SSHZTKSz9OGv15kknYXPeIjrynGJFfvSqj3HOC1GmqCGyEL-KwxSk5tOzNd9M-QsxbOVBMtjL6f0sm3pwnFDhvFLg-O7ZoLalLIEMTDNcqXpo5yHgDZFgANDCclsP2O4cMcowkATNONB17SCdqXQlQKLQ2ANoBoGeFjDAnBPBzcBKFJnrFquu2CWJAontPpp4Vgwvv9oSSRq7jSKpxIBSK4RDZi3UuZuEZeOdgb61dffGAFvf7euOJ7Wu5O2LCCVhsxCegjaunA329iDsYojz8zOvb7M9kuTc-5EhQlKoJaDV0DRC-LQxn3gyboFSCwao8bNexV3tKTnrR68H7clsj1_bymYC-5DxWqIP8zlGsaj1ImHJdTR-iQHo1hVkhPtsZYWErgNhy2Wu3wweDS-st_m1mBBDi38U8TB4H7b-ZkDM-uOjBA1Dh9JL5qxmFXWieDauYoqFzwhXOC7g2veY2aOL6xahELwvvrhcmVquwtOzNU7ETnlSMA0IsTOj5t_mkOlA6_ngt8NKifOw8J6Njx3KzwW19mrE3RmdyBhh6UY4xbKYgM2Zw71lvplCgkad1wmu7O0nmCZTH2Ufx0lLBou4LetgEYMOWtRNH9qhkE1RBtWeNAYMnCjpS8XilzNJOGjNfkfq-xOKdXqZIoy9g1N_9sSnvj3_MaExJw4i5qQ_vxRkCZtbnTXBkkuO3a4g-SGR_i4ad9D1pqzN8rWvGpjtSc5-1Z_inWy6w3AbqNNsWthkKWOOARQa2r2Mcftrg8joyHbvWzE70khim1-Ffc6shUs-UYbt5wuW0p9DN6mJJJ5e62yaJ0izrSO2GKiivQBUXn35_0XUUqF_zu2vPkRPjF7pA0_zdx-L-RDNvqq7sF6WZpEAo2a9u-ndDcqFfoPWpfUEVo9QCgoV4jbq2NhOUHMyQsKC1XNA2nY7NSQoi17h83rEC5JSNcXexbCmq_kaYW99oydjATel5534atUxqvDUdRpTdmoFis72ueMv9c7E8ppk_oq8dozX9Sejosro0ravc4KuP7ir-VdrKC2ugoqGRpS3uSzvJQ2wm4Gc55UNyIlPraRMs5tkLza0x2c06IELouiTsf30B_1w0G94fyKmiOXSeUYcP8hgkeuUtIPlSYRIz0-wxGSbxOXf2EQfKHDenTpXZBs2v4FrCnBMch6ghPtxURlHDHDuwUHWEZTIF6MHmplrKgcqALDg7AEzu5LHT7eWxwhCS3OHmu4-FZR4Qw-4SFdEMLVtJenjySyfyStYCT_5woYTuvTFJdOXb26Rv11oGxdpzy_7Zvu_6JayKosgP9vB7VtYDpAUakJlj0q9f4X6fVipglSqCPVh0CbJbQAER0sSo7GyaGimVCg-0g23GyaeTrbC-ETzxB-2a25o3AM-X4XfFzCdeKQomzAH89Z4hXHpPllr18JwDTf08MJo2cuJWDFti19YsOc4jMDexTZ9FJ8LZkrzm3yfIsjTWIg2uxL09CiYaMWfbezgh3E5-doy5VhcX0KNyp35Ja7Ly3IaEyXzjqkpBtQC1JDoxP2dxTNCp1WqtvgL-MRilUQ-6XhkoHJiqyvuUNFxm4KVXw4Fzc0TyDdwZiaFJPRhi2_3Y5NGx7cOmtpCgYVDJF4ibXkFwzQEtFQz1uiosEPh9PQ3X7FotFqRCfy3jFtbFn9sLnH2IFRpOUPP1pGNfb_piW_c6C1UUQAPpOtCoX6_zTFMK6yd7wvqi94B-svXv8iRqELHFp0SZ-1G00]--></g></svg>