<svg xmlns="http://www.w3.org/2000/svg" xmlns:xlink="http://www.w3.org/1999/xlink" contentStyleType="text/css" data-diagram-type="CLASS" height="756.0984px" preserveAspectRatio="none" style="width:2604px;height:756px;background:#F8F8F8;" version="1.1" viewBox="0 0 2604 756" width="2604.4843px" zoomAndPan="magnify"><title>World of ECN - Diagramme de classes d&#195;&#169;taill&#195;&#169; (branche haytam)</title><defs/><g><rect fill="#F8F8F8" height="756.0984" style="stroke:none;stroke-width:0.436;" width="2604.4843" x="0" y="0"/><g class="title" data-source-line="13"><text fill="#000000" font-family="'Consolas'" font-size="6.1046" font-weight="bold" lengthAdjust="spacing" textLength="211.4493" x="1193.5244" y="9.9374">World of ECN - Diagramme de classes d&#195;&#169;taill&#195;&#169; (branche haytam)</text></g><!--class Analyze--><g class="entity" data-entity="Analyze" data-source-line="14" data-uid="ent0002" id="entity_Analyze"><rect fill="#F1F1F1" height="20.9301" rx="1.0901" ry="1.0901" style="stroke:#181818;stroke-width:0.218;" width="37.4477" x="1573.8969" y="535.1958"/><ellipse cx="1580.4375" cy="542.1725" fill="#B4A7E5" rx="4.7965" ry="4.7965" style="stroke:#181818;stroke-width:0.436;"/><path d="M1580.8531,540.7077 L1580.8531,543.6101 L1581.6026,543.6101 Q1581.8683,543.6101 1581.9841,543.7123 Q1582.1,543.8145 1582.1,543.9848 Q1582.1,544.1483 1581.9841,544.2505 Q1581.8683,544.3527 1581.6026,544.3527 L1579.3611,544.3527 Q1579.0954,544.3527 1578.9795,544.2505 Q1578.8637,544.1483 1578.8637,543.978 Q1578.8637,543.8145 1578.9795,543.7123 Q1579.0954,543.6101 1579.3611,543.6101 L1580.1105,543.6101 L1580.1105,540.7077 L1579.3611,540.7077 Q1579.0954,540.7077 1578.9795,540.6055 Q1578.8637,540.5033 1578.8637,540.333 Q1578.8637,540.1695 1578.9795,540.0673 Q1579.0954,539.9651 1579.3611,539.9651 L1581.6026,539.9651 Q1581.8683,539.9651 1581.9841,540.0673 Q1582.1,540.1695 1582.1,540.333 Q1582.1,540.5033 1581.9841,540.6055 Q1581.8683,540.7077 1581.6026,540.7077 L1580.8531,540.7077 Z " fill="#000000"/><text fill="#000000" font-family="'Consolas'" font-size="6.1046" font-style="italic" font-weight="bold" lengthAdjust="spacing" textLength="23.4944" x="1586.5421" y="544.1756">Analyze</text><line style="stroke:#181818;stroke-width:0.218;" x1="1574.3329" x2="1610.9086" y1="549.1492" y2="549.1492"/><line style="stroke:#181818;stroke-width:0.218;" x1="1574.3329" x2="1610.9086" y1="552.6376" y2="552.6376"/></g><!--class Archer--><g class="entity" data-entity="Archer" data-source-line="17" data-uid="ent0003" id="entity_Archer"><rect fill="#F1F1F1" height="85.2609" rx="1.0901" ry="1.0901" style="stroke:#181818;stroke-width:0.218;" width="283.8086" x="1940.827" y="44.2115"/><ellipse cx="2070.8091" cy="51.1882" fill="#ADD1B2" rx="4.7965" ry="4.7965" style="stroke:#181818;stroke-width:0.436;"/><path d="M2072.015,49.3895 Q2072.0832,49.2941 2072.1649,49.2464 Q2072.2467,49.1988 2072.3421,49.1988 Q2072.5056,49.1988 2072.6078,49.3146 Q2072.71,49.4236 2072.71,49.6893 L2072.71,50.3229 Q2072.71,50.5886 2072.6078,50.7045 Q2072.5056,50.8203 2072.3421,50.8203 Q2072.1922,50.8203 2072.1036,50.7317 Q2072.015,50.65 2071.9673,50.4251 Q2071.9469,50.2684 2071.8651,50.1867 Q2071.7221,50.0231 2071.4564,49.9278 Q2071.1906,49.8324 2070.9181,49.8324 Q2070.5843,49.8324 2070.3049,49.9755 Q2070.0324,50.1185 2069.8144,50.4456 Q2069.6032,50.7726 2069.6032,51.2223 L2069.6032,51.6992 Q2069.6032,52.2374 2069.9915,52.5985 Q2070.3799,52.9528 2071.0748,52.9528 Q2071.4836,52.9528 2071.7698,52.8438 Q2071.9401,52.7757 2072.124,52.5849 Q2072.2399,52.4691 2072.3012,52.435 Q2072.3693,52.4009 2072.4579,52.4009 Q2072.601,52.4009 2072.71,52.5168 Q2072.8258,52.6258 2072.8258,52.7757 Q2072.8258,52.9256 2072.6759,53.1027 Q2072.4579,53.3548 2072.1104,53.4979 Q2071.6403,53.6954 2071.0748,53.6954 Q2070.4139,53.6954 2069.8893,53.4229 Q2069.4601,53.2049 2069.1603,52.7416 Q2068.8605,52.2715 2068.8605,51.7128 L2068.8605,51.2086 Q2068.8605,50.6295 2069.1263,50.1322 Q2069.3988,49.628 2069.8757,49.3623 Q2070.3526,49.0897 2070.8909,49.0897 Q2071.2111,49.0897 2071.4904,49.1647 Q2071.7766,49.2328 2072.015,49.3895 Z " fill="#000000"/><text fill="#000000" font-family="'Consolas'" font-size="6.1046" font-weight="bold" lengthAdjust="spacing" textLength="20.138" x="2079.748" y="53.1913">Archer</text><line style="stroke:#181818;stroke-width:0.218;" x1="1941.2631" x2="2224.1996" y1="58.1649" y2="58.1649"/><text fill="#000000" font-family="'Consolas'" font-size="6.1046" lengthAdjust="spacing" textLength="53.7014" x="1943.4433" y="65.4861">-nbFleches : int</text><line style="stroke:#181818;stroke-width:0.218;" x1="1941.2631" x2="2224.1996" y1="68.8011" y2="68.8011"/><text fill="#000000" font-family="'Consolas'" font-size="6.1046" lengthAdjust="spacing" textLength="73.8394" x="1943.4433" y="76.1223">+getNbFleches( ) : int</text><text fill="#000000" font-family="'Consolas'" font-size="6.1046" lengthAdjust="spacing" textLength="117.4718" x="1943.4433" y="83.2701">+setNbFleches(int nbFleches) : void</text><text fill="#000000" font-family="'Consolas'" font-size="6.1046" lengthAdjust="spacing" textLength="278.5761" x="1943.4433" y="90.418">+combattre(Creature c, Set&lt;Point2D&gt; positionWorld, List&lt;Creature&gt; creatures) : void</text><text fill="#000000" font-family="'Consolas'" font-size="6.1046" lengthAdjust="spacing" textLength="73.8394" x="1943.4433" y="97.5659">+jeuDeAtt( ) : boolean</text><text fill="#000000" font-family="'Consolas'" font-size="6.1046" lengthAdjust="spacing" textLength="100.6901" x="1943.4433" y="104.7137">+jeuDeDe(Creature c) : boolean</text><text fill="#000000" font-family="'Consolas'" font-size="6.1046" lengthAdjust="spacing" textLength="60.4141" x="1943.4433" y="111.8616">+affiche( ) : void</text><text fill="#000000" font-family="'Consolas'" font-size="6.1046" lengthAdjust="spacing" textLength="177.8859" x="1943.4433" y="119.0095">+saveArcher(Connection conn, int idPersonnage) : void</text><text fill="#000000" font-family="'Consolas'" font-size="6.1046" lengthAdjust="spacing" textLength="191.3113" x="1943.4433" y="126.1573">+combattre(Creature c, Set&lt;Point2D&gt; positionWorld) : void</text></g><!--class Personnage--><g class="entity" data-entity="Personnage" data-source-line="29" data-uid="ent0004" id="entity_Personnage"><rect fill="#F1F1F1" height="92.4087" rx="1.0901" ry="1.0901" style="stroke:#181818;stroke-width:0.218;" width="364.3607" x="1753.1105" y="245.0093"/><ellipse cx="1916.656" cy="251.986" fill="#ADD1B2" rx="4.7965" ry="4.7965" style="stroke:#181818;stroke-width:0.436;"/><path d="M1917.8619,250.1873 Q1917.9301,250.0919 1918.0118,250.0442 Q1918.0936,249.9965 1918.189,249.9965 Q1918.3525,249.9965 1918.4547,250.1123 Q1918.5569,250.2214 1918.5569,250.4871 L1918.5569,251.1207 Q1918.5569,251.3864 1918.4547,251.5022 Q1918.3525,251.6181 1918.189,251.6181 Q1918.0391,251.6181 1917.9505,251.5295 Q1917.8619,251.4477 1917.8143,251.2229 Q1917.7938,251.0662 1917.7121,250.9844 Q1917.569,250.8209 1917.3033,250.7255 Q1917.0376,250.6301 1916.765,250.6301 Q1916.4312,250.6301 1916.1518,250.7732 Q1915.8793,250.9163 1915.6613,251.2433 Q1915.4501,251.5704 1915.4501,252.02 L1915.4501,252.497 Q1915.4501,253.0352 1915.8384,253.3963 Q1916.2268,253.7506 1916.9217,253.7506 Q1917.3305,253.7506 1917.6167,253.6416 Q1917.787,253.5734 1917.971,253.3827 Q1918.0868,253.2668 1918.1481,253.2328 Q1918.2162,253.1987 1918.3048,253.1987 Q1918.4479,253.1987 1918.5569,253.3145 Q1918.6727,253.4235 1918.6727,253.5734 Q1918.6727,253.7233 1918.5228,253.9005 Q1918.3048,254.1526 1917.9573,254.2956 Q1917.4872,254.4932 1916.9217,254.4932 Q1916.2609,254.4932 1915.7362,254.2207 Q1915.307,254.0027 1915.0072,253.5394 Q1914.7074,253.0693 1914.7074,252.5106 L1914.7074,252.0064 Q1914.7074,251.4273 1914.9732,250.9299 Q1915.2457,250.4257 1915.7226,250.16 Q1916.1995,249.8875 1916.7378,249.8875 Q1917.058,249.8875 1917.3373,249.9625 Q1917.6235,250.0306 1917.8619,250.1873 Z " fill="#000000"/><text fill="#000000" font-family="'Consolas'" font-size="6.1046" font-weight="bold" lengthAdjust="spacing" textLength="33.5634" x="1925.5949" y="253.989">Personnage</text><line style="stroke:#181818;stroke-width:0.218;" x1="1753.5466" x2="2117.0352" y1="258.9627" y2="258.9627"/><text fill="#000000" font-family="'Consolas'" font-size="6.1046" lengthAdjust="spacing" textLength="124.1845" x="1755.7268" y="266.2838">-effetsActifs : List&lt;ObjetUtilisable&gt;</text><text fill="#000000" font-family="'Consolas'" font-size="6.1046" lengthAdjust="spacing" textLength="83.9085" x="1755.7268" y="273.4317">-inventaire : List&lt;Objet&gt;</text><line style="stroke:#181818;stroke-width:0.218;" x1="1753.5466" x2="2117.0352" y1="276.7467" y2="276.7467"/><text fill="#000000" font-family="'Consolas'" font-size="6.1046" lengthAdjust="spacing" textLength="144.3225" x="1755.7268" y="284.0679">+getEffetsActifs( ) : List&lt;ObjetUtilisable&gt;</text><text fill="#000000" font-family="'Consolas'" font-size="6.1046" lengthAdjust="spacing" textLength="198.024" x="1755.7268" y="291.2158">+setEffetsActifs(List&lt;ObjetUtilisable&gt; effetsActifs) : void</text><text fill="#000000" font-family="'Consolas'" font-size="6.1046" lengthAdjust="spacing" textLength="104.0465" x="1755.7268" y="298.3636">+getInventaire( ) : List&lt;Objet&gt;</text><text fill="#000000" font-family="'Consolas'" font-size="6.1046" lengthAdjust="spacing" textLength="151.0352" x="1755.7268" y="305.5115">+setInventaire(List&lt;Objet&gt; inventaire) : void</text><text fill="#000000" font-family="'Consolas'" font-size="6.1046" lengthAdjust="spacing" textLength="184.5986" x="1755.7268" y="312.6594">+prendObjet(Objet o, Set&lt;Point2D&gt; positionWorld) : void</text><text fill="#000000" font-family="'Consolas'" font-size="6.1046" lengthAdjust="spacing" textLength="93.9775" x="1755.7268" y="319.8072">+mettreAJourEffets( ) : void</text><text fill="#000000" font-family="'Consolas'" font-size="6.1046" lengthAdjust="spacing" textLength="359.1282" x="1755.7268" y="326.9551">+analyzer(Set&lt;Point2D&gt; positionWorld, List&lt;Creature&gt; creatures, List&lt;Objet&gt; objets, int tailleMonde) : void</text><text fill="#000000" font-family="'Consolas'" font-size="6.1046" lengthAdjust="spacing" textLength="157.7479" x="1755.7268" y="334.103">+saveToDB(Connection conn, int idPartie) : void</text></g><!--class Combattant--><g class="entity" data-entity="Combattant" data-source-line="30" data-uid="ent0006" id="entity_Combattant"><rect fill="#F1F1F1" height="20.9301" rx="1.0901" ry="1.0901" style="stroke:#181818;stroke-width:0.218;" width="47.5168" x="1266.7047" y="280.7648"/><ellipse cx="1273.2453" cy="287.7415" fill="#B4A7E5" rx="4.7965" ry="4.7965" style="stroke:#181818;stroke-width:0.436;"/><path d="M1273.6609,286.2767 L1273.6609,289.1791 L1274.4104,289.1791 Q1274.6761,289.1791 1274.7919,289.2813 Q1274.9077,289.3835 1274.9077,289.5538 Q1274.9077,289.7173 1274.7919,289.8195 Q1274.6761,289.9217 1274.4104,289.9217 L1272.1688,289.9217 Q1271.9031,289.9217 1271.7873,289.8195 Q1271.6715,289.7173 1271.6715,289.547 Q1271.6715,289.3835 1271.7873,289.2813 Q1271.9031,289.1791 1272.1688,289.1791 L1272.9183,289.1791 L1272.9183,286.2767 L1272.1688,286.2767 Q1271.9031,286.2767 1271.7873,286.1745 Q1271.6715,286.0723 1271.6715,285.9019 Q1271.6715,285.7384 1271.7873,285.6362 Q1271.9031,285.534 1272.1688,285.534 L1274.4104,285.534 Q1274.6761,285.534 1274.7919,285.6362 Q1274.9077,285.7384 1274.9077,285.9019 Q1274.9077,286.0723 1274.7919,286.1745 Q1274.6761,286.2767 1274.4104,286.2767 L1273.6609,286.2767 Z " fill="#000000"/><text fill="#000000" font-family="'Consolas'" font-size="6.1046" font-style="italic" font-weight="bold" lengthAdjust="spacing" textLength="33.5634" x="1279.3499" y="289.7446">Combattant</text><line style="stroke:#181818;stroke-width:0.218;" x1="1267.1407" x2="1313.7854" y1="294.7182" y2="294.7182"/><line style="stroke:#181818;stroke-width:0.218;" x1="1267.1407" x2="1313.7854" y1="298.2065" y2="298.2065"/></g><!--class ConnexionBD--><g class="entity" data-entity="ConnexionBD" data-source-line="34" data-uid="ent0008" id="entity_ConnexionBD"><rect fill="#F1F1F1" height="49.5215" rx="1.0901" ry="1.0901" style="stroke:#181818;stroke-width:0.218;" width="105.9227" x="3.0523" y="62.0893"/><ellipse cx="35.7006" cy="69.066" fill="#ADD1B2" rx="4.7965" ry="4.7965" style="stroke:#181818;stroke-width:0.436;"/><path d="M36.9065,67.2673 Q36.9747,67.1719 37.0564,67.1242 Q37.1382,67.0765 37.2336,67.0765 Q37.3971,67.0765 37.4993,67.1923 Q37.6015,67.3014 37.6015,67.5671 L37.6015,68.2007 Q37.6015,68.4664 37.4993,68.5822 Q37.3971,68.6981 37.2336,68.6981 Q37.0837,68.6981 36.9951,68.6095 Q36.9065,68.5277 36.8588,68.3029 Q36.8384,68.1462 36.7566,68.0644 Q36.6136,67.9009 36.3478,67.8055 Q36.0821,67.7101 35.8096,67.7101 Q35.4758,67.7101 35.1964,67.8532 Q34.9239,67.9963 34.7059,68.3233 Q34.4947,68.6504 34.4947,69.1 L34.4947,69.5769 Q34.4947,70.1152 34.883,70.4763 Q35.2714,70.8306 35.9663,70.8306 Q36.3751,70.8306 36.6612,70.7216 Q36.8316,70.6534 37.0155,70.4627 Q37.1314,70.3468 37.1927,70.3128 Q37.2608,70.2787 37.3494,70.2787 Q37.4925,70.2787 37.6015,70.3945 Q37.7173,70.5035 37.7173,70.6534 Q37.7173,70.8033 37.5674,70.9805 Q37.3494,71.2325 37.0019,71.3756 Q36.5318,71.5732 35.9663,71.5732 Q35.3054,71.5732 34.7808,71.3007 Q34.3516,71.0827 34.0518,70.6194 Q33.752,70.1493 33.752,69.5906 L33.752,69.0864 Q33.752,68.5073 34.0177,68.0099 Q34.2903,67.5057 34.7672,67.24 Q35.2441,66.9675 35.7823,66.9675 Q36.1026,66.9675 36.3819,67.0424 Q36.6681,67.1106 36.9065,67.2673 Z " fill="#000000"/><text fill="#000000" font-family="'Consolas'" font-size="6.1046" font-weight="bold" lengthAdjust="spacing" textLength="36.9197" x="44.6395" y="71.069">ConnexionBD</text><line style="stroke:#181818;stroke-width:0.218;" x1="3.4883" x2="108.5389" y1="76.0426" y2="76.0426"/><text fill="#000000" font-family="'Consolas'" font-size="6.1046" lengthAdjust="spacing" textLength="60.4141" x="5.6686" y="83.3638">-conn : Connection</text><line style="stroke:#181818;stroke-width:0.218;" x1="3.4883" x2="108.5389" y1="86.6789" y2="86.6789"/><text fill="#000000" font-family="'Consolas'" font-size="6.1046" lengthAdjust="spacing" textLength="60.4141" x="5.6686" y="94">+connect( ) : void</text><text fill="#000000" font-family="'Consolas'" font-size="6.1046" lengthAdjust="spacing" textLength="100.6901" x="5.6686" y="101.1479">+getConnection( ) : Connection</text><text fill="#000000" font-family="'Consolas'" font-size="6.1046" lengthAdjust="spacing" textLength="53.7014" x="5.6686" y="108.2958">+close( ) : void</text></g><!--class Creature--><g class="entity" data-entity="Creature" data-source-line="41" data-uid="ent0009" id="entity_Creature"><rect fill="#F1F1F1" height="235.3661" rx="1.0901" ry="1.0901" style="stroke:#181818;stroke-width:0.218;" width="263.6706" x="1744.6077" y="427.9293"/><ellipse cx="1861.1644" cy="434.906" fill="#ADD1B2" rx="4.7965" ry="4.7965" style="stroke:#181818;stroke-width:0.436;"/><path d="M1862.3704,433.1073 Q1862.4385,433.0119 1862.5203,432.9642 Q1862.602,432.9165 1862.6974,432.9165 Q1862.8609,432.9165 1862.9631,433.0323 Q1863.0653,433.1414 1863.0653,433.4071 L1863.0653,434.0407 Q1863.0653,434.3064 1862.9631,434.4222 Q1862.8609,434.5381 1862.6974,434.5381 Q1862.5475,434.5381 1862.4589,434.4495 Q1862.3704,434.3677 1862.3227,434.1429 Q1862.3022,433.9862 1862.2205,433.9044 Q1862.0774,433.7409 1861.8117,433.6455 Q1861.546,433.5501 1861.2735,433.5501 Q1860.9396,433.5501 1860.6603,433.6932 Q1860.3877,433.8363 1860.1697,434.1633 Q1859.9585,434.4904 1859.9585,434.94 L1859.9585,435.417 Q1859.9585,435.9552 1860.3469,436.3163 Q1860.7352,436.6706 1861.4302,436.6706 Q1861.8389,436.6706 1862.1251,436.5616 Q1862.2954,436.4934 1862.4794,436.3027 Q1862.5952,436.1868 1862.6565,436.1528 Q1862.7247,436.1187 1862.8132,436.1187 Q1862.9563,436.1187 1863.0653,436.2345 Q1863.1811,436.3435 1863.1811,436.4934 Q1863.1811,436.6433 1863.0313,436.8205 Q1862.8132,437.0726 1862.4658,437.2156 Q1861.9957,437.4132 1861.4302,437.4132 Q1860.7693,437.4132 1860.2447,437.1407 Q1859.8154,436.9227 1859.5157,436.4594 Q1859.2159,435.9893 1859.2159,435.4306 L1859.2159,434.9264 Q1859.2159,434.3473 1859.4816,433.8499 Q1859.7541,433.3458 1860.231,433.08 Q1860.708,432.8075 1861.2462,432.8075 Q1861.5664,432.8075 1861.8458,432.8825 Q1862.1319,432.9506 1862.3704,433.1073 Z " fill="#000000"/><text fill="#000000" font-family="'Consolas'" font-size="6.1046" font-weight="bold" lengthAdjust="spacing" textLength="26.8507" x="1870.1033" y="436.909">Creature</text><line style="stroke:#181818;stroke-width:0.218;" x1="1745.0437" x2="2007.8422" y1="441.8827" y2="441.8827"/><text fill="#000000" font-family="'Consolas'" font-size="6.1046" lengthAdjust="spacing" textLength="50.3451" x="1747.224" y="449.2038">#etat : boolean</text><text fill="#000000" font-family="'Consolas'" font-size="6.1046" lengthAdjust="spacing" textLength="40.2761" x="1747.224" y="456.3517">#ptVie : int</text><text fill="#000000" font-family="'Consolas'" font-size="6.1046" lengthAdjust="spacing" textLength="43.6324" x="1747.224" y="463.4996">#degAtt : int</text><text fill="#000000" font-family="'Consolas'" font-size="6.1046" lengthAdjust="spacing" textLength="40.2761" x="1747.224" y="470.6474">#ptPar : int</text><text fill="#000000" font-family="'Consolas'" font-size="6.1046" lengthAdjust="spacing" textLength="46.9887" x="1747.224" y="477.7953">#pageAtt : int</text><text fill="#000000" font-family="'Consolas'" font-size="6.1046" lengthAdjust="spacing" textLength="46.9887" x="1747.224" y="484.9432">#pagePar : int</text><text fill="#000000" font-family="'Consolas'" font-size="6.1046" lengthAdjust="spacing" textLength="57.0577" x="1747.224" y="492.091">#distAttMax : int</text><text fill="#000000" font-family="'Consolas'" font-size="6.1046" lengthAdjust="spacing" textLength="70.4831" x="1747.224" y="499.2389">#distanceVision : int</text><line style="stroke:#181818;stroke-width:0.218;" x1="1745.0437" x2="2007.8422" y1="502.5539" y2="502.5539"/><text fill="#000000" font-family="'Consolas'" font-size="6.1046" lengthAdjust="spacing" textLength="60.4141" x="1747.224" y="509.8751">+getPtVie( ) : int</text><text fill="#000000" font-family="'Consolas'" font-size="6.1046" lengthAdjust="spacing" textLength="90.6211" x="1747.224" y="517.023">+setPtVie(int ptVie) : void</text><text fill="#000000" font-family="'Consolas'" font-size="6.1046" lengthAdjust="spacing" textLength="63.7704" x="1747.224" y="524.1709">+getDegAtt( ) : int</text><text fill="#000000" font-family="'Consolas'" font-size="6.1046" lengthAdjust="spacing" textLength="97.3338" x="1747.224" y="531.3187">+setDegAtt(int degAtt) : void</text><text fill="#000000" font-family="'Consolas'" font-size="6.1046" lengthAdjust="spacing" textLength="60.4141" x="1747.224" y="538.4666">+getPtPar( ) : int</text><text fill="#000000" font-family="'Consolas'" font-size="6.1046" lengthAdjust="spacing" textLength="90.6211" x="1747.224" y="545.6145">+setPtPar(int ptPar) : void</text><text fill="#000000" font-family="'Consolas'" font-size="6.1046" lengthAdjust="spacing" textLength="67.1268" x="1747.224" y="552.7623">+getPageAtt( ) : int</text><text fill="#000000" font-family="'Consolas'" font-size="6.1046" lengthAdjust="spacing" textLength="104.0465" x="1747.224" y="559.9102">+setPageAtt(int pageAtt) : void</text><text fill="#000000" font-family="'Consolas'" font-size="6.1046" lengthAdjust="spacing" textLength="67.1268" x="1747.224" y="567.0581">+getPagePar( ) : int</text><text fill="#000000" font-family="'Consolas'" font-size="6.1046" lengthAdjust="spacing" textLength="104.0465" x="1747.224" y="574.2059">+setPagePar(int pagePar) : void</text><text fill="#000000" font-family="'Consolas'" font-size="6.1046" lengthAdjust="spacing" textLength="90.6211" x="1747.224" y="581.3538">+getDistanceVision( ) : int</text><text fill="#000000" font-family="'Consolas'" font-size="6.1046" lengthAdjust="spacing" textLength="151.0352" x="1747.224" y="588.5017">+setDistanceVision(int distanceVision) : void</text><text fill="#000000" font-family="'Consolas'" font-size="6.1046" lengthAdjust="spacing" textLength="77.1958" x="1747.224" y="595.6495">+getDistAttMax( ) : int</text><text fill="#000000" font-family="'Consolas'" font-size="6.1046" lengthAdjust="spacing" textLength="124.1845" x="1747.224" y="602.7974">+setDistAttMax(int distAttMax) : void</text><text fill="#000000" font-family="'Consolas'" font-size="6.1046" lengthAdjust="spacing" textLength="67.1268" x="1747.224" y="609.9453">+isEtat( ) : boolean</text><text fill="#000000" font-family="'Consolas'" font-size="6.1046" lengthAdjust="spacing" textLength="97.3338" x="1747.224" y="617.0931">+setEtat(boolean etat) : void</text><text fill="#000000" font-family="'Consolas'" font-size="6.1046" lengthAdjust="spacing" textLength="107.4028" x="1747.224" y="624.241">+deplacer(int dx, int dy) : void</text><text fill="#000000" font-family="'Consolas'" font-size="6.1046" lengthAdjust="spacing" textLength="258.438" x="1747.224" y="631.3889">+deplacementAleatoire(Set&lt;Point2D&gt; positionsOccupees, int tailleMonde) : void</text><text fill="#000000" font-family="'Consolas'" font-size="6.1046" lengthAdjust="spacing" textLength="228.231" x="1747.224" y="638.5367">+mourir(Set&lt;Point2D&gt; positionWorld, List&lt;Creature&gt; creatures) : void</text><text fill="#000000" font-family="'Consolas'" font-size="6.1046" lengthAdjust="spacing" textLength="60.4141" x="1747.224" y="645.6846">+affiche( ) : void</text><text fill="#000000" font-family="'Consolas'" font-size="6.1046" lengthAdjust="spacing" textLength="90.6211" x="1747.224" y="652.8325">+deplaceAleatoire( ) : void</text><text fill="#000000" font-family="'Consolas'" font-size="6.1046" lengthAdjust="spacing" textLength="140.9662" x="1747.224" y="659.9803">+mourir(Set&lt;Point2D&gt; positionWorld) : void</text></g><!--class ElementDeJeu--><g class="entity" data-entity="ElementDeJeu" data-source-line="74" data-uid="ent0010" id="entity_ElementDeJeu"><rect fill="#F1F1F1" height="63.8173" rx="1.0901" ry="1.0901" style="stroke:#181818;stroke-width:0.218;" width="95.8536" x="1296.1376" y="689.555"/><ellipse cx="1322.0732" cy="696.5317" fill="#A9DCDF" rx="4.7965" ry="4.7965" style="stroke:#181818;stroke-width:0.436;"/><path d="M1323.027,697.3016 L1321.2215,697.3016 L1321.0376,697.7513 L1321.2215,697.7513 Q1321.4872,697.7513 1321.6031,697.8535 Q1321.7189,697.9557 1321.7189,698.126 Q1321.7189,698.2895 1321.6031,698.3917 Q1321.4872,698.4939 1321.2215,698.4939 L1320.22,698.4939 Q1319.9543,698.4939 1319.8453,698.3917 Q1319.7294,698.2895 1319.7294,698.1192 Q1319.7294,697.9557 1319.8521,697.8535 Q1319.9679,697.7445 1320.2404,697.7513 L1321.4055,694.8489 L1320.9217,694.8489 Q1320.656,694.8489 1320.5402,694.7467 Q1320.4244,694.6445 1320.4244,694.4741 Q1320.4244,694.3106 1320.5402,694.2084 Q1320.656,694.1062 1320.9217,694.1062 L1322.5228,694.1062 L1324.0013,697.7513 Q1324.2602,697.7513 1324.342,697.8126 Q1324.5123,697.9284 1324.5123,698.126 Q1324.5123,698.2895 1324.3965,698.3917 Q1324.2875,698.4939 1324.0217,698.4939 L1323.0202,698.4939 Q1322.7545,698.4939 1322.6387,698.3917 Q1322.5228,698.2895 1322.5228,698.1192 Q1322.5228,697.9557 1322.6387,697.8535 Q1322.7545,697.7513 1323.0202,697.7513 L1323.2042,697.7513 L1323.027,697.3016 Z M1322.7136,696.559 L1322.1209,695.0873 L1321.5213,696.559 L1322.7136,696.559 Z " fill="#000000"/><text fill="#000000" font-family="'Consolas'" font-size="6.1046" font-style="italic" font-weight="bold" lengthAdjust="spacing" textLength="40.2761" x="1331.0121" y="698.5348">ElementDeJeu</text><line style="stroke:#181818;stroke-width:0.218;" x1="1296.5736" x2="1391.5552" y1="703.5084" y2="703.5084"/><text fill="#000000" font-family="'Consolas'" font-size="6.1046" lengthAdjust="spacing" textLength="43.6324" x="1298.7538" y="710.8296">#nom : String</text><text fill="#000000" font-family="'Consolas'" font-size="6.1046" lengthAdjust="spacing" textLength="46.9887" x="1298.7538" y="717.9774">#pos : Point2D</text><line style="stroke:#181818;stroke-width:0.218;" x1="1296.5736" x2="1391.5552" y1="721.2925" y2="721.2925"/><text fill="#000000" font-family="'Consolas'" font-size="6.1046" lengthAdjust="spacing" textLength="63.7704" x="1298.7538" y="728.6137">+getNom( ) : String</text><text fill="#000000" font-family="'Consolas'" font-size="6.1046" lengthAdjust="spacing" textLength="87.2648" x="1298.7538" y="735.7615">+setNom(String nom) : void</text><text fill="#000000" font-family="'Consolas'" font-size="6.1046" lengthAdjust="spacing" textLength="67.1268" x="1298.7538" y="742.9094">+getPos( ) : Point2D</text><text fill="#000000" font-family="'Consolas'" font-size="6.1046" lengthAdjust="spacing" textLength="90.6211" x="1298.7538" y="750.0573">+setPos(Point2D pos) : void</text></g><!--class Deplacable--><g class="entity" data-entity="Deplacable" data-source-line="75" data-uid="ent0012" id="entity_Deplacable"><rect fill="#F1F1F1" height="20.9301" rx="1.0901" ry="1.0901" style="stroke:#181818;stroke-width:0.218;" width="47.5168" x="1507.4004" y="710.9211"/><ellipse cx="1513.941" cy="717.8978" fill="#B4A7E5" rx="4.7965" ry="4.7965" style="stroke:#181818;stroke-width:0.436;"/><path d="M1514.3566,716.433 L1514.3566,719.3354 L1515.1061,719.3354 Q1515.3718,719.3354 1515.4876,719.4376 Q1515.6034,719.5398 1515.6034,719.7101 Q1515.6034,719.8736 1515.4876,719.9758 Q1515.3718,720.078 1515.1061,720.078 L1512.8645,720.078 Q1512.5988,720.078 1512.483,719.9758 Q1512.3672,719.8736 1512.3672,719.7033 Q1512.3672,719.5398 1512.483,719.4376 Q1512.5988,719.3354 1512.8645,719.3354 L1513.614,719.3354 L1513.614,716.433 L1512.8645,716.433 Q1512.5988,716.433 1512.483,716.3308 Q1512.3672,716.2286 1512.3672,716.0583 Q1512.3672,715.8947 1512.483,715.7925 Q1512.5988,715.6904 1512.8645,715.6904 L1515.1061,715.6904 Q1515.3718,715.6904 1515.4876,715.7925 Q1515.6034,715.8947 1515.6034,716.0583 Q1515.6034,716.2286 1515.4876,716.3308 Q1515.3718,716.433 1515.1061,716.433 L1514.3566,716.433 Z " fill="#000000"/><text fill="#000000" font-family="'Consolas'" font-size="6.1046" font-style="italic" font-weight="bold" lengthAdjust="spacing" textLength="33.5634" x="1520.0456" y="719.9009">Deplacable</text><line style="stroke:#181818;stroke-width:0.218;" x1="1507.8364" x2="1554.4811" y1="724.8745" y2="724.8745"/><line style="stroke:#181818;stroke-width:0.218;" x1="1507.8364" x2="1554.4811" y1="728.3628" y2="728.3628"/></g><!--class Epee--><g class="entity" data-entity="Epee" data-source-line="88" data-uid="ent0014" id="entity_Epee"><rect fill="#F1F1F1" height="70.9651" rx="1.0901" ry="1.0901" style="stroke:#181818;stroke-width:0.218;" width="162.9804" x="612.4223" y="51.4062"/><ellipse cx="685.3466" cy="58.3829" fill="#ADD1B2" rx="4.7965" ry="4.7965" style="stroke:#181818;stroke-width:0.436;"/><path d="M686.5526,56.5842 Q686.6207,56.4888 686.7024,56.4412 Q686.7842,56.3935 686.8796,56.3935 Q687.0431,56.3935 687.1453,56.5093 Q687.2475,56.6183 687.2475,56.884 L687.2475,57.5176 Q687.2475,57.7834 687.1453,57.8992 Q687.0431,58.015 686.8796,58.015 Q686.7297,58.015 686.6411,57.9264 Q686.5526,57.8447 686.5049,57.6198 Q686.4844,57.4631 686.4027,57.3814 Q686.2596,57.2179 685.9939,57.1225 Q685.7282,57.0271 685.4556,57.0271 Q685.1218,57.0271 684.8424,57.1702 Q684.5699,57.3132 684.3519,57.6403 Q684.1407,57.9673 684.1407,58.417 L684.1407,58.8939 Q684.1407,59.4321 684.529,59.7932 Q684.9174,60.1475 685.6123,60.1475 Q686.0211,60.1475 686.3073,60.0385 Q686.4776,59.9704 686.6616,59.7796 Q686.7774,59.6638 686.8387,59.6297 Q686.9068,59.5957 686.9954,59.5957 Q687.1385,59.5957 687.2475,59.7115 Q687.3633,59.8205 687.3633,59.9704 Q687.3633,60.1203 687.2134,60.2974 Q686.9954,60.5495 686.6479,60.6926 Q686.1778,60.8902 685.6123,60.8902 Q684.9515,60.8902 684.4268,60.6176 Q683.9976,60.3996 683.6978,59.9363 Q683.3981,59.4662 683.3981,58.9075 L683.3981,58.4033 Q683.3981,57.8242 683.6638,57.3269 Q683.9363,56.8227 684.4132,56.557 Q684.8901,56.2845 685.4284,56.2845 Q685.7486,56.2845 686.0279,56.3594 Q686.3141,56.4275 686.5526,56.5842 Z " fill="#000000"/><text fill="#000000" font-family="'Consolas'" font-size="6.1046" font-weight="bold" lengthAdjust="spacing" textLength="13.4254" x="694.2855" y="60.386">Epee</text><line style="stroke:#181818;stroke-width:0.218;" x1="612.8583" x2="774.9666" y1="65.3596" y2="65.3596"/><text fill="#000000" font-family="'Consolas'" font-size="6.1046" lengthAdjust="spacing" textLength="36.9197" x="615.0385" y="72.6808">-pAtt : int</text><text fill="#000000" font-family="'Consolas'" font-size="6.1046" lengthAdjust="spacing" textLength="43.6324" x="615.0385" y="79.8286">-effet : Etat</text><line style="stroke:#181818;stroke-width:0.218;" x1="612.8583" x2="774.9666" y1="83.1437" y2="83.1437"/><text fill="#000000" font-family="'Consolas'" font-size="6.1046" lengthAdjust="spacing" textLength="63.7704" x="615.0385" y="90.4649">+getEffet( ) : Etat</text><text fill="#000000" font-family="'Consolas'" font-size="6.1046" lengthAdjust="spacing" textLength="93.9775" x="615.0385" y="97.6127">+setEffet(Etat effet) : void</text><text fill="#000000" font-family="'Consolas'" font-size="6.1046" lengthAdjust="spacing" textLength="57.0577" x="615.0385" y="104.7606">+getpAtt( ) : int</text><text fill="#000000" font-family="'Consolas'" font-size="6.1046" lengthAdjust="spacing" textLength="83.9085" x="615.0385" y="111.9085">+setpAtt(int pAtt) : void</text><text fill="#000000" font-family="'Consolas'" font-size="6.1046" lengthAdjust="spacing" textLength="157.7479" x="615.0385" y="119.0563">+saveToDB(Connection conn, int idPartie) : void</text></g><!--class Objet--><g class="entity" data-entity="Objet" data-source-line="98" data-uid="ent0015" id="entity_Objet"><rect fill="#F1F1F1" height="63.8173" rx="1.0901" ry="1.0901" style="stroke:#181818;stroke-width:0.218;" width="146.1987" x="899.9926" y="259.3987"/><ellipse cx="962.8479" cy="266.3754" fill="#ADD1B2" rx="4.7965" ry="4.7965" style="stroke:#181818;stroke-width:0.436;"/><path d="M964.0538,264.5767 Q964.122,264.4813 964.2037,264.4336 Q964.2855,264.3859 964.3809,264.3859 Q964.5444,264.3859 964.6466,264.5018 Q964.7488,264.6108 964.7488,264.8765 L964.7488,265.5101 Q964.7488,265.7758 964.6466,265.8916 Q964.5444,266.0075 964.3809,266.0075 Q964.231,266.0075 964.1424,265.9189 Q964.0538,265.8371 964.0061,265.6123 Q963.9857,265.4556 963.9039,265.3738 Q963.7609,265.2103 963.4952,265.1149 Q963.2294,265.0196 962.9569,265.0196 Q962.6231,265.0196 962.3437,265.1626 Q962.0712,265.3057 961.8532,265.6327 Q961.642,265.9598 961.642,266.4094 L961.642,266.8864 Q961.642,267.4246 962.0303,267.7857 Q962.4187,268.14 963.1136,268.14 Q963.5224,268.14 963.8086,268.031 Q963.9789,267.9628 964.1628,267.7721 Q964.2787,267.6563 964.34,267.6222 Q964.4081,267.5881 964.4967,267.5881 Q964.6398,267.5881 964.7488,267.7039 Q964.8646,267.813 964.8646,267.9628 Q964.8646,268.1127 964.7147,268.2899 Q964.4967,268.542 964.1492,268.685 Q963.6791,268.8826 963.1136,268.8826 Q962.4527,268.8826 961.9281,268.6101 Q961.4989,268.3921 961.1991,267.9288 Q960.8993,267.4587 960.8993,266.9 L960.8993,266.3958 Q960.8993,265.8167 961.1651,265.3193 Q961.4376,264.8152 961.9145,264.5495 Q962.3914,264.2769 962.9297,264.2769 Q963.2499,264.2769 963.5292,264.3519 Q963.8154,264.42 964.0538,264.5767 Z " fill="#000000"/><text fill="#000000" font-family="'Consolas'" font-size="6.1046" font-weight="bold" lengthAdjust="spacing" textLength="16.7817" x="971.7868" y="268.3785">Objet</text><line style="stroke:#181818;stroke-width:0.218;" x1="900.4286" x2="1045.7553" y1="273.3521" y2="273.3521"/><text fill="#000000" font-family="'Consolas'" font-size="6.1046" lengthAdjust="spacing" textLength="70.4831" x="902.6088" y="280.6732">-description : String</text><line style="stroke:#181818;stroke-width:0.218;" x1="900.4286" x2="1045.7553" y1="283.9883" y2="283.9883"/><text fill="#000000" font-family="'Consolas'" font-size="6.1046" lengthAdjust="spacing" textLength="90.6211" x="902.6088" y="291.3095">+getDescription( ) : String</text><text fill="#000000" font-family="'Consolas'" font-size="6.1046" lengthAdjust="spacing" textLength="140.9662" x="902.6088" y="298.4573">+setDescription(String description) : void</text><text fill="#000000" font-family="'Consolas'" font-size="6.1046" lengthAdjust="spacing" textLength="83.9085" x="902.6088" y="305.6052">+getPosition( ) : Point2D</text><text fill="#000000" font-family="'Consolas'" font-size="6.1046" lengthAdjust="spacing" textLength="124.1845" x="902.6088" y="312.7531">+setPosition(Point2D position) : void</text><text fill="#000000" font-family="'Consolas'" font-size="6.1046" lengthAdjust="spacing" textLength="60.4141" x="902.6088" y="319.9009">+affiche( ) : void</text></g><!--class Erreurs--><g class="entity" data-entity="Erreurs" data-source-line="99" data-uid="ent0017" id="entity_Erreurs"><rect fill="#F1F1F1" height="49.5215" rx="1.0901" ry="1.0901" style="stroke:#181818;stroke-width:0.218;" width="142.8424" x="124.4903" y="62.0893"/><ellipse cx="182.3111" cy="69.066" fill="#ADD1B2" rx="4.7965" ry="4.7965" style="stroke:#181818;stroke-width:0.436;"/><path d="M183.517,67.2673 Q183.5851,67.1719 183.6669,67.1242 Q183.7487,67.0765 183.844,67.0765 Q184.0076,67.0765 184.1098,67.1923 Q184.212,67.3014 184.212,67.5671 L184.212,68.2007 Q184.212,68.4664 184.1098,68.5822 Q184.0076,68.6981 183.844,68.6981 Q183.6941,68.6981 183.6056,68.6095 Q183.517,68.5277 183.4693,68.3029 Q183.4489,68.1462 183.3671,68.0644 Q183.224,67.9009 182.9583,67.8055 Q182.6926,67.7101 182.4201,67.7101 Q182.0862,67.7101 181.8069,67.8532 Q181.5344,67.9963 181.3164,68.3233 Q181.1051,68.6504 181.1051,69.1 L181.1051,69.5769 Q181.1051,70.1152 181.4935,70.4763 Q181.8818,70.8306 182.5768,70.8306 Q182.9856,70.8306 183.2717,70.7216 Q183.4421,70.6534 183.626,70.4627 Q183.7418,70.3468 183.8032,70.3128 Q183.8713,70.2787 183.9599,70.2787 Q184.1029,70.2787 184.212,70.3945 Q184.3278,70.5035 184.3278,70.6534 Q184.3278,70.8033 184.1779,70.9805 Q183.9599,71.2325 183.6124,71.3756 Q183.1423,71.5732 182.5768,71.5732 Q181.9159,71.5732 181.3913,71.3007 Q180.9621,71.0827 180.6623,70.6194 Q180.3625,70.1493 180.3625,69.5906 L180.3625,69.0864 Q180.3625,68.5073 180.6282,68.0099 Q180.9007,67.5057 181.3777,67.24 Q181.8546,66.9675 182.3928,66.9675 Q182.7131,66.9675 182.9924,67.0424 Q183.2785,67.1106 183.517,67.2673 Z " fill="#000000"/><text fill="#000000" font-family="'Consolas'" font-size="6.1046" font-weight="bold" lengthAdjust="spacing" textLength="23.4944" x="191.25" y="71.069">Erreurs</text><line style="stroke:#181818;stroke-width:0.218;" x1="124.9263" x2="266.8966" y1="76.0426" y2="76.0426"/><line style="stroke:#181818;stroke-width:0.218;" x1="124.9263" x2="266.8966" y1="79.531" y2="79.531"/><text fill="#000000" font-family="'Consolas'" font-size="6.1046" lengthAdjust="spacing" textLength="117.4718" x="127.1065" y="86.8522">+demonstrationErreursJava( ) : void</text><text fill="#000000" font-family="'Consolas'" font-size="6.1046" lengthAdjust="spacing" textLength="117.4718" x="127.1065" y="94">-afficherErreur(Exception e) : void</text><text fill="#000000" font-family="'Consolas'" font-size="6.1046" lengthAdjust="spacing" textLength="127.5408" x="127.1065" y="101.1479">-methodeRecursive(int compteur) : void</text><text fill="#000000" font-family="'Consolas'" font-size="6.1046" lengthAdjust="spacing" textLength="137.6099" x="127.1065" y="108.2958">-GenerationM(int id, Point2D p) : Monstre</text></g><!--class Guerrier--><g class="entity" data-entity="Guerrier" data-source-line="106" data-uid="ent0018" id="entity_Guerrier"><rect fill="#F1F1F1" height="49.5215" rx="1.0901" ry="1.0901" style="stroke:#181818;stroke-width:0.218;" width="280.4522" x="1170.7752" y="62.0893"/><ellipse cx="1295.7228" cy="69.066" fill="#ADD1B2" rx="4.7965" ry="4.7965" style="stroke:#181818;stroke-width:0.436;"/><path d="M1296.9287,67.2673 Q1296.9969,67.1719 1297.0786,67.1242 Q1297.1604,67.0765 1297.2558,67.0765 Q1297.4193,67.0765 1297.5215,67.1923 Q1297.6237,67.3014 1297.6237,67.5671 L1297.6237,68.2007 Q1297.6237,68.4664 1297.5215,68.5822 Q1297.4193,68.6981 1297.2558,68.6981 Q1297.1059,68.6981 1297.0173,68.6095 Q1296.9287,68.5277 1296.8811,68.3029 Q1296.8606,68.1462 1296.7789,68.0644 Q1296.6358,67.9009 1296.3701,67.8055 Q1296.1044,67.7101 1295.8318,67.7101 Q1295.498,67.7101 1295.2186,67.8532 Q1294.9461,67.9963 1294.7281,68.3233 Q1294.5169,68.6504 1294.5169,69.1 L1294.5169,69.5769 Q1294.5169,70.1152 1294.9052,70.4763 Q1295.2936,70.8306 1295.9885,70.8306 Q1296.3973,70.8306 1296.6835,70.7216 Q1296.8538,70.6534 1297.0378,70.4627 Q1297.1536,70.3468 1297.2149,70.3128 Q1297.283,70.2787 1297.3716,70.2787 Q1297.5147,70.2787 1297.6237,70.3945 Q1297.7395,70.5035 1297.7395,70.6534 Q1297.7395,70.8033 1297.5896,70.9805 Q1297.3716,71.2325 1297.0241,71.3756 Q1296.554,71.5732 1295.9885,71.5732 Q1295.3276,71.5732 1294.803,71.3007 Q1294.3738,71.0827 1294.074,70.6194 Q1293.7742,70.1493 1293.7742,69.5906 L1293.7742,69.0864 Q1293.7742,68.5073 1294.04,68.0099 Q1294.3125,67.5057 1294.7894,67.24 Q1295.2663,66.9675 1295.8046,66.9675 Q1296.1248,66.9675 1296.4041,67.0424 Q1296.6903,67.1106 1296.9287,67.2673 Z " fill="#000000"/><text fill="#000000" font-family="'Consolas'" font-size="6.1046" font-weight="bold" lengthAdjust="spacing" textLength="26.8507" x="1304.6617" y="71.069">Guerrier</text><line style="stroke:#181818;stroke-width:0.218;" x1="1171.2113" x2="1450.7914" y1="76.0426" y2="76.0426"/><line style="stroke:#181818;stroke-width:0.218;" x1="1171.2113" x2="1450.7914" y1="79.531" y2="79.531"/><text fill="#000000" font-family="'Consolas'" font-size="6.1046" lengthAdjust="spacing" textLength="275.2197" x="1173.3915" y="86.8522">+combattre(Creature c, Set&lt;Point2D&gt; positionWorld,List&lt;Creature&gt; creatures) : void</text><text fill="#000000" font-family="'Consolas'" font-size="6.1046" lengthAdjust="spacing" textLength="73.8394" x="1173.3915" y="94">+jeuDeAtt( ) : boolean</text><text fill="#000000" font-family="'Consolas'" font-size="6.1046" lengthAdjust="spacing" textLength="100.6901" x="1173.3915" y="101.1479">+jeuDeDe(Creature c) : boolean</text><text fill="#000000" font-family="'Consolas'" font-size="6.1046" lengthAdjust="spacing" textLength="184.5986" x="1173.3915" y="108.2958">+saveGuerrier(Connection conn, int idPersonnage) : void</text></g><!--class Joueur--><g class="entity" data-entity="Joueur" data-source-line="115" data-uid="ent0021" id="entity_Joueur"><rect fill="#F1F1F1" height="128.1481" rx="1.0901" ry="1.0901" style="stroke:#181818;stroke-width:0.218;" width="407.9931" x="1329.7129" y="227.1315"/><ellipse cx="1521.7872" cy="234.1082" fill="#ADD1B2" rx="4.7965" ry="4.7965" style="stroke:#181818;stroke-width:0.436;"/><path d="M1522.9931,232.3095 Q1523.0613,232.2141 1523.143,232.1665 Q1523.2248,232.1188 1523.3202,232.1188 Q1523.4837,232.1188 1523.5859,232.2346 Q1523.6881,232.3436 1523.6881,232.6093 L1523.6881,233.2429 Q1523.6881,233.5086 1523.5859,233.6245 Q1523.4837,233.7403 1523.3202,233.7403 Q1523.1703,233.7403 1523.0817,233.6517 Q1522.9931,233.57 1522.9455,233.3451 Q1522.925,233.1884 1522.8433,233.1067 Q1522.7002,232.9432 1522.4345,232.8478 Q1522.1688,232.7524 1521.8962,232.7524 Q1521.5624,232.7524 1521.283,232.8955 Q1521.0105,233.0385 1520.7925,233.3656 Q1520.5813,233.6926 1520.5813,234.1423 L1520.5813,234.6192 Q1520.5813,235.1574 1520.9696,235.5185 Q1521.358,235.8728 1522.0529,235.8728 Q1522.4617,235.8728 1522.7479,235.7638 Q1522.9182,235.6957 1523.1022,235.5049 Q1523.218,235.3891 1523.2793,235.355 Q1523.3474,235.3209 1523.436,235.3209 Q1523.5791,235.3209 1523.6881,235.4368 Q1523.8039,235.5458 1523.8039,235.6957 Q1523.8039,235.8456 1523.654,236.0227 Q1523.436,236.2748 1523.0885,236.4179 Q1522.6184,236.6155 1522.0529,236.6155 Q1521.3921,236.6155 1520.8674,236.3429 Q1520.4382,236.1249 1520.1384,235.6616 Q1519.8387,235.1915 1519.8387,234.6328 L1519.8387,234.1286 Q1519.8387,233.5495 1520.1044,233.0522 Q1520.3769,232.548 1520.8538,232.2823 Q1521.3307,232.0097 1521.869,232.0097 Q1522.1892,232.0097 1522.4685,232.0847 Q1522.7547,232.1528 1522.9931,232.3095 Z " fill="#000000"/><text fill="#000000" font-family="'Consolas'" font-size="6.1046" font-weight="bold" lengthAdjust="spacing" textLength="20.138" x="1530.7261" y="236.1113">Joueur</text><line style="stroke:#181818;stroke-width:0.218;" x1="1330.1489" x2="1737.2699" y1="241.0849" y2="241.0849"/><text fill="#000000" font-family="'Consolas'" font-size="6.1046" lengthAdjust="spacing" textLength="60.4141" x="1332.3291" y="248.4061">+hero : Personnage</text><text fill="#000000" font-family="'Consolas'" font-size="6.1046" lengthAdjust="spacing" textLength="63.7704" x="1332.3291" y="255.5539">-nomJoueur : String</text><text fill="#000000" font-family="'Consolas'" font-size="6.1046" lengthAdjust="spacing" textLength="87.2648" x="1332.3291" y="262.7018">-actionEffectuee : boolean</text><line style="stroke:#181818;stroke-width:0.218;" x1="1330.1489" x2="1737.2699" y1="266.0168" y2="266.0168"/><text fill="#000000" font-family="'Consolas'" font-size="6.1046" lengthAdjust="spacing" textLength="83.9085" x="1332.3291" y="273.338">+getNomJoueur( ) : String</text><text fill="#000000" font-family="'Consolas'" font-size="6.1046" lengthAdjust="spacing" textLength="127.5408" x="1332.3291" y="280.4859">+setNomJoueur(String nomJoueur) : void</text><text fill="#000000" font-family="'Consolas'" font-size="6.1046" lengthAdjust="spacing" textLength="80.5521" x="1332.3291" y="287.6338">+getHero( ) : Personnage</text><text fill="#000000" font-family="'Consolas'" font-size="6.1046" lengthAdjust="spacing" textLength="107.4028" x="1332.3291" y="294.7816">+setHero(Personnage hero) : void</text><text fill="#000000" font-family="'Consolas'" font-size="6.1046" lengthAdjust="spacing" textLength="359.1282" x="1332.3291" y="301.9295">+analyzer(Set&lt;Point2D&gt; positionWorld, List&lt;Creature&gt; creatures, List&lt;Objet&gt; objets, int tailleMonde) : void</text><text fill="#000000" font-family="'Consolas'" font-size="6.1046" lengthAdjust="spacing" textLength="402.7606" x="1332.3291" y="309.0774">+analyzer(Set&lt;Point2D&gt; positionWorld, List&lt;Creature&gt; creatures, List&lt;Objet&gt; objets, World world, Connection conn) : void</text><text fill="#000000" font-family="'Consolas'" font-size="6.1046" lengthAdjust="spacing" textLength="231.5873" x="1332.3291" y="316.2252">+deplacerController(List&lt;Creature&gt; creatures, int tailleMonde) : void</text><text fill="#000000" font-family="'Consolas'" font-size="6.1046" lengthAdjust="spacing" textLength="375.9099" x="1332.3291" y="323.3731">+attaqueController(List&lt;Creature&gt; ciblesAdjacentes, Set&lt;Point2D&gt; positionWorld, List&lt;Creature&gt; creatures) : void</text><text fill="#000000" font-family="'Consolas'" font-size="6.1046" lengthAdjust="spacing" textLength="288.6451" x="1332.3291" y="330.521">+interactionController(Objet o, Set&lt;Point2D&gt; positionWorld, List&lt;Objet&gt; objets) : void</text><text fill="#000000" font-family="'Consolas'" font-size="6.1046" lengthAdjust="spacing" textLength="114.1155" x="1332.3291" y="337.6688">+utiliserObjetController( ) : void</text><text fill="#000000" font-family="'Consolas'" font-size="6.1046" lengthAdjust="spacing" textLength="171.1732" x="1332.3291" y="344.8167">+saveToDB(Connection conn, int idPersonnage) : void</text><text fill="#000000" font-family="'Consolas'" font-size="6.1046" lengthAdjust="spacing" textLength="208.093" x="1332.3291" y="351.9646">+chargerPartieDepuisDebut(Connection conn, World world) : void</text></g><!--class Lapin--><g class="entity" data-entity="Lapin" data-source-line="134" data-uid="ent0023" id="entity_Lapin"><rect fill="#F1F1F1" height="28.0779" rx="1.0901" ry="1.0901" style="stroke:#181818;stroke-width:0.218;" width="162.9804" x="2438.57" y="72.9903"/><ellipse cx="2509.8162" cy="79.967" fill="#ADD1B2" rx="4.7965" ry="4.7965" style="stroke:#181818;stroke-width:0.436;"/><path d="M2511.0221,78.1684 Q2511.0902,78.073 2511.172,78.0253 Q2511.2538,77.9776 2511.3491,77.9776 Q2511.5127,77.9776 2511.6149,78.0934 Q2511.7171,78.2024 2511.7171,78.4681 L2511.7171,79.1018 Q2511.7171,79.3675 2511.6149,79.4833 Q2511.5127,79.5991 2511.3491,79.5991 Q2511.1993,79.5991 2511.1107,79.5106 Q2511.0221,79.4288 2510.9744,79.204 Q2510.954,79.0473 2510.8722,78.9655 Q2510.7291,78.802 2510.4634,78.7066 Q2510.1977,78.6112 2509.9252,78.6112 Q2509.5913,78.6112 2509.312,78.7543 Q2509.0395,78.8974 2508.8215,79.2244 Q2508.6102,79.5514 2508.6102,80.0011 L2508.6102,80.478 Q2508.6102,81.0163 2508.9986,81.3774 Q2509.3869,81.7316 2510.0819,81.7316 Q2510.4907,81.7316 2510.7768,81.6226 Q2510.9472,81.5545 2511.1311,81.3637 Q2511.2469,81.2479 2511.3083,81.2138 Q2511.3764,81.1798 2511.465,81.1798 Q2511.608,81.1798 2511.7171,81.2956 Q2511.8329,81.4046 2511.8329,81.5545 Q2511.8329,81.7044 2511.683,81.8815 Q2511.465,82.1336 2511.1175,82.2767 Q2510.6474,82.4743 2510.0819,82.4743 Q2509.421,82.4743 2508.8964,82.2018 Q2508.4672,81.9837 2508.1674,81.5204 Q2507.8676,81.0503 2507.8676,80.4916 L2507.8676,79.9875 Q2507.8676,79.4084 2508.1333,78.911 Q2508.4059,78.4068 2508.8828,78.1411 Q2509.3597,77.8686 2509.8979,77.8686 Q2510.2182,77.8686 2510.4975,77.9435 Q2510.7836,78.0117 2511.0221,78.1684 Z " fill="#000000"/><text fill="#000000" font-family="'Consolas'" font-size="6.1046" font-weight="bold" lengthAdjust="spacing" textLength="16.7817" x="2518.7551" y="81.9701">Lapin</text><line style="stroke:#181818;stroke-width:0.218;" x1="2439.006" x2="2601.1144" y1="86.9437" y2="86.9437"/><line style="stroke:#181818;stroke-width:0.218;" x1="2439.006" x2="2601.1144" y1="90.4321" y2="90.4321"/><text fill="#000000" font-family="'Consolas'" font-size="6.1046" lengthAdjust="spacing" textLength="157.7479" x="2441.1863" y="97.7532">+saveToDB(Connection conn, int idPartie) : void</text></g><!--class Monstre--><g class="entity" data-entity="Monstre" data-source-line="138" data-uid="ent0024" id="entity_Monstre"><rect fill="#F1F1F1" height="56.6694" rx="1.0901" ry="1.0901" style="stroke:#181818;stroke-width:0.218;" width="364.3607" x="2132.9039" y="262.887"/><ellipse cx="2301.4839" cy="269.8637" fill="#ADD1B2" rx="4.7965" ry="4.7965" style="stroke:#181818;stroke-width:0.436;"/><path d="M2302.6898,268.065 Q2302.758,267.9697 2302.8397,267.922 Q2302.9215,267.8743 2303.0169,267.8743 Q2303.1804,267.8743 2303.2826,267.9901 Q2303.3848,268.0991 2303.3848,268.3648 L2303.3848,268.9985 Q2303.3848,269.2642 2303.2826,269.38 Q2303.1804,269.4958 2303.0169,269.4958 Q2302.867,269.4958 2302.7784,269.4072 Q2302.6898,269.3255 2302.6421,269.1006 Q2302.6217,268.9439 2302.5399,268.8622 Q2302.3969,268.6987 2302.1312,268.6033 Q2301.8654,268.5079 2301.5929,268.5079 Q2301.2591,268.5079 2300.9797,268.651 Q2300.7072,268.7941 2300.4892,269.1211 Q2300.278,269.4481 2300.278,269.8978 L2300.278,270.3747 Q2300.278,270.913 2300.6663,271.2741 Q2301.0547,271.6283 2301.7496,271.6283 Q2302.1584,271.6283 2302.4446,271.5193 Q2302.6149,271.4512 2302.7988,271.2604 Q2302.9147,271.1446 2302.976,271.1105 Q2303.0441,271.0765 2303.1327,271.0765 Q2303.2758,271.0765 2303.3848,271.1923 Q2303.5006,271.3013 2303.5006,271.4512 Q2303.5006,271.6011 2303.3507,271.7782 Q2303.1327,272.0303 2302.7852,272.1734 Q2302.3151,272.371 2301.7496,272.371 Q2301.0887,272.371 2300.5641,272.0984 Q2300.1349,271.8804 2299.8351,271.4171 Q2299.5353,270.947 2299.5353,270.3883 L2299.5353,269.8842 Q2299.5353,269.305 2299.801,268.8077 Q2300.0736,268.3035 2300.5505,268.0378 Q2301.0274,267.7653 2301.5657,267.7653 Q2301.8859,267.7653 2302.1652,267.8402 Q2302.4514,267.9083 2302.6898,268.065 Z " fill="#000000"/><text fill="#000000" font-family="'Consolas'" font-size="6.1046" font-weight="bold" lengthAdjust="spacing" textLength="23.4944" x="2310.4228" y="271.8668">Monstre</text><line style="stroke:#181818;stroke-width:0.218;" x1="2133.34" x2="2496.8286" y1="276.8404" y2="276.8404"/><text fill="#000000" font-family="'Consolas'" font-size="6.1046" lengthAdjust="spacing" textLength="87.2648" x="2135.5202" y="284.1616">-dangerosite : Dangerosite</text><line style="stroke:#181818;stroke-width:0.218;" x1="2133.34" x2="2496.8286" y1="287.4766" y2="287.4766"/><text fill="#000000" font-family="'Consolas'" font-size="6.1046" lengthAdjust="spacing" textLength="107.4028" x="2135.5202" y="294.7978">+getDangerosite( ) : Dangerosite</text><text fill="#000000" font-family="'Consolas'" font-size="6.1046" lengthAdjust="spacing" textLength="157.7479" x="2135.5202" y="301.9457">+setDangerosite(Dangerosite dangerosite) : void</text><text fill="#000000" font-family="'Consolas'" font-size="6.1046" lengthAdjust="spacing" textLength="359.1282" x="2135.5202" y="309.0935">+analyzer(Set&lt;Point2D&gt; positionWorld, List&lt;Creature&gt; creatures, List&lt;Objet&gt; objets, int tailleMonde) : void</text><text fill="#000000" font-family="'Consolas'" font-size="6.1046" lengthAdjust="spacing" textLength="60.4141" x="2135.5202" y="316.2414">+affiche( ) : void</text></g><!--class Loup--><g class="entity" data-entity="Loup" data-source-line="139" data-uid="ent0026" id="entity_Loup"><rect fill="#F1F1F1" height="49.5215" rx="1.0901" ry="1.0901" style="stroke:#181818;stroke-width:0.218;" width="280.4522" x="1466.4123" y="62.0893"/><ellipse cx="1598.0726" cy="69.066" fill="#ADD1B2" rx="4.7965" ry="4.7965" style="stroke:#181818;stroke-width:0.436;"/><path d="M1599.2785,67.2673 Q1599.3466,67.1719 1599.4284,67.1242 Q1599.5102,67.0765 1599.6055,67.0765 Q1599.7691,67.0765 1599.8713,67.1923 Q1599.9735,67.3014 1599.9735,67.5671 L1599.9735,68.2007 Q1599.9735,68.4664 1599.8713,68.5822 Q1599.7691,68.6981 1599.6055,68.6981 Q1599.4557,68.6981 1599.3671,68.6095 Q1599.2785,68.5277 1599.2308,68.3029 Q1599.2104,68.1462 1599.1286,68.0644 Q1598.9856,67.9009 1598.7198,67.8055 Q1598.4541,67.7101 1598.1816,67.7101 Q1597.8478,67.7101 1597.5684,67.8532 Q1597.2959,67.9963 1597.0779,68.3233 Q1596.8667,68.6504 1596.8667,69.1 L1596.8667,69.5769 Q1596.8667,70.1152 1597.255,70.4763 Q1597.6434,70.8306 1598.3383,70.8306 Q1598.7471,70.8306 1599.0332,70.7216 Q1599.2036,70.6534 1599.3875,70.4627 Q1599.5034,70.3468 1599.5647,70.3128 Q1599.6328,70.2787 1599.7214,70.2787 Q1599.8644,70.2787 1599.9735,70.3945 Q1600.0893,70.5035 1600.0893,70.6534 Q1600.0893,70.8033 1599.9394,70.9805 Q1599.7214,71.2325 1599.3739,71.3756 Q1598.9038,71.5732 1598.3383,71.5732 Q1597.6774,71.5732 1597.1528,71.3007 Q1596.7236,71.0827 1596.4238,70.6194 Q1596.124,70.1493 1596.124,69.5906 L1596.124,69.0864 Q1596.124,68.5073 1596.3897,68.0099 Q1596.6623,67.5057 1597.1392,67.24 Q1597.6161,66.9675 1598.1543,66.9675 Q1598.4746,66.9675 1598.7539,67.0424 Q1599.0401,67.1106 1599.2785,67.2673 Z " fill="#000000"/><text fill="#000000" font-family="'Consolas'" font-size="6.1046" font-weight="bold" lengthAdjust="spacing" textLength="13.4254" x="1607.0115" y="71.069">Loup</text><line style="stroke:#181818;stroke-width:0.218;" x1="1466.8484" x2="1746.4285" y1="76.0426" y2="76.0426"/><line style="stroke:#181818;stroke-width:0.218;" x1="1466.8484" x2="1746.4285" y1="79.531" y2="79.531"/><text fill="#000000" font-family="'Consolas'" font-size="6.1046" lengthAdjust="spacing" textLength="275.2197" x="1469.0286" y="86.8522">+combattre(Creature c, Set&lt;Point2D&gt; positionWorld,List&lt;Creature&gt; creatures) : void</text><text fill="#000000" font-family="'Consolas'" font-size="6.1046" lengthAdjust="spacing" textLength="73.8394" x="1469.0286" y="94">+jeuDeAtt( ) : boolean</text><text fill="#000000" font-family="'Consolas'" font-size="6.1046" lengthAdjust="spacing" textLength="100.6901" x="1469.0286" y="101.1479">+jeuDeDe(Creature c) : boolean</text><text fill="#000000" font-family="'Consolas'" font-size="6.1046" lengthAdjust="spacing" textLength="157.7479" x="1469.0286" y="108.2958">+saveToDB(Connection conn, int idPartie) : void</text></g><!--class Nourriture--><g class="entity" data-entity="Nourriture" data-source-line="158" data-uid="ent0031" id="entity_Nourriture"><rect fill="#F1F1F1" height="135.2959" rx="1.0901" ry="1.0901" style="stroke:#181818;stroke-width:0.218;" width="183.1184" x="414.0227" y="19.3571"/><ellipse cx="486.9471" cy="26.3338" fill="#ADD1B2" rx="4.7965" ry="4.7965" style="stroke:#181818;stroke-width:0.436;"/><path d="M488.153,24.5351 Q488.2212,24.4397 488.3029,24.392 Q488.3847,24.3443 488.4801,24.3443 Q488.6436,24.3443 488.7458,24.4601 Q488.848,24.5691 488.848,24.8349 L488.848,25.4685 Q488.848,25.7342 488.7458,25.85 Q488.6436,25.9658 488.4801,25.9658 Q488.3302,25.9658 488.2416,25.8773 Q488.153,25.7955 488.1053,25.5707 Q488.0849,25.414 488.0031,25.3322 Q487.8601,25.1687 487.5943,25.0733 Q487.3286,24.9779 487.0561,24.9779 Q486.7223,24.9779 486.4429,25.121 Q486.1704,25.2641 485.9524,25.5911 Q485.7412,25.9182 485.7412,26.3678 L485.7412,26.8447 Q485.7412,27.383 486.1295,27.7441 Q486.5179,28.0984 487.2128,28.0984 Q487.6216,28.0984 487.9077,27.9894 Q488.0781,27.9212 488.262,27.7305 Q488.3779,27.6146 488.4392,27.5806 Q488.5073,27.5465 488.5959,27.5465 Q488.739,27.5465 488.848,27.6623 Q488.9638,27.7713 488.9638,27.9212 Q488.9638,28.0711 488.8139,28.2483 Q488.5959,28.5003 488.2484,28.6434 Q487.7783,28.841 487.2128,28.841 Q486.5519,28.841 486.0273,28.5685 Q485.5981,28.3505 485.2983,27.8872 Q484.9985,27.417 484.9985,26.8584 L484.9985,26.3542 Q484.9985,25.7751 485.2642,25.2777 Q485.5368,24.7735 486.0137,24.5078 Q486.4906,24.2353 487.0289,24.2353 Q487.3491,24.2353 487.6284,24.3102 Q487.9146,24.3784 488.153,24.5351 Z " fill="#000000"/><text fill="#000000" font-family="'Consolas'" font-size="6.1046" font-weight="bold" lengthAdjust="spacing" textLength="33.5634" x="495.886" y="28.3368">Nourriture</text><line style="stroke:#181818;stroke-width:0.218;" x1="414.4588" x2="596.7051" y1="33.3104" y2="33.3104"/><text fill="#000000" font-family="'Consolas'" font-size="6.1046" lengthAdjust="spacing" textLength="50.3451" x="416.639" y="40.6316">-coolDown : int</text><text fill="#000000" font-family="'Consolas'" font-size="6.1046" lengthAdjust="spacing" textLength="97.3338" x="416.639" y="47.7795">-typeNourriture : Nourritures</text><line style="stroke:#181818;stroke-width:0.218;" x1="414.4588" x2="596.7051" y1="51.0945" y2="51.0945"/><text fill="#000000" font-family="'Consolas'" font-size="6.1046" lengthAdjust="spacing" textLength="164.4606" x="416.639" y="58.4157">-genererCoolDownAleatoire(Nourritures type) : int</text><text fill="#000000" font-family="'Consolas'" font-size="6.1046" lengthAdjust="spacing" textLength="70.4831" x="416.639" y="65.5636">+getCoolDown( ) : int</text><text fill="#000000" font-family="'Consolas'" font-size="6.1046" lengthAdjust="spacing" textLength="110.7592" x="416.639" y="72.7114">+setCoolDown(int coolDown) : void</text><text fill="#000000" font-family="'Consolas'" font-size="6.1046" lengthAdjust="spacing" textLength="117.4718" x="416.639" y="79.8593">+getTypeNourriture( ) : Nourritures</text><text fill="#000000" font-family="'Consolas'" font-size="6.1046" lengthAdjust="spacing" textLength="177.8859" x="416.639" y="87.0072">+setTypeNourriture(Nourritures typeNourriture) : void</text><text fill="#000000" font-family="'Consolas'" font-size="6.1046" lengthAdjust="spacing" textLength="63.7704" x="416.639" y="94.155">+getNom( ) : String</text><text fill="#000000" font-family="'Consolas'" font-size="6.1046" lengthAdjust="spacing" textLength="87.2648" x="416.639" y="101.3029">+setNom(String nom) : void</text><text fill="#000000" font-family="'Consolas'" font-size="6.1046" lengthAdjust="spacing" textLength="67.1268" x="416.639" y="108.4508">+getPos( ) : Point2D</text><text fill="#000000" font-family="'Consolas'" font-size="6.1046" lengthAdjust="spacing" textLength="90.6211" x="416.639" y="115.5986">+setPos(Point2D pos) : void</text><text fill="#000000" font-family="'Consolas'" font-size="6.1046" lengthAdjust="spacing" textLength="120.8282" x="416.639" y="122.7465">+appliquerEffet(Personnage p) : void</text><text fill="#000000" font-family="'Consolas'" font-size="6.1046" lengthAdjust="spacing" textLength="114.1155" x="416.639" y="129.8944">+retirerEffet(Personnage p) : void</text><text fill="#000000" font-family="'Consolas'" font-size="6.1046" lengthAdjust="spacing" textLength="90.6211" x="416.639" y="137.0422">+decrementerDuree( ) : void</text><text fill="#000000" font-family="'Consolas'" font-size="6.1046" lengthAdjust="spacing" textLength="73.8394" x="416.639" y="144.1901">+estActif( ) : boolean</text><text fill="#000000" font-family="'Consolas'" font-size="6.1046" lengthAdjust="spacing" textLength="157.7479" x="416.639" y="151.338">+saveToDB(Connection conn, int idPartie) : void</text></g><!--class ObjetUtilisable--><g class="entity" data-entity="ObjetUtilisable" data-source-line="178" data-uid="ent0033" id="entity_ObjetUtilisable"><rect fill="#F1F1F1" height="20.9301" rx="1.0901" ry="1.0901" style="stroke:#181818;stroke-width:0.218;" width="64.2984" x="473.5426" y="280.7648"/><ellipse cx="480.0832" cy="287.7415" fill="#B4A7E5" rx="4.7965" ry="4.7965" style="stroke:#181818;stroke-width:0.436;"/><path d="M480.4989,286.2767 L480.4989,289.1791 L481.2483,289.1791 Q481.514,289.1791 481.6298,289.2813 Q481.7457,289.3835 481.7457,289.5538 Q481.7457,289.7173 481.6298,289.8195 Q481.514,289.9217 481.2483,289.9217 L479.0068,289.9217 Q478.7411,289.9217 478.6252,289.8195 Q478.5094,289.7173 478.5094,289.547 Q478.5094,289.3835 478.6252,289.2813 Q478.7411,289.1791 479.0068,289.1791 L479.7562,289.1791 L479.7562,286.2767 L479.0068,286.2767 Q478.7411,286.2767 478.6252,286.1745 Q478.5094,286.0723 478.5094,285.9019 Q478.5094,285.7384 478.6252,285.6362 Q478.7411,285.534 479.0068,285.534 L481.2483,285.534 Q481.514,285.534 481.6298,285.6362 Q481.7457,285.7384 481.7457,285.9019 Q481.7457,286.0723 481.6298,286.1745 Q481.514,286.2767 481.2483,286.2767 L480.4989,286.2767 Z " fill="#000000"/><text fill="#000000" font-family="'Consolas'" font-size="6.1046" font-style="italic" font-weight="bold" lengthAdjust="spacing" textLength="50.3451" x="486.1879" y="289.7446">ObjetUtilisable</text><line style="stroke:#181818;stroke-width:0.218;" x1="473.9786" x2="537.405" y1="294.7182" y2="294.7182"/><line style="stroke:#181818;stroke-width:0.218;" x1="473.9786" x2="537.405" y1="298.2065" y2="298.2065"/></g><!--class NuageToxique--><g class="entity" data-entity="NuageToxique" data-source-line="179" data-uid="ent0035" id="entity_NuageToxique"><rect fill="#F1F1F1" height="135.2959" rx="1.0901" ry="1.0901" style="stroke:#181818;stroke-width:0.218;" width="364.3607" x="790.7638" y="19.3571"/><ellipse cx="950.953" cy="26.3338" fill="#ADD1B2" rx="4.7965" ry="4.7965" style="stroke:#181818;stroke-width:0.436;"/><path d="M952.1589,24.5351 Q952.227,24.4397 952.3088,24.392 Q952.3905,24.3443 952.4859,24.3443 Q952.6494,24.3443 952.7516,24.4601 Q952.8538,24.5691 952.8538,24.8349 L952.8538,25.4685 Q952.8538,25.7342 952.7516,25.85 Q952.6494,25.9658 952.4859,25.9658 Q952.336,25.9658 952.2475,25.8773 Q952.1589,25.7955 952.1112,25.5707 Q952.0908,25.414 952.009,25.3322 Q951.8659,25.1687 951.6002,25.0733 Q951.3345,24.9779 951.062,24.9779 Q950.7281,24.9779 950.4488,25.121 Q950.1763,25.2641 949.9582,25.5911 Q949.747,25.9182 949.747,26.3678 L949.747,26.8447 Q949.747,27.383 950.1354,27.7441 Q950.5237,28.0984 951.2187,28.0984 Q951.6275,28.0984 951.9136,27.9894 Q952.0839,27.9212 952.2679,27.7305 Q952.3837,27.6146 952.445,27.5806 Q952.5132,27.5465 952.6018,27.5465 Q952.7448,27.5465 952.8538,27.6623 Q952.9697,27.7713 952.9697,27.9212 Q952.9697,28.0711 952.8198,28.2483 Q952.6018,28.5003 952.2543,28.6434 Q951.7842,28.841 951.2187,28.841 Q950.5578,28.841 950.0332,28.5685 Q949.604,28.3505 949.3042,27.8872 Q949.0044,27.417 949.0044,26.8584 L949.0044,26.3542 Q949.0044,25.7751 949.2701,25.2777 Q949.5426,24.7735 950.0196,24.5078 Q950.4965,24.2353 951.0347,24.2353 Q951.3549,24.2353 951.6343,24.3102 Q951.9204,24.3784 952.1589,24.5351 Z " fill="#000000"/><text fill="#000000" font-family="'Consolas'" font-size="6.1046" font-weight="bold" lengthAdjust="spacing" textLength="40.2761" x="959.8918" y="28.3368">NuageToxique</text><line style="stroke:#181818;stroke-width:0.218;" x1="791.1999" x2="1154.6885" y1="33.3104" y2="33.3104"/><text fill="#000000" font-family="'Consolas'" font-size="6.1046" lengthAdjust="spacing" textLength="63.7704" x="793.3801" y="40.6316">-degatParTour : int</text><text fill="#000000" font-family="'Consolas'" font-size="6.1046" lengthAdjust="spacing" textLength="43.6324" x="793.3801" y="47.7795">-taille : int</text><text fill="#000000" font-family="'Consolas'" font-size="6.1046" lengthAdjust="spacing" textLength="40.2761" x="793.3801" y="54.9274">-duree : int</text><line style="stroke:#181818;stroke-width:0.218;" x1="791.1999" x2="1154.6885" y1="58.2424" y2="58.2424"/><text fill="#000000" font-family="'Consolas'" font-size="6.1046" lengthAdjust="spacing" textLength="83.9085" x="793.3801" y="65.5636">+getDegatParTour( ) : int</text><text fill="#000000" font-family="'Consolas'" font-size="6.1046" lengthAdjust="spacing" textLength="137.6099" x="793.3801" y="72.7114">+setDegatParTour(int degatParTour) : void</text><text fill="#000000" font-family="'Consolas'" font-size="6.1046" lengthAdjust="spacing" textLength="63.7704" x="793.3801" y="79.8593">+getTaille( ) : int</text><text fill="#000000" font-family="'Consolas'" font-size="6.1046" lengthAdjust="spacing" textLength="97.3338" x="793.3801" y="87.0072">+setTaille(int taille) : void</text><text fill="#000000" font-family="'Consolas'" font-size="6.1046" lengthAdjust="spacing" textLength="60.4141" x="793.3801" y="94.155">+getDuree( ) : int</text><text fill="#000000" font-family="'Consolas'" font-size="6.1046" lengthAdjust="spacing" textLength="90.6211" x="793.3801" y="101.3029">+setDuree(int duree) : void</text><text fill="#000000" font-family="'Consolas'" font-size="6.1046" lengthAdjust="spacing" textLength="90.6211" x="793.3801" y="108.4508">+decrementerDuree( ) : void</text><text fill="#000000" font-family="'Consolas'" font-size="6.1046" lengthAdjust="spacing" textLength="73.8394" x="793.3801" y="115.5986">+estActif( ) : boolean</text><text fill="#000000" font-family="'Consolas'" font-size="6.1046" lengthAdjust="spacing" textLength="107.4028" x="793.3801" y="122.7465">+deplacer(int dx, int dy) : void</text><text fill="#000000" font-family="'Consolas'" font-size="6.1046" lengthAdjust="spacing" textLength="258.438" x="793.3801" y="129.8944">+deplacementAleatoire(Set&lt;Point2D&gt; positionsOccupees, int tailleMonde) : void</text><text fill="#000000" font-family="'Consolas'" font-size="6.1046" lengthAdjust="spacing" textLength="278.5761" x="793.3801" y="137.0422">+combattre(Creature c, Set&lt;Point2D&gt; positionWorld, List&lt;Creature&gt; creatures) : void</text><text fill="#000000" font-family="'Consolas'" font-size="6.1046" lengthAdjust="spacing" textLength="359.1282" x="793.3801" y="144.1901">+analyzer(Set&lt;Point2D&gt; positionWorld, List&lt;Creature&gt; creatures, List&lt;Objet&gt; objets, int tailleMonde) : void</text><text fill="#000000" font-family="'Consolas'" font-size="6.1046" lengthAdjust="spacing" textLength="157.7479" x="793.3801" y="151.338">+saveToDB(Connection conn, int idPartie) : void</text></g><!--class Paysan--><g class="entity" data-entity="Paysan" data-source-line="215" data-uid="ent0041" id="entity_Paysan"><rect fill="#F1F1F1" height="28.0779" rx="1.0901" ry="1.0901" style="stroke:#181818;stroke-width:0.218;" width="183.1184" x="2240.1705" y="72.9903"/><ellipse cx="2319.8075" cy="79.967" fill="#ADD1B2" rx="4.7965" ry="4.7965" style="stroke:#181818;stroke-width:0.436;"/><path d="M2321.0134,78.1684 Q2321.0816,78.073 2321.1633,78.0253 Q2321.2451,77.9776 2321.3405,77.9776 Q2321.504,77.9776 2321.6062,78.0934 Q2321.7084,78.2024 2321.7084,78.4681 L2321.7084,79.1018 Q2321.7084,79.3675 2321.6062,79.4833 Q2321.504,79.5991 2321.3405,79.5991 Q2321.1906,79.5991 2321.102,79.5106 Q2321.0134,79.4288 2320.9657,79.204 Q2320.9453,79.0473 2320.8635,78.9655 Q2320.7205,78.802 2320.4547,78.7066 Q2320.189,78.6112 2319.9165,78.6112 Q2319.5827,78.6112 2319.3033,78.7543 Q2319.0308,78.8974 2318.8128,79.2244 Q2318.6016,79.5514 2318.6016,80.0011 L2318.6016,80.478 Q2318.6016,81.0163 2318.9899,81.3774 Q2319.3783,81.7316 2320.0732,81.7316 Q2320.482,81.7316 2320.7682,81.6226 Q2320.9385,81.5545 2321.1224,81.3637 Q2321.2383,81.2479 2321.2996,81.2138 Q2321.3677,81.1798 2321.4563,81.1798 Q2321.5994,81.1798 2321.7084,81.2956 Q2321.8242,81.4046 2321.8242,81.5545 Q2321.8242,81.7044 2321.6743,81.8815 Q2321.4563,82.1336 2321.1088,82.2767 Q2320.6387,82.4743 2320.0732,82.4743 Q2319.4123,82.4743 2318.8877,82.2018 Q2318.4585,81.9837 2318.1587,81.5204 Q2317.8589,81.0503 2317.8589,80.4916 L2317.8589,79.9875 Q2317.8589,79.4084 2318.1246,78.911 Q2318.3972,78.4068 2318.8741,78.1411 Q2319.351,77.8686 2319.8893,77.8686 Q2320.2095,77.8686 2320.4888,77.9435 Q2320.775,78.0117 2321.0134,78.1684 Z " fill="#000000"/><text fill="#000000" font-family="'Consolas'" font-size="6.1046" font-weight="bold" lengthAdjust="spacing" textLength="20.138" x="2328.7464" y="81.9701">Paysan</text><line style="stroke:#181818;stroke-width:0.218;" x1="2240.6065" x2="2422.8529" y1="86.9437" y2="86.9437"/><line style="stroke:#181818;stroke-width:0.218;" x1="2240.6065" x2="2422.8529" y1="90.4321" y2="90.4321"/><text fill="#000000" font-family="'Consolas'" font-size="6.1046" lengthAdjust="spacing" textLength="177.8859" x="2242.7867" y="97.7532">+savePaysan(Connection conn, int idPersonnage) : void</text></g><!--class Point2D--><g class="entity" data-entity="Point2D" data-source-line="235" data-uid="ent0045" id="entity_Point2D"><rect fill="#F1F1F1" height="106.7045" rx="1.0901" ry="1.0901" style="stroke:#181818;stroke-width:0.218;" width="115.9917" x="282.7738" y="33.5285"/><ellipse cx="327.1693" cy="40.5052" fill="#ADD1B2" rx="4.7965" ry="4.7965" style="stroke:#181818;stroke-width:0.436;"/><path d="M328.3752,38.7065 Q328.4434,38.6111 328.5251,38.5634 Q328.6069,38.5157 328.7023,38.5157 Q328.8658,38.5157 328.968,38.6315 Q329.0702,38.7405 329.0702,39.0063 L329.0702,39.6399 Q329.0702,39.9056 328.968,40.0214 Q328.8658,40.1372 328.7023,40.1372 Q328.5524,40.1372 328.4638,40.0487 Q328.3752,39.9669 328.3275,39.7421 Q328.3071,39.5854 328.2253,39.5036 Q328.0823,39.3401 327.8166,39.2447 Q327.5508,39.1493 327.2783,39.1493 Q326.9445,39.1493 326.6651,39.2924 Q326.3926,39.4355 326.1746,39.7625 Q325.9634,40.0895 325.9634,40.5392 L325.9634,41.0161 Q325.9634,41.5544 326.3517,41.9155 Q326.7401,42.2698 327.435,42.2698 Q327.8438,42.2698 328.13,42.1608 Q328.3003,42.0926 328.4842,41.9019 Q328.6001,41.786 328.6614,41.752 Q328.7295,41.7179 328.8181,41.7179 Q328.9612,41.7179 329.0702,41.8337 Q329.186,41.9427 329.186,42.0926 Q329.186,42.2425 329.0361,42.4197 Q328.8181,42.6717 328.4706,42.8148 Q328.0005,43.0124 327.435,43.0124 Q326.7741,43.0124 326.2495,42.7399 Q325.8203,42.5218 325.5205,42.0586 Q325.2207,41.5884 325.2207,41.0298 L325.2207,40.5256 Q325.2207,39.9465 325.4864,39.4491 Q325.759,38.9449 326.2359,38.6792 Q326.7128,38.4067 327.2511,38.4067 Q327.5713,38.4067 327.8506,38.4816 Q328.1368,38.5498 328.3752,38.7065 Z " fill="#000000"/><text fill="#000000" font-family="'Consolas'" font-size="6.1046" font-weight="bold" lengthAdjust="spacing" textLength="23.4944" x="336.1082" y="42.5082">Point2D</text><line style="stroke:#181818;stroke-width:0.218;" x1="283.2099" x2="398.3295" y1="47.4818" y2="47.4818"/><text fill="#000000" font-family="'Consolas'" font-size="6.1046" lengthAdjust="spacing" textLength="26.8507" x="285.3901" y="54.803">-x : int</text><text fill="#000000" font-family="'Consolas'" font-size="6.1046" lengthAdjust="spacing" textLength="26.8507" x="285.3901" y="61.9509">-y : int</text><line style="stroke:#181818;stroke-width:0.218;" x1="283.2099" x2="398.3295" y1="65.2659" y2="65.2659"/><text fill="#000000" font-family="'Consolas'" font-size="6.1046" lengthAdjust="spacing" textLength="46.9887" x="285.3901" y="72.5871">+getX( ) : int</text><text fill="#000000" font-family="'Consolas'" font-size="6.1046" lengthAdjust="spacing" textLength="46.9887" x="285.3901" y="79.735">+getY( ) : int</text><text fill="#000000" font-family="'Consolas'" font-size="6.1046" lengthAdjust="spacing" textLength="63.7704" x="285.3901" y="86.8828">+setX(int x) : void</text><text fill="#000000" font-family="'Consolas'" font-size="6.1046" lengthAdjust="spacing" textLength="63.7704" x="285.3901" y="94.0307">+setY(int y) : void</text><text fill="#000000" font-family="'Consolas'" font-size="6.1046" lengthAdjust="spacing" textLength="110.7592" x="285.3901" y="101.1786">+setPosition(int x, int y) : void</text><text fill="#000000" font-family="'Consolas'" font-size="6.1046" lengthAdjust="spacing" textLength="110.7592" x="285.3901" y="108.3264">+translate(int dx, int dy) : void</text><text fill="#000000" font-family="'Consolas'" font-size="6.1046" lengthAdjust="spacing" textLength="60.4141" x="285.3901" y="115.4743">+affiche( ) : void</text><text fill="#000000" font-family="'Consolas'" font-size="6.1046" lengthAdjust="spacing" textLength="93.9775" x="285.3901" y="122.6222">+distance(Point2D p) : float</text><text fill="#000000" font-family="'Consolas'" font-size="6.1046" lengthAdjust="spacing" textLength="97.3338" x="285.3901" y="129.77">+equals(Object obj) : boolean</text><text fill="#000000" font-family="'Consolas'" font-size="6.1046" lengthAdjust="spacing" textLength="60.4141" x="285.3901" y="136.9179">+hashCode( ) : int</text></g><!--class PotionSoin--><g class="entity" data-entity="PotionSoin" data-source-line="250" data-uid="ent0046" id="entity_PotionSoin"><rect fill="#F1F1F1" height="49.5215" rx="1.0901" ry="1.0901" style="stroke:#181818;stroke-width:0.218;" width="162.9804" x="1762.2674" y="62.0893"/><ellipse cx="1825.1228" cy="69.066" fill="#ADD1B2" rx="4.7965" ry="4.7965" style="stroke:#181818;stroke-width:0.436;"/><path d="M1826.3287,67.2673 Q1826.3968,67.1719 1826.4786,67.1242 Q1826.5604,67.0765 1826.6557,67.0765 Q1826.8193,67.0765 1826.9214,67.1923 Q1827.0236,67.3014 1827.0236,67.5671 L1827.0236,68.2007 Q1827.0236,68.4664 1826.9214,68.5822 Q1826.8193,68.6981 1826.6557,68.6981 Q1826.5058,68.6981 1826.4173,68.6095 Q1826.3287,68.5277 1826.281,68.3029 Q1826.2606,68.1462 1826.1788,68.0644 Q1826.0357,67.9009 1825.77,67.8055 Q1825.5043,67.7101 1825.2318,67.7101 Q1824.8979,67.7101 1824.6186,67.8532 Q1824.3461,67.9963 1824.128,68.3233 Q1823.9168,68.6504 1823.9168,69.1 L1823.9168,69.5769 Q1823.9168,70.1152 1824.3052,70.4763 Q1824.6935,70.8306 1825.3885,70.8306 Q1825.7973,70.8306 1826.0834,70.7216 Q1826.2538,70.6534 1826.4377,70.4627 Q1826.5535,70.3468 1826.6149,70.3128 Q1826.683,70.2787 1826.7716,70.2787 Q1826.9146,70.2787 1827.0236,70.3945 Q1827.1395,70.5035 1827.1395,70.6534 Q1827.1395,70.8033 1826.9896,70.9805 Q1826.7716,71.2325 1826.4241,71.3756 Q1825.954,71.5732 1825.3885,71.5732 Q1824.7276,71.5732 1824.203,71.3007 Q1823.7738,71.0827 1823.474,70.6194 Q1823.1742,70.1493 1823.1742,69.5906 L1823.1742,69.0864 Q1823.1742,68.5073 1823.4399,68.0099 Q1823.7124,67.5057 1824.1894,67.24 Q1824.6663,66.9675 1825.2045,66.9675 Q1825.5247,66.9675 1825.8041,67.0424 Q1826.0902,67.1106 1826.3287,67.2673 Z " fill="#000000"/><text fill="#000000" font-family="'Consolas'" font-size="6.1046" font-weight="bold" lengthAdjust="spacing" textLength="33.5634" x="1834.0617" y="71.069">PotionSoin</text><line style="stroke:#181818;stroke-width:0.218;" x1="1762.7035" x2="1924.8118" y1="76.0426" y2="76.0426"/><text fill="#000000" font-family="'Consolas'" font-size="6.1046" lengthAdjust="spacing" textLength="36.9197" x="1764.8837" y="83.3638">-pVie : int</text><line style="stroke:#181818;stroke-width:0.218;" x1="1762.7035" x2="1924.8118" y1="86.6789" y2="86.6789"/><text fill="#000000" font-family="'Consolas'" font-size="6.1046" lengthAdjust="spacing" textLength="57.0577" x="1764.8837" y="94">+getpVie( ) : int</text><text fill="#000000" font-family="'Consolas'" font-size="6.1046" lengthAdjust="spacing" textLength="83.9085" x="1764.8837" y="101.1479">+setpVie(int pVie) : void</text><text fill="#000000" font-family="'Consolas'" font-size="6.1046" lengthAdjust="spacing" textLength="157.7479" x="1764.8837" y="108.2958">+saveToDB(Connection conn, int idPartie) : void</text></g><!--class TestWoE--><g class="entity" data-entity="TestWoE" data-source-line="258" data-uid="ent0048" id="entity_TestWoE"><rect fill="#F1F1F1" height="20.9301" rx="1.0901" ry="1.0901" style="stroke:#181818;stroke-width:0.218;" width="37.4477" x="37.2817" y="280.7648"/><ellipse cx="43.8223" cy="287.7415" fill="#ADD1B2" rx="4.7965" ry="4.7965" style="stroke:#181818;stroke-width:0.436;"/><path d="M45.0282,285.9428 Q45.0964,285.8474 45.1781,285.7997 Q45.2599,285.752 45.3553,285.752 Q45.5188,285.752 45.621,285.8679 Q45.7232,285.9769 45.7232,286.2426 L45.7232,286.8762 Q45.7232,287.1419 45.621,287.2577 Q45.5188,287.3736 45.3553,287.3736 Q45.2054,287.3736 45.1168,287.285 Q45.0282,287.2032 44.9806,286.9784 Q44.9601,286.8217 44.8784,286.7399 Q44.7353,286.5764 44.4696,286.481 Q44.2039,286.3857 43.9313,286.3857 Q43.5975,286.3857 43.3181,286.5287 Q43.0456,286.6718 42.8276,286.9988 Q42.6164,287.3259 42.6164,287.7755 L42.6164,288.2525 Q42.6164,288.7907 43.0047,289.1518 Q43.3931,289.5061 44.088,289.5061 Q44.4968,289.5061 44.783,289.3971 Q44.9533,289.329 45.1373,289.1382 Q45.2531,289.0224 45.3144,288.9883 Q45.3825,288.9542 45.4711,288.9542 Q45.6142,288.9542 45.7232,289.0701 Q45.839,289.1791 45.839,289.329 Q45.839,289.4788 45.6891,289.656 Q45.4711,289.9081 45.1236,290.0511 Q44.6535,290.2487 44.088,290.2487 Q43.4271,290.2487 42.9025,289.9762 Q42.4733,289.7582 42.1735,289.2949 Q41.8737,288.8248 41.8737,288.2661 L41.8737,287.7619 Q41.8737,287.1828 42.1395,286.6854 Q42.412,286.1813 42.8889,285.9156 Q43.3658,285.643 43.9041,285.643 Q44.2243,285.643 44.5036,285.718 Q44.7898,285.7861 45.0282,285.9428 Z " fill="#000000"/><text fill="#000000" font-family="'Consolas'" font-size="6.1046" font-weight="bold" lengthAdjust="spacing" textLength="23.4944" x="49.9269" y="289.7446">TestWoE</text><line style="stroke:#181818;stroke-width:0.218;" x1="37.7177" x2="74.2934" y1="294.7182" y2="294.7182"/><line style="stroke:#181818;stroke-width:0.218;" x1="37.7177" x2="74.2934" y1="298.2065" y2="298.2065"/></g><!--class World--><g class="entity" data-entity="World" data-source-line="261" data-uid="ent0049" id="entity_World"><rect fill="#F1F1F1" height="221.0704" rx="1.0901" ry="1.0901" style="stroke:#181818;stroke-width:0.218;" width="357.648" x="90.0429" y="180.6929"/><ellipse cx="258.6228" cy="187.6696" fill="#ADD1B2" rx="4.7965" ry="4.7965" style="stroke:#181818;stroke-width:0.436;"/><path d="M259.8288,185.871 Q259.8969,185.7756 259.9787,185.7279 Q260.0604,185.6802 260.1558,185.6802 Q260.3193,185.6802 260.4215,185.796 Q260.5237,185.905 260.5237,186.1707 L260.5237,186.8044 Q260.5237,187.0701 260.4215,187.1859 Q260.3193,187.3017 260.1558,187.3017 Q260.0059,187.3017 259.9173,187.2132 Q259.8288,187.1314 259.7811,186.9066 Q259.7606,186.7499 259.6789,186.6681 Q259.5358,186.5046 259.2701,186.4092 Q259.0044,186.3138 258.7319,186.3138 Q258.398,186.3138 258.1187,186.4569 Q257.8461,186.6 257.6281,186.927 Q257.4169,187.254 257.4169,187.7037 L257.4169,188.1806 Q257.4169,188.7189 257.8053,189.08 Q258.1936,189.4342 258.8886,189.4342 Q259.2973,189.4342 259.5835,189.3252 Q259.7538,189.2571 259.9378,189.0663 Q260.0536,188.9505 260.1149,188.9164 Q260.1831,188.8824 260.2716,188.8824 Q260.4147,188.8824 260.5237,188.9982 Q260.6395,189.1072 260.6395,189.2571 Q260.6395,189.407 260.4897,189.5841 Q260.2716,189.8362 259.9242,189.9793 Q259.4541,190.1769 258.8886,190.1769 Q258.2277,190.1769 257.7031,189.9044 Q257.2738,189.6863 256.9741,189.223 Q256.6743,188.7529 256.6743,188.1942 L256.6743,187.6901 Q256.6743,187.111 256.94,186.6136 Q257.2125,186.1094 257.6894,185.8437 Q258.1664,185.5712 258.7046,185.5712 Q259.0248,185.5712 259.3042,185.6461 Q259.5903,185.7143 259.8288,185.871 Z " fill="#000000"/><text fill="#000000" font-family="'Consolas'" font-size="6.1046" font-weight="bold" lengthAdjust="spacing" textLength="16.7817" x="267.5617" y="189.6727">World</text><line style="stroke:#181818;stroke-width:0.218;" x1="90.4789" x2="447.2548" y1="194.6463" y2="194.6463"/><text fill="#000000" font-family="'Consolas'" font-size="6.1046" lengthAdjust="spacing" textLength="63.7704" x="92.6591" y="201.9675">+TAILLE_MONDE : int</text><text fill="#000000" font-family="'Consolas'" font-size="6.1046" lengthAdjust="spacing" textLength="117.4718" x="92.6591" y="209.1154">+ListCreature : ArrayList&lt;Creature&gt;</text><text fill="#000000" font-family="'Consolas'" font-size="6.1046" lengthAdjust="spacing" textLength="104.0465" x="92.6591" y="216.2632">+ListObjets : LinkedList&lt;Objet&gt;</text><text fill="#000000" font-family="'Consolas'" font-size="6.1046" lengthAdjust="spacing" textLength="110.7592" x="92.6591" y="223.4111">+ListAnalyze : ArrayList&lt;Analyze&gt;</text><text fill="#000000" font-family="'Consolas'" font-size="6.1046" lengthAdjust="spacing" textLength="137.6099" x="92.6591" y="230.559">+ListElementJeu : ArrayList&lt;ElementDeJeu&gt;</text><text fill="#000000" font-family="'Consolas'" font-size="6.1046" lengthAdjust="spacing" textLength="73.8394" x="92.6591" y="237.7068">-currentPartieId : int</text><text fill="#000000" font-family="'Consolas'" font-size="6.1046" lengthAdjust="spacing" textLength="60.4141" x="92.6591" y="244.8547">-currentTurn : int</text><text fill="#000000" font-family="'Consolas'" font-size="6.1046" lengthAdjust="spacing" textLength="70.4831" x="92.6591" y="252.0026">-remainingTurns : int</text><line style="stroke:#181818;stroke-width:0.218;" x1="90.4789" x2="447.2548" y1="255.3176" y2="255.3176"/><text fill="#000000" font-family="'Consolas'" font-size="6.1046" lengthAdjust="spacing" textLength="93.9775" x="92.6591" y="262.6388">+getCurrentPartieId( ) : int</text><text fill="#000000" font-family="'Consolas'" font-size="6.1046" lengthAdjust="spacing" textLength="114.1155" x="92.6591" y="269.7866">+setCurrentPartieId(int id) : void</text><text fill="#000000" font-family="'Consolas'" font-size="6.1046" lengthAdjust="spacing" textLength="80.5521" x="92.6591" y="276.9345">+getCurrentTurn( ) : int</text><text fill="#000000" font-family="'Consolas'" font-size="6.1046" lengthAdjust="spacing" textLength="90.6211" x="92.6591" y="284.0824">+getRemainingTurns( ) : int</text><text fill="#000000" font-family="'Consolas'" font-size="6.1046" lengthAdjust="spacing" textLength="90.6211" x="92.6591" y="291.2303">+creationJoueur( ) : Joueur</text><text fill="#000000" font-family="'Consolas'" font-size="6.1046" lengthAdjust="spacing" textLength="83.9085" x="92.6591" y="298.3781">+creerMondeAlea( ) : void</text><text fill="#000000" font-family="'Consolas'" font-size="6.1046" lengthAdjust="spacing" textLength="245.0127" x="92.6591" y="305.526">-generationCreatures(int n, Random rand, Collection&lt;Creature&gt; col) : void</text><text fill="#000000" font-family="'Consolas'" font-size="6.1046" lengthAdjust="spacing" textLength="224.8747" x="92.6591" y="312.6739">-generationObjets(int n, Random rand, Collection&lt;Objet&gt; col) : void</text><text fill="#000000" font-family="'Consolas'" font-size="6.1046" lengthAdjust="spacing" textLength="137.6099" x="92.6591" y="319.8217">-positionAleatoire(Random rand) : Point2D</text><text fill="#000000" font-family="'Consolas'" font-size="6.1046" lengthAdjust="spacing" textLength="201.3803" x="92.6591" y="326.9696">+tourDeJour(int nbTours, Joueur moi, Connection conn) : void</text><text fill="#000000" font-family="'Consolas'" font-size="6.1046" lengthAdjust="spacing" textLength="107.4028" x="92.6591" y="334.1175">+afficheWorld(Joueur moi) : void</text><text fill="#000000" font-family="'Consolas'" font-size="6.1046" lengthAdjust="spacing" textLength="211.4493" x="92.6591" y="341.2653">-placerDansMonde(char[][] monde, ElementDeJeu e, char s) : void</text><text fill="#000000" font-family="'Consolas'" font-size="6.1046" lengthAdjust="spacing" textLength="140.9662" x="92.6591" y="348.4132">-getSymbolePourCreature(Creature c) : char</text><text fill="#000000" font-family="'Consolas'" font-size="6.1046" lengthAdjust="spacing" textLength="120.8282" x="92.6591" y="355.5611">-getSymbolePourObjet(Objet o) : char</text><text fill="#000000" font-family="'Consolas'" font-size="6.1046" lengthAdjust="spacing" textLength="194.6676" x="92.6591" y="362.7089">-afficherZoneVisible(char[][] monde, Creature hero) : void</text><text fill="#000000" font-family="'Consolas'" font-size="6.1046" lengthAdjust="spacing" textLength="147.6789" x="92.6591" y="369.8568">-GenerationP(int id, Point2D p) : Personnage</text><text fill="#000000" font-family="'Consolas'" font-size="6.1046" lengthAdjust="spacing" textLength="137.6099" x="92.6591" y="377.0047">-GenerationM(int id, Point2D p) : Monstre</text><text fill="#000000" font-family="'Consolas'" font-size="6.1046" lengthAdjust="spacing" textLength="130.8972" x="92.6591" y="384.1525">-GenerationO(int id, Point2D p) : Objet</text><text fill="#000000" font-family="'Consolas'" font-size="6.1046" lengthAdjust="spacing" textLength="352.4155" x="92.6591" y="391.3004">+saveWorldToDB(Connection conn, Joueur joueur, String nomPartie, int tourActuel, int toursRestants) : int</text><text fill="#000000" font-family="'Consolas'" font-size="6.1046" lengthAdjust="spacing" textLength="231.5873" x="92.6591" y="398.4483">+loadWorldFromDB(Connection conn, int idPartie, Joueur joueur) : void</text></g><!--link Archer to Personnage--><g class="link" data-entity-1="Archer" data-entity-2="Personnage" data-source-line="29" data-uid="lnk5" id="link_Archer_Personnage"><path codeLine="29" d="M2052.0441,129.7762 C2027.6606,163.4256 1998.2369,204.0317 1973.2211,238.5575" fill="none" id="Archer-to-Personnage" style="stroke:#181818;stroke-width:0.436;"/><polygon fill="none" points="1968.616,244.9133,1975.3397,240.0926,1971.1025,237.0225,1968.616,244.9133" style="stroke:#181818;stroke-width:0.436;"/></g><!--link Archer to Combattant--><g class="link" data-entity-1="Archer" data-entity-2="Combattant" data-source-line="30" data-uid="lnk7" id="link_Archer_Combattant"><path codeLine="30" d="M2003.1768,129.689 C1980.9735,139.6264 1956.433,148.9403 1932.7602,154.5304 C1866.6387,170.1407 1375.2052,138.6148 1321.8641,180.6929 C1290.7306,205.2509 1288.7827,250.5561 1289.5589,272.8161" fill="none" id="Archer-to-Combattant" style="stroke:#181818;stroke-width:0.436;stroke-dasharray:3.0523,3.0523;"/><polygon fill="none" points="1289.8324,280.6601,1292.1735,272.725,1286.9442,272.9073,1289.8324,280.6601" style="stroke:#181818;stroke-width:0.436;"/></g><!--link Creature to ElementDeJeu--><g class="link" data-entity-1="Creature" data-entity-2="ElementDeJeu" data-source-line="74" data-uid="lnk11" id="link_Creature_ElementDeJeu"><path codeLine="74" d="M1744.4987,612.9379 C1704.8101,631.1732 1660.6738,649.6658 1618.8093,663.3925 C1608.0434,666.92 1475.5982,694.1383 1399.7617,709.6135" fill="none" id="Creature-to-ElementDeJeu" style="stroke:#181818;stroke-width:0.436;"/><polygon fill="none" points="1392.0714,711.1828,1400.2848,712.1769,1399.2386,707.0501,1392.0714,711.1828" style="stroke:#181818;stroke-width:0.436;"/></g><!--link Creature to Deplacable--><g class="link" data-entity-1="Creature" data-entity-2="Deplacable" data-source-line="75" data-uid="lnk13" id="link_Creature_Deplacable"><path codeLine="75" d="M1744.5946,612.8856 C1671.649,649.8228 1595.4063,688.4206 1558.0941,707.3144" fill="none" id="Creature-to-Deplacable" style="stroke:#181818;stroke-width:0.436;stroke-dasharray:3.0523,3.0523;"/><polygon fill="none" points="1551.0919,710.8601,1559.276,709.6485,1556.9122,704.9803,1551.0919,710.8601" style="stroke:#181818;stroke-width:0.436;"/></g><!--link Epee to Objet--><g class="link" data-entity-1="Epee" data-entity-2="Objet" data-source-line="98" data-uid="lnk16" id="link_Epee_Objet"><path codeLine="98" d="M740.0826,122.5379 C753.8135,132.9114 768.9268,144.2398 782.9151,154.5304 C832.3885,190.9269 883.3651,227.3397 922.0334,254.7624" fill="none" id="Epee-to-Objet" style="stroke:#181818;stroke-width:0.436;"/><polygon fill="none" points="928.4357,259.3028,923.5469,252.6284,920.52,256.8965,928.4357,259.3028" style="stroke:#181818;stroke-width:0.436;"/></g><!--link Guerrier to Personnage--><g class="link" data-entity-1="Guerrier" data-entity-2="Personnage" data-source-line="113" data-uid="lnk19" id="link_Guerrier_Personnage"><path codeLine="113" d="M1354.4801,111.8461 C1383.1892,126.785 1422.1322,144.8284 1458.7816,154.5304 C1582.3823,187.2423 1623.4227,141.9331 1745.2618,180.6929 C1790.5143,195.0867 1830.1593,217.2118 1865.6838,240.5706" fill="none" id="Guerrier-to-Personnage" style="stroke:#181818;stroke-width:0.436;"/><polygon fill="none" points="1872.2418,244.8828,1867.1212,238.3846,1864.2464,242.7566,1872.2418,244.8828" style="stroke:#181818;stroke-width:0.436;"/></g><!--link Guerrier to Combattant--><g class="link" data-entity-1="Guerrier" data-entity-2="Combattant" data-source-line="114" data-uid="lnk20" id="link_Guerrier_Combattant"><path codeLine="114" d="M1308.4907,111.9159 C1303.9776,156.7193 1295.3674,242.1796 1292.2715,272.9206" fill="none" id="Guerrier-to-Combattant" style="stroke:#181818;stroke-width:0.436;stroke-dasharray:3.0523,3.0523;"/><polygon fill="none" points="1291.485,280.7299,1294.8745,273.1828,1289.6684,272.6585,1291.485,280.7299" style="stroke:#181818;stroke-width:0.436;"/></g><!--link Joueur to Analyze--><g class="link" data-entity-1="Joueur" data-entity-2="Analyze" data-source-line="133" data-uid="lnk22" id="link_Joueur_Analyze"><path codeLine="133" d="M1548.5977,355.4851 C1562.8999,417.1023 1581.6069,497.6594 1588.5007,527.3714" fill="none" id="Joueur-to-Analyze" style="stroke:#181818;stroke-width:0.436;stroke-dasharray:3.0523,3.0523;"/><polygon fill="none" points="1590.2747,535.0171,1591.0493,526.7801,1585.9522,527.9627,1590.2747,535.0171" style="stroke:#181818;stroke-width:0.436;"/></g><!--link Lapin to Monstre--><g class="link" data-entity-1="Lapin" data-entity-2="Monstre" data-source-line="138" data-uid="lnk25" id="link_Lapin_Monstre"><path codeLine="138" d="M2506.3442,101.041 C2473.1395,134.0015 2393.6602,212.8905 2349.0355,257.1793" fill="none" id="Lapin-to-Monstre" style="stroke:#181818;stroke-width:0.436;"/><polygon fill="none" points="2343.4647,262.7083,2350.8785,259.0363,2347.1925,255.3224,2343.4647,262.7083" style="stroke:#181818;stroke-width:0.436;"/></g><!--link Loup to Monstre--><g class="link" data-entity-1="Loup" data-entity-2="Monstre" data-source-line="146" data-uid="lnk27" id="link_Loup_Monstre"><path codeLine="146" d="M1649.5721,111.8505 C1678.2987,126.9419 1717.4684,145.1555 1754.4187,154.5304 C1914.4857,195.1347 1967.1814,132.2529 2125.0551,180.6929 C2182.8483,198.4268 2235.5871,231.8223 2272.2234,258.1811" fill="none" id="Loup-to-Monstre" style="stroke:#181818;stroke-width:0.436;"/><polygon fill="none" points="2278.5946,262.7649,2273.7514,256.0574,2270.6955,260.3048,2278.5946,262.7649" style="stroke:#181818;stroke-width:0.436;"/></g><!--link Loup to Combattant--><g class="link" data-entity-1="Loup" data-entity-2="Combattant" data-source-line="147" data-uid="lnk28" id="link_Loup_Combattant"><path codeLine="147" d="M1560.2967,111.8592 C1531.7097,126.096 1493.9048,143.372 1458.7816,154.5304 C1399.737,173.2889 1367.5745,138.8764 1321.8641,180.6929 C1292.7539,207.3221 1289.8418,251.0052 1290.0337,272.8073" fill="none" id="Loup-to-Combattant" style="stroke:#181818;stroke-width:0.436;stroke-dasharray:3.0523,3.0523;"/><polygon fill="none" points="1290.1027,280.6558,1292.6498,272.7843,1287.4175,272.8303,1290.1027,280.6558" style="stroke:#181818;stroke-width:0.436;"/></g><!--link Monstre to Creature--><g class="link" data-entity-1="Monstre" data-entity-2="Creature" data-source-line="156" data-uid="lnk29" id="link_Monstre_Creature"><path codeLine="156" d="M2266.9304,319.6293 C2228.5107,341.8937 2173.3469,373.8469 2125.0551,401.7667 C2087.2066,423.6473 2052.8984,443.4617 2015.2199,465.2115" fill="none" id="Monstre-to-Creature" style="stroke:#181818;stroke-width:0.436;"/><polygon fill="none" points="2008.4224,469.1353,2016.5279,467.4773,2013.912,462.9456,2008.4224,469.1353" style="stroke:#181818;stroke-width:0.436;"/></g><!--link Monstre to Analyze--><g class="link" data-entity-1="Monstre" data-entity-2="Analyze" data-source-line="157" data-uid="lnk30" id="link_Monstre_Analyze"><path codeLine="157" d="M2278.7821,319.6119 C2242.1632,346.0055 2182.9704,384.0982 2125.0551,401.7667 C1959.7077,452.2125 1897.8419,364.6333 1736.977,427.9293 C1676.1315,451.868 1626.3289,505.353 1606.0399,529.161" fill="none" id="Monstre-to-Analyze" style="stroke:#181818;stroke-width:0.436;stroke-dasharray:3.0523,3.0523;"/><polygon fill="none" points="1600.949,535.1348,1608.0311,530.8579,1604.0486,527.464,1600.949,535.1348" style="stroke:#181818;stroke-width:0.436;"/></g><!--link Nourriture to Objet--><g class="link" data-entity-1="Nourriture" data-entity-2="Objet" data-source-line="177" data-uid="lnk32" id="link_Nourriture_Objet"><path codeLine="177" d="M597.2044,150.6147 C599.668,151.9621 602.1273,153.2702 604.5735,154.5304 C702.6701,204.998 816.3982,243.7788 892.3656,267.1943" fill="none" id="Nourriture-to-Objet" style="stroke:#181818;stroke-width:0.436;"/><polygon fill="none" points="899.8661,269.5062,893.1362,264.6941,891.5949,269.6945,899.8661,269.5062" style="stroke:#181818;stroke-width:0.436;"/></g><!--link Nourriture to ObjetUtilisable--><g class="link" data-entity-1="Nourriture" data-entity-2="ObjetUtilisable" data-source-line="178" data-uid="lnk34" id="link_Nourriture_ObjetUtilisable"><path codeLine="178" d="M505.5918,154.5478 C505.5918,200.8381 505.5918,250.111 505.5918,272.8855" fill="none" id="Nourriture-to-ObjetUtilisable" style="stroke:#181818;stroke-width:0.436;stroke-dasharray:3.0523,3.0523;"/><polygon fill="none" points="505.5918,280.7343,508.208,272.8855,502.9755,272.8855,505.5918,280.7343" style="stroke:#181818;stroke-width:0.436;"/></g><!--link NuageToxique to Objet--><g class="link" data-entity-1="NuageToxique" data-entity-2="Objet" data-source-line="198" data-uid="lnk36" id="link_NuageToxique_Objet"><path codeLine="198" d="M973.0298,154.5478 C973.0298,189.8455 973.0298,223.5865 973.0298,251.4496" fill="none" id="NuageToxique-to-Objet" style="stroke:#181818;stroke-width:0.436;"/><polygon fill="none" points="973.0298,259.2984,975.646,251.4496,970.4135,251.4496,973.0298,259.2984" style="stroke:#181818;stroke-width:0.436;"/></g><!--link NuageToxique to Deplacable--><g class="link" data-entity-1="NuageToxique" data-entity-2="Deplacable" data-source-line="199" data-uid="lnk37" id="link_NuageToxique_Deplacable"><path codeLine="199" d="M1032.2313,154.5827 C1162.4076,302.3533 1461.2197,641.5526 1517.0768,704.9576" fill="none" id="NuageToxique-to-Deplacable" style="stroke:#181818;stroke-width:0.436;stroke-dasharray:3.0523,3.0523;"/><polygon fill="none" points="1522.2651,710.847,1519.0399,703.2282,1515.1136,706.6871,1522.2651,710.847" style="stroke:#181818;stroke-width:0.436;"/></g><!--link NuageToxique to Combattant--><g class="link" data-entity-1="NuageToxique" data-entity-2="Combattant" data-source-line="200" data-uid="lnk38" id="link_NuageToxique_Combattant"><path codeLine="200" d="M1155.457,151.888 C1198.8782,167.3718 1233.1773,179.7773 1234.2195,180.6929 C1266.1509,208.7436 1280.3231,251.6818 1286.0178,273.1351" fill="none" id="NuageToxique-to-Combattant" style="stroke:#181818;stroke-width:0.436;stroke-dasharray:3.0523,3.0523;"/><polygon fill="none" points="1288.0315,280.7212,1288.5465,272.4639,1283.4891,273.8064,1288.0315,280.7212" style="stroke:#181818;stroke-width:0.436;"/></g><!--link NuageToxique to Analyze--><g class="link" data-entity-1="NuageToxique" data-entity-2="Analyze" data-source-line="201" data-uid="lnk39" id="link_NuageToxique_Analyze"><path codeLine="201" d="M1031.4682,154.5914 C1107.174,241.1895 1232.6192,382.9035 1259.0739,401.7667 C1366.3536,478.253 1513.238,523.3654 1566.3306,538.1255" fill="none" id="NuageToxique-to-Analyze" style="stroke:#181818;stroke-width:0.436;stroke-dasharray:3.0523,3.0523;"/><polygon fill="none" points="1573.8925,540.2278,1567.0313,535.6048,1565.6298,540.6462,1573.8925,540.2278" style="stroke:#181818;stroke-width:0.436;"/></g><!--link Objet to ElementDeJeu--><g class="link" data-entity-1="Objet" data-entity-2="ElementDeJeu" data-source-line="211" data-uid="lnk40" id="link_Objet_ElementDeJeu"><path codeLine="211" d="M985.566,323.1133 C1014.9684,393.2421 1094.8166,564.075 1211.5452,663.3925 C1235.9549,684.1612 1261.5854,696.0088 1288.5809,705.1962" fill="none" id="Objet-to-ElementDeJeu" style="stroke:#181818;stroke-width:0.436;"/><polygon fill="none" points="1296.0111,707.7249,1289.4238,702.7194,1287.7379,707.6729,1296.0111,707.7249" style="stroke:#181818;stroke-width:0.436;"/></g><!--link Paysan to Personnage--><g class="link" data-entity-1="Paysan" data-entity-2="Personnage" data-source-line="219" data-uid="lnk42" id="link_Paysan_Personnage"><path codeLine="219" d="M2315.5797,100.9799 C2296.747,116.1673 2264.131,140.4549 2232.3217,154.5304 C2187.4485,174.3878 2170.578,162.3748 2125.0551,180.6929 C2082.711,197.7335 2045.0815,218.7861 2009.9669,240.7932" fill="none" id="Paysan-to-Personnage" style="stroke:#181818;stroke-width:0.436;"/><polygon fill="none" points="2003.3163,244.9613,2011.3563,243.0101,2008.5776,238.5764,2003.3163,244.9613" style="stroke:#181818;stroke-width:0.436;"/></g><!--link Personnage to Creature--><g class="link" data-entity-1="Personnage" data-entity-2="Creature" data-source-line="233" data-uid="lnk43" id="link_Personnage_Creature"><path codeLine="233" d="M1924.7152,337.5855 C1918.8199,362.985 1912.9681,388.1779 1905.5335,420.2096" fill="none" id="Personnage-to-Creature" style="stroke:#181818;stroke-width:0.436;"/><polygon fill="none" points="1903.759,427.8552,1908.082,420.8011,1902.985,419.6181,1903.759,427.8552" style="stroke:#181818;stroke-width:0.436;"/></g><!--link Personnage to Analyze--><g class="link" data-entity-1="Personnage" data-entity-2="Analyze" data-source-line="234" data-uid="lnk44" id="link_Personnage_Analyze"><path codeLine="234" d="M1865.7797,337.4635 C1827.2814,363.2946 1778.8894,396.5865 1736.977,427.9293 C1686.2957,465.8301 1634.5849,509.3568 1610.3322,530.0645" fill="none" id="Personnage-to-Analyze" style="stroke:#181818;stroke-width:0.436;stroke-dasharray:3.0523,3.0523;"/><polygon fill="none" points="1604.3632,535.161,1612.031,532.0541,1608.6334,528.0748,1604.3632,535.161" style="stroke:#181818;stroke-width:0.436;"/></g><!--link PotionSoin to Objet--><g class="link" data-entity-1="PotionSoin" data-entity-2="Objet" data-source-line="257" data-uid="lnk47" id="link_PotionSoin_Objet"><path codeLine="257" d="M1819.6507,111.8679 C1802.9066,127.1251 1779.2295,145.5174 1754.4187,154.5304 C1650.8149,192.174 1366.8812,157.7048 1259.0739,180.6929 C1179.9714,197.5634 1101.0904,229.9298 1044.2609,256.1142" fill="none" id="PotionSoin-to-Objet" style="stroke:#181818;stroke-width:0.436;"/><polygon fill="none" points="1037.1324,259.3987,1045.3558,258.4904,1043.1661,253.7381,1037.1324,259.3987" style="stroke:#181818;stroke-width:0.436;"/></g><!--SRC=[rLdlZXir4F-Ufx3e1r9ngIea95HL9uLB2grwrrFlQ0keGiwkatExMI-sztgXy8cduJNWnHXxlEk_uNgb5D5ARJ8pdl5uPdvZJpubizcCd5FUD8mmJNxgQSFrdx_zyRjXJ5H5WRwbL-IBktVlaZUyrXSJzPgt7PLqI-gE0sCo-THgETCx4DwOnQtvHz86bOpoArgztaZHj_MHQ8GajzPVch-1HDLGfUPQIxxgDNjOYVQC_yp8tLJaWMWrsbk9fWwuweBMuWrlDsHD6yK2JWV6wORXAiagJTjD4mhKR4txHXlL9tJBo2T7ebK2h7qocMYkOTLp8PkQY3LP7fsG6Lbmke6585ept1PJf3QkQtEWzXIdAqdRweAH2xhJT7jxmblDv9fMZCnRskp0kRUJNoSJkvpC9OXAe13uCoFjwa73WAB8FGBhBFKpic7wP61CoUs8fq8UaBqA8tSfUEq4Ax5TKJXdDZsIZEfUWWS7v8pf-wS2rds-E2ITK5npqLgl3yXZhlJzGVYGLEvJglWLwnSC8eWxMmdHCDg6l4LeCfUXwpM7_UBoGA-YbmoFPmfnQI5-i3LmesqFZF-4rwTCAlWACVw7lexB8Iuk8hFPBuV46nZ8T-u0-GZLKmY23wudXl6rExy2EryjnY0R5y2WTshSjILa1m7XzxB8pTSsGeL7w3Sm701QlmKrJtKIWrkaqyyu2_Bg5YJu1c8QaJfzIcLCWPF9f82MojMGII1t3B2Iag5Ms3EkJ6YJb3yrUogaEz9D1jXTvuUri5ilh7GCinJTozUU6X-BHWqTZSAdma8yYj9Inx6ByNDv-HxBZZCiBrfVH2TPSZqMi4SGaSewCMXxz3dce0k_9dguMaA-bQ01b5YMezgyJ1RNh6kWjD3t-WhBljwLfRQirNFGf0M7kY_MkdfILNt7c49D5hFPiMZhD8csefTSJZy0EEu3DxTfls5oqos4fJuMkKMjPMCFOy4UiTwpB78jh5cwWZReaSiJ4RdeIcb9AuqTBb8teaWhjc3_3DfsknaANvYkvJORT2wnHUS2OMnRm42QqLOe2U6QNQnI8SSHZTKSz9OGv15kknYXPeIjrynGJFfvSqj3HOC1GmqCGyEL-KwxSk5tOzNd9M-QsxbOVBMtjL6f0sm3pwnFDhvFLg-O7ZoLalLIEMTDNcqXpo5yHgDZFgANDCclsP2O4cMcowkATNONB17SCdqXQlQKLQ2ANoBoGeFjDAnBPBzcBKFJnrFquu2CWJAontPpp4Vgwvv9oSSRq7jSKpxIBSK4RDZi3UuZuEZeOdgb61dffGAFvf7euOJ7Wu5O2LCCVhsxCegjaunA329iDsYojz8zOvb7M9kuTc-5EhQlKoJaDV0DRC-LQxn3gyboFSCwao8bNexV3tKTnrR68H7clsj1_bymYC-5DxWqIP8zlGsaj1ImHJdTR-iQHo1hVkhPtsZYWErgNhy2Wu3wweDS-st_m1mBBDi38U8TB4H7b-ZkDM-uOjBA1Dh9JL5qxmFXWieDauYoqFzwhXOC7g2veY2aOL6xahELwvvrhcmVquwtOzNU7ETnlSMA0IsTOj5t_mkOlA6_ngt8NKifOw8J6Njx3KzwW19mrE3RmdyBhh6UY4xbKYgM2Zw71lvplCgkad1wmu7O0nmCZTH2Ufx0lLBou4LetgEYMOWtRNH9qhkE1RBtWeNAYMnCjpS8XilzNJOGjNfkfq-xOKdXqZIoy9g1N_9sSnvj3_MaExJw4i5qQ_vxRkCZtbnTXBkkuO3a4g-SGR_i4ad9D1pqzN8rWvGpjtSc5-1Z_inWy6w3AbqNNsWthkKWOOARQa2r2Mcftrg8joyHbvWzE70khim1-Ffc6shUs-UYbt5wuW0p9DN6mJJJ5e62yaJ0izrSO2GKiivQBUXn35_0XUUqF_zu2vPkRPjF7pA0_zdx-L-RDNvqq7sF6WZpEAo2a9u-ndDcqFfoPWpfUEVo9QCgoV4jbq2NhOUHMyQsKC1XNA2nY7NSQoi17h83rEC5JSNcXexbCmq_kaYW99oydjATel5534atUxqvDUdRpTdmoFis72ueMv9c7E8ppk_oq8dozX9Sejosro0ravc4KuP7ir-VdrKC2ugoqGRpS3uSzvJQ2wm4Gc55UNyIlPraRMs5tkLza0x2c06IELouiTsf30B_1w0G94fyKmiOXSeUYcP8hgkeuUtIPlSYRIz0-wxGSbxOXf2EQfKHDenTpXZBs2v4FrCnBMch6ghPtxURlHDHDuwUHWEZTIF6MHmplrKgcqALDg7AEzu5LHT7eWxwhCS3OHmu4-FZR4Qw-4SFdEMLVtJenjySyfyStYCT_5woYTuvTFJdOXb26Rv11oGxdpzy_7Zvu_6JayKosgP9vB7VtYDpAUakJlj0q9f4X6fVipglSqCPVh0CbJbQAER0sSo7GyaGimVCg-0g23GyaeTrbC-ETzxB-2a25o3AM-X4XfFzCdeKQomzAH89Z4hXHpPllr18JwDTf08MJo2cuJWDFti19YsOc4jMDexTZ9FJ8LZkrzm3yfIsjTWIg2uxL09CiYaMWfbezgh3E5-doy5VhcX0KNyp35Ja7Ly3IaEyXzjqkpBtQC1JDoxP2dxTNCp1WqtvgL-MRilUQ-6XhkoHJiqyvuUNFxm4KVXw4Fzc0TyDdwZiaFJPRhi2_3Y5NGx7cOmtpCgYVDJF4ibXkFwzQEtFQz1uiosEPh9PQ3X7FotFqRCfy3jFtbFn9sLnH2IFRpOUPP1pGNfb_piW_c6C1UUQAPpOtCoX6_zTFMK6yd7wvqi94B-svXv8iRqELHFp0SZ-1G00]--></g></svg>